STARTFONT 2.1
COMMENT
COMMENT Converted from OpenType font "uvn_baisau.ttf" by "otf2bdf 3.0".
COMMENT
FONT -FreeType-UVN Bai Sau-Bold-R-Normal--77-560-100-100-P-380-ISO10646-1
SIZE 56 100 100
FONTBOUNDINGBOX 109 109 -13 -21
STARTPROPERTIES 19
FOUNDRY "FreeType"
FAMILY_NAME "UVN Bai Sau"
WEIGHT_NAME "Bold"
SLANT "R"
SETWIDTH_NAME "Normal"
ADD_STYLE_NAME ""
PIXEL_SIZE 77
POINT_SIZE 560
RESOLUTION_X 100
RESOLUTION_Y 100
SPACING "P"
AVERAGE_WIDTH 380
CHARSET_REGISTRY "ISO10646"
CHARSET_ENCODING "1"
FONT_ASCENT 87
FONT_DESCENT 20
COPYRIGHT "(c) Copyright 2001 by Tom Truong. All Rights Reserved"
_OTF_FONTFILE "uvn_baisau.ttf"
_OTF_PSNAME "UVNBaiSauBold"
ENDPROPERTIES
CHARS 383
STARTCHAR 0020
ENCODING 32
SWIDTH 270 0
DWIDTH 21 0
BBX 0 0 0 0
BITMAP
ENDCHAR
STARTCHAR 0021
ENCODING 33
SWIDTH 321 0
DWIDTH 25 0
BBX 15 55 5 -1
BITMAP
7FFE
7FFE
7FFE
7FFE
7FFE
7FFE
7FFE
7FFE
7FFE
7FFE
7FFE
7FFE
7FFE
7FFE
7FFE
7FFE
7FFE
7FFC
7FFC
7FFC
7FFC
7FFC
7FFC
7FFC
7FFC
7FFC
7FFC
7FFC
7FFC
7FFC
7FFC
7FFC
7FFC
7FFC
7FFC
7FFC
0000
0000
0000
0000
0FF0
3FF8
7FFC
7FFE
FFFE
FFFE
FFFE
FFFE
FFFE
FFFE
7FFE
7FFC
3FF8
1FF0
07E0
ENDCHAR
STARTCHAR 0022
ENCODING 34
SWIDTH 347 0
DWIDTH 27 0
BBX 21 22 3 33
BITMAP
FF07F8
FF07F8
FF07F8
FF07F8
FF07F8
FF07F8
FF07F8
FF07F8
FF07F8
FF07F8
FF07F8
FF07F8
FF07F8
FF07F8
FF07F8
FF07F8
FF07F8
FF07F8
FF07F8
FF07F8
FF07F8
FF07F8
ENDCHAR
STARTCHAR 0023
ENCODING 35
SWIDTH 758 0
DWIDTH 59 0
BBX 58 56 1 0
BITMAP
0000007FC01FF800
0000007FC01FF800
000000FFC01FF000
000000FF803FF000
000001FF803FF000
000001FF803FE000
000001FF007FE000
000003FF007FC000
000003FF007FC000
000003FE00FFC000
000007FE00FF8000
000007FE01FF8000
000007FC01FF8000
00000FFC01FF0000
00000FF803FF0000
007FFFFFFFFFFFC0
007FFFFFFFFFFF80
00FFFFFFFFFFFF80
00FFFFFFFFFFFF80
01FFFFFFFFFFFF00
01FFFFFFFFFFFF00
01FFFFFFFFFFFF00
03FFFFFFFFFFFE00
03FFFFFFFFFFFE00
0000FFC01FF00000
0000FF801FF00000
0000FF803FF00000
0001FF803FE00000
0001FF003FE00000
0001FF007FE00000
0003FF007FC00000
0003FE00FFC00000
0007FE00FFC00000
1FFFFFFFFFFFF000
3FFFFFFFFFFFE000
3FFFFFFFFFFFE000
3FFFFFFFFFFFE000
7FFFFFFFFFFFC000
7FFFFFFFFFFFC000
7FFFFFFFFFFFC000
FFFFFFFFFFFF8000
FFFFFFFFFFFF8000
003FF00FFC000000
003FE00FFC000000
007FE00FF8000000
007FC01FF8000000
007FC01FF8000000
00FFC01FF0000000
00FF803FF0000000
01FF803FF0000000
01FF803FE0000000
01FF007FE0000000
03FF007FC0000000
03FF007FC0000000
03FE00FFC0000000
07FE00FF80000000
ENDCHAR
STARTCHAR 0024
ENCODING 36
SWIDTH 552 0
DWIDTH 43 0
BBX 30 62 8 -3
BITMAP
001FE000
001FE000
001FE000
001FE000
001FE000
001FE000
001FE000
003FFFE0
03FFFFE0
07FFFFE0
1FFFFFE0
3FFFFFE0
3FFFFFE0
7FFFFFE0
7FFFFFE0
FFFFFFE0
FFFFFFE0
FFFC0000
FFF80000
FFF80000
FFF80000
7FFC0000
7FFE0000
7FFF8000
3FFFC000
3FFFF000
1FFFF800
0FFFFC00
07FFFF00
03FFFF80
01FFFFC0
00FFFFE0
003FFFF0
001FFFF0
000FFFF8
0003FFF8
0001FFFC
0000FFFC
00007FFC
00007FFC
00007FFC
0000FFFC
FFFFFFFC
FFFFFFFC
FFFFFFFC
FFFFFFF8
FFFFFFF8
FFFFFFF0
FFFFFFF0
FFFFFFE0
FFFFFF80
FFFFFF00
FFFFFC00
001FE000
001FE000
001FE000
001FE000
001FE000
001FE000
001FE000
001FE000
001FE000
ENDCHAR
STARTCHAR 0025
ENCODING 37
SWIDTH 874 0
DWIDTH 68 0
BBX 62 54 3 0
BITMAP
007FE000001FF000
01FFF800001FE000
07FFFC00003FC000
0FFFFE00007FC000
1FFFFF00007F8000
3FFFFF8000FF0000
3FFFFFC000FF0000
7FFFFFC001FE0000
7FF0FFE003FE0000
FFC07FE003FC0000
FF803FE007F80000
FF801FF00FF80000
FF001FF00FF00000
FF001FF01FE00000
FF001FF01FE00000
FF001FF03FC00000
FF801FE07FC00000
FFC03FE07F800000
7FE07FE0FF000000
7FFFFFE1FF000000
7FFFFFC1FE000000
3FFFFF83FC000000
1FFFFF83FC000000
0FFFFF07F8000000
07FFFE0FF8000000
03FFF80FF0000000
00FFF01FE007F000
001F003FE03FFE00
0000003FC0FFFF00
0000007F81FFFFC0
0000007F83FFFFE0
000000FF07FFFFE0
000001FF0FFFFFF0
000001FE0FFFFFF8
000003FC1FFFFFF8
000007FC1FF80FFC
000007F81FF007FC
00000FF01FE007FC
00000FF03FE003FC
00001FE03FE003FC
00003FE03FE003FC
00003FC03FE003FC
00007F801FE007FC
0000FF801FF007FC
0000FF001FF80FFC
0001FE001FFF7FF8
0001FE000FFFFFF8
0003FC000FFFFFF0
0007FC0007FFFFF0
0007F80003FFFFE0
000FF00001FFFFC0
001FF00000FFFF00
001FE000003FFE00
003FC000000FF000
ENDCHAR
STARTCHAR 0026
ENCODING 38
SWIDTH 758 0
DWIDTH 59 0
BBX 55 55 4 -1
BITMAP
003FFFFFFC0000
00FFFFFFFC0000
01FFFFFFFC0000
03FFFFFFFC0000
07FFFFFFFC0000
07FFFFFFFC0000
07FFFFFFFC0000
07FFFFFFFC0000
07FFFFFFFC0000
07FFFFFFFC0000
07FFFFFFFC0000
03FFF800000000
03FFFC00000000
01FFFE00000800
00FFFF00003C00
007FFF80007E00
00FFFF8000FE00
01FFFFC003FF00
03FFFFE007FF00
07FFFFF00FFF80
0FFFFFF81FFF80
1FFFFFF80FFFC0
1FFFFFFC0FFFC0
3FFFFFFE07FFE0
7FFFFFFF07FFE0
7FFFFFFF83FFE0
7FFF3FFF83FFE0
FFFE3FFFC3FFE0
FFFE1FFFE3FFE0
FFFC0FFFF3FFE0
FFFC07FFFBFFE0
FFFC03FFFBFFE0
FFF803FFFFFFE0
FFF801FFFFFFE0
FFFC00FFFFFFE0
FFFC007FFFFFC0
FFFC007FFFFFC0
FFFC003FFFFFC0
FFFE001FFFFF80
7FFF000FFFFF80
7FFF8007FFFF00
7FFFE007FFFF00
3FFFFEFFFFFE00
3FFFFFFFFFFE00
1FFFFFFFFFFF00
0FFFFFFFFFFF00
07FFFFFFFFFF80
07FFFFFFFFFFC0
01FFFFFFFFFFE0
00FFFFFFFFFFF0
007FFFFFFFFFF0
001FFFFFFFFFF8
000FFFFFF3FFFC
0001FFFF81FFFE
00001FF8000000
ENDCHAR
STARTCHAR 0027
ENCODING 39
SWIDTH 180 0
DWIDTH 14 0
BBX 8 22 3 33
BITMAP
FF
FF
FF
FF
FF
FF
FF
FF
FF
FF
FF
FF
FF
FF
FF
FF
FF
FF
FF
FF
FF
FF
ENDCHAR
STARTCHAR 0028
ENCODING 40
SWIDTH 385 0
DWIDTH 30 0
BBX 23 73 6 -18
BITMAP
000080
0001C0
0003E0
0007F0
000FF8
001FFC
003FFC
007FF8
00FFF0
00FFE0
01FFC0
03FFC0
03FF80
07FF00
07FF00
0FFE00
0FFC00
1FFC00
1FF800
1FF800
3FF000
3FF000
3FF000
7FE000
7FE000
7FE000
7FC000
FFC000
FFC000
FFC000
FFC000
FFC000
FFC000
FF8000
FF8000
FF8000
FF8000
FF8000
FF8000
FFC000
FFC000
FFC000
FFC000
FFC000
FFC000
7FE000
7FE000
7FE000
7FE000
7FF000
3FF000
3FF800
3FF800
1FFC00
1FFC00
0FFE00
0FFE00
07FF00
07FF00
03FF80
03FFC0
01FFE0
01FFE0
00FFF0
007FF8
003FFC
003FFE
001FFC
000FF8
0007F0
0003E0
0001C0
000080
ENDCHAR
STARTCHAR 0029
ENCODING 41
SWIDTH 385 0
DWIDTH 30 0
BBX 23 73 2 -18
BITMAP
060000
0F0000
1F8000
3FC000
7FE000
FFF000
FFF800
7FF800
3FFC00
1FFE00
1FFE00
0FFF00
07FF80
03FF80
03FFC0
01FFC0
00FFE0
00FFE0
007FF0
007FF0
003FF0
003FF8
001FF8
001FF8
001FFC
000FFC
000FFC
000FFC
0007FC
0007FE
0007FE
0007FE
0007FE
0007FE
0007FE
0007FE
0007FE
0007FE
0007FE
0007FE
0007FE
0007FE
0007FE
0007FE
0007FC
0007FC
000FFC
000FFC
000FFC
001FF8
001FF8
001FF8
003FF0
003FF0
007FF0
007FE0
00FFE0
00FFC0
01FFC0
03FF80
03FF80
07FF00
0FFE00
1FFE00
3FFC00
7FF800
FFF800
7FF000
3FE000
1FC000
0F8000
070000
020000
ENDCHAR
STARTCHAR 002A
ENCODING 42
SWIDTH 488 0
DWIDTH 38 0
BBX 28 28 5 27
BITMAP
007FE000
003FE000
003FE000
083FC100
0C3FC300
1E1FC780
1F1F8FC0
3F9F9FC0
7FCFBFE0
7FEF7FE0
FFFFFFF0
FFFFFFF0
0FFFFF00
00FFF000
007FE000
0FFFFF00
FFFFFFF0
FFFFFFF0
7FEF7FF0
7FCFBFE0
3F9F9FC0
3F1F8FC0
1E1F8780
0C3FC380
083FC100
003FC000
007FE000
007FE000
ENDCHAR
STARTCHAR 002B
ENCODING 43
SWIDTH 822 0
DWIDTH 64 0
BBX 45 46 10 0
BITMAP
00003FE00000
00003FE00000
00003FE00000
00003FE00000
00003FE00000
00003FE00000
00003FE00000
00003FE00000
00003FE00000
00003FE00000
00003FE00000
00003FE00000
00003FE00000
00003FE00000
00003FE00000
00003FE00000
00003FE00000
00003FE00000
FFFFFFFFFFF8
FFFFFFFFFFF8
FFFFFFFFFFF8
FFFFFFFFFFF8
FFFFFFFFFFF8
FFFFFFFFFFF8
FFFFFFFFFFF8
FFFFFFFFFFF8
FFFFFFFFFFF8
00003FE00000
00003FE00000
00003FE00000
00003FE00000
00003FE00000
00003FE00000
00003FE00000
00003FE00000
00003FE00000
00003FE00000
00003FE00000
00003FE00000
00003FE00000
00003FE00000
00003FE00000
00003FE00000
00003FE00000
00003FE00000
00003FE00000
ENDCHAR
STARTCHAR 002C
ENCODING 44
SWIDTH 270 0
DWIDTH 21 0
BBX 18 24 1 -12
BITMAP
07FFC0
0FFF80
0FFF80
0FFF80
0FFF00
0FFF00
1FFF00
1FFE00
1FFE00
1FFE00
1FFC00
3FFC00
3FF800
3FF800
3FF800
3FF000
3FF000
7FF000
7FE000
7FE000
7FE000
7FC000
FFC000
FFC000
ENDCHAR
STARTCHAR 002D
ENCODING 45
SWIDTH 321 0
DWIDTH 25 0
BBX 20 10 3 14
BITMAP
FFFFF0
FFFFF0
FFFFF0
FFFFF0
FFFFF0
FFFFF0
FFFFF0
FFFFF0
FFFFF0
FFFFF0
ENDCHAR
STARTCHAR 002E
ENCODING 46
SWIDTH 270 0
DWIDTH 21 0
BBX 16 15 3 -1
BITMAP
0FF0
1FF8
3FFC
7FFE
7FFE
FFFF
FFFF
FFFF
FFFF
FFFE
7FFE
7FFE
3FFC
1FF8
07E0
ENDCHAR
STARTCHAR 002F
ENCODING 47
SWIDTH 270 0
DWIDTH 21 0
BBX 27 62 -3 -7
BITMAP
00000FE0
00000FC0
00001FC0
00001FC0
00001FC0
00003F80
00003F80
00003F80
00007F00
00007F00
00007F00
0000FE00
0000FE00
0000FE00
0001FC00
0001FC00
0001FC00
0003F800
0003F800
0003F800
0003F000
0007F000
0007F000
0007F000
000FE000
000FE000
000FE000
001FC000
001FC000
001FC000
003F8000
003F8000
003F8000
007F0000
007F0000
007F0000
00FE0000
00FE0000
00FE0000
01FC0000
01FC0000
01FC0000
01F80000
03F80000
03F80000
03F80000
07F00000
07F00000
07F00000
0FE00000
0FE00000
0FE00000
1FC00000
1FC00000
1FC00000
3F800000
3F800000
3F800000
7F000000
7F000000
7F000000
FE000000
ENDCHAR
STARTCHAR 0030
ENCODING 48
SWIDTH 552 0
DWIDTH 43 0
BBX 39 56 2 -1
BITMAP
0003FFC000
001FFFF800
007FFFFE00
00FFFFFF00
03FFFFFF80
07FFFFFFE0
0FFFFFFFE0
0FFFFFFFF0
1FFFFFFFF8
3FFFFFFFF8
3FFFFFFFFC
3FFFFFFFFC
7FFF01FFFE
7FFE007FFE
7FFE007FFE
7FFC003FFE
7FFC003FFE
FFFC003FFE
FFFC003FFE
FFFC003FFE
FFFC003FFE
FFFC003FFE
FFFC003FFE
FFFC003FFE
FFFC003FFE
FFFC003FFE
FFFC003FFE
FFFC003FFE
FFFC003FFE
FFFC003FFE
FFFC003FFE
FFFC003FFE
FFFC003FFE
FFFC003FFE
FFFC003FFE
FFFC003FFE
FFFC003FFE
FFFC003FFE
FFFC003FFE
7FFC003FFE
7FFC007FFE
7FFE007FFE
7FFF00FFFE
7FFFC3FFFE
3FFFFFFFFC
3FFFFFFFFC
1FFFFFFFF8
1FFFFFFFF8
0FFFFFFFF0
07FFFFFFE0
03FFFFFFC0
01FFFFFF80
00FFFFFF00
003FFFFC00
000FFFF000
0001FF8000
ENDCHAR
STARTCHAR 0031
ENCODING 49
SWIDTH 552 0
DWIDTH 43 0
BBX 21 54 11 0
BITMAP
FFFFF8
FFFFF8
FFFFF8
FFFFF8
FFFFF8
FFFFF8
FFFFF8
FFFFF8
FFFFF8
FFFFF8
FFFFF8
FFFFF8
00FFF8
00FFF8
00FFF8
00FFF8
00FFF8
00FFF8
00FFF8
00FFF8
00FFF8
00FFF8
00FFF8
00FFF8
00FFF8
00FFF8
00FFF8
00FFF8
00FFF8
00FFF8
00FFF8
00FFF8
00FFF8
00FFF8
00FFF8
00FFF8
00FFF8
00FFF8
00FFF8
00FFF8
00FFF8
00FFF8
00FFF8
00FFF8
00FFF8
00FFF8
00FFF8
00FFF8
00FFF8
00FFF8
00FFF8
00FFF8
00FFF8
00FFF8
ENDCHAR
STARTCHAR 0032
ENCODING 50
SWIDTH 552 0
DWIDTH 43 0
BBX 37 55 3 0
BITMAP
0007FF8000
003FFFE000
00FFFFF800
01FFFFFE00
03FFFFFF00
07FFFFFF80
0FFFFFFF80
1FFFFFFFC0
1FFFFFFFE0
3FFFFFFFE0
3FFFFFFFF0
7FFFFFFFF0
7FFF07FFF0
7FFC03FFF0
7FFC01FFF0
7FFC01FFF0
7FF801FFF8
7FF801FFF0
7FFC01FFF0
7FFC01FFF0
7FFE03FFF0
7FFF07FFE0
3FFF0FFFE0
3FFE1FFFE0
1FFC3FFFC0
1FF87FFF80
0FF0FFFF80
07E1FFFF00
07C3FFFE00
0183FFFE00
0007FFFC00
000FFFF800
001FFFF000
003FFFE000
007FFFC000
00FFFF8000
01FFFF0000
03FFFE0000
07FFFC0000
0FFFF80000
1FFFF00000
1FFFE00000
3FFFFFFFF8
7FFFFFFFF8
7FFFFFFFF8
7FFFFFFFF8
7FFFFFFFF8
FFFFFFFFF8
FFFFFFFFF8
7FFFFFFFF8
7FFFFFFFF8
7FFFFFFFF8
3FFFFFFFF8
1FFFFFFFF8
07FFFFFFF8
ENDCHAR
STARTCHAR 0033
ENCODING 51
SWIDTH 552 0
DWIDTH 43 0
BBX 36 54 4 0
BITMAP
7FFFFFF000
7FFFFFFC00
7FFFFFFF00
7FFFFFFF80
7FFFFFFF80
7FFFFFFFC0
7FFFFFFFC0
7FFFFFFFC0
7FFFFFFFC0
7FFFFFFFC0
7FFFFFFFC0
7FFFFFFFC0
00001FFF80
00003FFF80
00007FFF00
0000FFFE00
0003FFFC00
0007FFF800
000FFFE000
001FFFC000
003FFF8000
007FFF0000
00FFFFE000
01FFFFF800
01FFFFFE00
01FFFFFF00
01FFFFFF80
01FFFFFFC0
01FFFFFFE0
01FFFFFFE0
01FFFFFFE0
000007FFF0
000003FFF0
000001FFF0
000001FFF0
000000FFF0
000000FFF0
000001FFF0
000001FFF0
000003FFF0
000007FFF0
FFFFFFFFF0
FFFFFFFFF0
FFFFFFFFE0
FFFFFFFFE0
FFFFFFFFC0
FFFFFFFFC0
FFFFFFFF80
FFFFFFFF00
FFFFFFFE00
FFFFFFFC00
FFFFFFF800
FFFFFFE000
FFFFFE0000
ENDCHAR
STARTCHAR 0034
ENCODING 52
SWIDTH 552 0
DWIDTH 43 0
BBX 40 55 2 1
BITMAP
0000000040
00007FFC40
0000FFF8C0
0000FFF8C0
0001FFF1C0
0001FFE3C0
0003FFE3C0
0003FFC7C0
0007FFC7C0
000FFF8FC0
000FFF8FC0
001FFF1FC0
001FFE3FC0
003FFE3FC0
003FFC7FC0
007FFC7FC0
007FF8FFC0
00FFF8FFC0
01FFF1FFC0
01FFE3FFC0
03FFE3FFC0
03FFC3FFC0
07FFC3FFC0
07FF83FFC0
0FFF83FFC0
0FFF03FFC0
1FFE03FFC0
3FFE03FFC0
3FFC03FFC0
7FFC03FFC0
7FF803FFC0
7FF803FFC0
FFFFFFFFFF
FFFFFFFFFF
FFFFFFFFFF
FFFFFFFFFF
FFFFFFFFFF
FFFFFFFFFF
FFFFFFFFFF
7FFFFFFFFF
3FFFFFFFFF
3FFFFFFFFF
0FFFFFFFFF
03FFFFFFFF
000003FFC0
000003FFC0
000003FFC0
000003FFC0
000003FFC0
000003FFC0
000003FFC0
000003FFC0
000003FFC0
000003FFC0
000003FFC0
ENDCHAR
STARTCHAR 0035
ENCODING 53
SWIDTH 552 0
DWIDTH 43 0
BBX 36 54 4 0
BITMAP
7FFFFFFF00
7FFFFFFF00
7FFFFFFF00
7FFFFFFF00
7FFFFFFF00
7FFFFFFF00
7FFFFFFF00
7FFFFFFF00
7FFFFFFF00
7FFFFFFF00
7FFFFFFF00
7FFC000000
7FFC000000
7FFC000000
7FFC000000
7FFC000000
7FFC000000
7FFFF80000
7FFFFFC000
7FFFFFF000
7FFFFFFC00
7FFFFFFE00
7FFFFFFF00
7FFFFFFF80
7FFFFFFF80
7FFFFFFFC0
7FFFFFFFC0
7FFFFFFFE0
7FFFFFFFE0
00007FFFF0
000007FFF0
000003FFF0
000001FFF0
000001FFF0
000001FFF0
000001FFF0
000001FFF0
000001FFF0
000001FFF0
000003FFF0
000007FFF0
FFFFFFFFF0
FFFFFFFFE0
FFFFFFFFE0
FFFFFFFFE0
FFFFFFFFC0
FFFFFFFF80
FFFFFFFF80
FFFFFFFF00
FFFFFFFE00
FFFFFFFC00
FFFFFFF000
FFFFFFC000
FFFFFC0000
ENDCHAR
STARTCHAR 0036
ENCODING 54
SWIDTH 552 0
DWIDTH 43 0
BBX 40 55 2 -1
BITMAP
00007FFE00
0000FFFE00
0000FFFC00
0001FFFC00
0001FFF800
0003FFF800
0007FFF000
0007FFF000
000FFFE000
000FFFC000
001FFFC000
001FFF8000
003FFF8000
003FFF0000
007FFF0000
00FFFE0000
00FFFE0000
01FFFC4000
01FFF87C00
03FFF8FF00
03FFF0FF80
07FFF1FFE0
07FFE1FFF0
0FFFE3FFF8
0FFFC7FFF8
1FFF87FFFC
1FFF8FFFFC
3FFF0FFFFE
3FFF0FFFFE
3FFE00FFFE
7FFE007FFF
7FFC003FFF
7FFC003FFF
7FFC003FFF
7FF8003FFF
7FF8003FFF
FFF8003FFF
7FFC003FFF
7FFC003FFF
7FFE007FFE
7FFF00FFFE
7FFF81FFFE
7FFFFFFFFE
3FFFFFFFFC
3FFFFFFFFC
1FFFFFFFF8
1FFFFFFFF0
0FFFFFFFF0
07FFFFFFE0
03FFFFFFC0
01FFFFFF80
00FFFFFE00
003FFFFC00
000FFFF000
0001FF0000
ENDCHAR
STARTCHAR 0037
ENCODING 55
SWIDTH 552 0
DWIDTH 43 0
BBX 36 54 4 0
BITMAP
FFFFFFFE00
FFFFFFFF80
FFFFFFFFC0
FFFFFFFFE0
FFFFFFFFE0
FFFFFFFFE0
FFFFFFFFF0
FFFFFFFFF0
FFFFFFFFF0
FFFFFFFFF0
FFFFFFFFF0
FFFFFFFFE0
000003FFE0
000007FFE0
000007FFC0
000007FFC0
00000FFFC0
00000FFF80
00000FFF80
00001FFF80
00001FFF00
00001FFF00
00003FFF00
00003FFF00
0FFFFFFFE0
0FFFFFFFE0
0FFFFFFFE0
0FFFFFFFE0
0FFFFFFFE0
0FFFFFFFE0
0FFFFFFFE0
0FFFFFFFE0
0001FFF800
0003FFF000
0003FFF000
0003FFF000
0007FFE000
0007FFE000
0007FFE000
000FFFE000
000FFFC000
000FFFC000
001FFFC000
001FFF8000
001FFF8000
003FFF8000
003FFF0000
003FFF0000
007FFF0000
007FFE0000
007FFE0000
00FFFE0000
00FFFC0000
00FFFC0000
ENDCHAR
STARTCHAR 0038
ENCODING 56
SWIDTH 552 0
DWIDTH 43 0
BBX 40 56 2 -1
BITMAP
0003FFC000
001FFFF800
007FFFFE00
00FFFFFF00
01FFFFFF80
03FFFFFFC0
07FFFFFFE0
0FFFFFFFF0
0FFFFFFFF0
1FFFFFFFF8
1FFFC3FFF8
1FFF00FFF8
3FFE007FF8
3FFC007FF8
3FFC003FF8
3FFC003FF8
1FFC003FF8
1FFE007FF8
1FFE007FF8
0FFF00FFF0
0FFFC3FFF0
07FFFFFFE0
07FFFFFFC0
03FFFFFFC0
01FFFFFF80
00FFFFFF00
03FFFFFFC0
07FFFFFFE0
0FFFFFFFF0
1FFFFFFFF8
3FFFE7FFFC
3FFF00FFFC
7FFE007FFE
7FFC003FFE
7FF8003FFE
7FF8001FFE
FFF8001FFF
FFF8001FFF
FFF8001FFF
FFF8001FFF
FFFC003FFF
FFFC007FFF
7FFE00FFFE
7FFF81FFFE
7FFFFFFFFE
3FFFFFFFFC
3FFFFFFFFC
1FFFFFFFF8
1FFFFFFFF8
0FFFFFFFF0
07FFFFFFE0
03FFFFFFC0
01FFFFFF00
007FFFFE00
001FFFF000
0001FF8000
ENDCHAR
STARTCHAR 0039
ENCODING 57
SWIDTH 552 0
DWIDTH 43 0
BBX 39 55 2 0
BITMAP
0003FFC000
001FFFF800
007FFFFE00
00FFFFFF00
01FFFFFF80
03FFFFFFC0
07FFFFFFE0
0FFFFFFFF0
1FFFFFFFF8
1FFFFFFFF8
3FFFFFFFFC
3FFFFFFFFC
7FFFFFFFFE
7FFF80FFFE
7FFF007FFE
FFFE003FFE
FFFC003FFE
FFFC003FFE
FFFC001FFE
FFFC001FFE
FFFC001FFE
FFFC003FFE
FFFC003FFE
FFFE007FFE
FFFE007FFC
7FFF80FFFC
7FFFF0FFFC
7FFFF1FFF8
3FFFE1FFF8
3FFFE3FFF8
1FFFC3FFF0
0FFFC7FFF0
07FF87FFE0
03FF8FFFE0
01FF1FFFC0
007F1FFFC0
001E3FFF80
00003FFF00
00007FFF00
00007FFE00
0000FFFE00
0001FFFC00
0001FFFC00
0003FFF800
0003FFF000
0007FFF000
0007FFE000
000FFFE000
000FFFC000
001FFFC000
003FFF8000
003FFF8000
007FFF0000
007FFE0000
00FFFE0000
ENDCHAR
STARTCHAR 003A
ENCODING 58
SWIDTH 308 0
DWIDTH 24 0
BBX 16 39 4 -1
BITMAP
03C0
0FF0
1FFC
3FFC
7FFE
7FFE
FFFF
FFFF
FFFF
FFFF
7FFE
7FFE
3FFC
3FFC
0FF0
03C0
0000
0000
0000
0000
0000
0000
0000
0000
0FF0
1FF8
3FFC
7FFE
7FFE
FFFF
FFFF
FFFF
FFFF
7FFF
7FFE
7FFE
3FFC
1FF8
07E0
ENDCHAR
STARTCHAR 003B
ENCODING 59
SWIDTH 308 0
DWIDTH 24 0
BBX 18 50 2 -12
BITMAP
007800
03FE00
07FF00
0FFF80
0FFFC0
1FFFC0
1FFFC0
1FFFC0
1FFFC0
1FFFC0
1FFFC0
0FFFC0
0FFF80
07FF00
03FE00
007800
000000
000000
000000
000000
000000
000000
000000
000000
000000
000000
0FFF80
0FFF80
0FFF00
1FFF00
1FFF00
1FFE00
1FFE00
1FFE00
3FFC00
3FFC00
3FFC00
3FF800
3FF800
3FF800
7FF000
7FF000
7FE000
7FE000
7FE000
FFC000
FFC000
FFC000
FF8000
FF8000
ENDCHAR
STARTCHAR 003C
ENCODING 60
SWIDTH 822 0
DWIDTH 64 0
BBX 45 46 10 0
BITMAP
000000000018
000000000078
0000000003F8
000000000FF8
000000003FF8
00000001FFF8
00000007FFF8
0000003FFFF8
000000FFFFF8
000003FFFFF8
00001FFFFFC0
00007FFFFF00
0003FFFFF800
000FFFFFE000
007FFFFF8000
01FFFFFC0000
07FFFFF00000
3FFFFF800000
FFFFFE000000
FFFFF0000000
FFFFC0000000
FFFF00000000
FFF800000000
FFFC00000000
FFFF00000000
FFFFE0000000
FFFFF8000000
7FFFFF000000
1FFFFFC00000
07FFFFF80000
00FFFFFE0000
003FFFFFC000
0007FFFFF000
0001FFFFFE00
00003FFFFF80
00000FFFFFE0
000003FFFFF8
0000007FFFF8
0000001FFFF8
00000003FFF8
00000000FFF8
000000001FF8
0000000007F8
0000000001F8
000000000038
000000000008
ENDCHAR
STARTCHAR 003D
ENCODING 61
SWIDTH 822 0
DWIDTH 64 0
BBX 45 26 10 10
BITMAP
FFFFFFFFFFF8
FFFFFFFFFFF8
FFFFFFFFFFF8
FFFFFFFFFFF8
FFFFFFFFFFF8
FFFFFFFFFFF8
FFFFFFFFFFF8
FFFFFFFFFFF8
FFFFFFFFFFF8
000000000000
000000000000
000000000000
000000000000
000000000000
000000000000
000000000000
000000000000
FFFFFFFFFFF8
FFFFFFFFFFF8
FFFFFFFFFFF8
FFFFFFFFFFF8
FFFFFFFFFFF8
FFFFFFFFFFF8
FFFFFFFFFFF8
FFFFFFFFFFF8
FFFFFFFFFFF8
ENDCHAR
STARTCHAR 003E
ENCODING 62
SWIDTH 822 0
DWIDTH 64 0
BBX 45 46 10 0
BITMAP
C00000000000
F00000000000
FC0000000000
FF8000000000
FFE000000000
FFFC00000000
FFFF00000000
FFFFC0000000
FFFFF8000000
FFFFFE000000
3FFFFFC00000
07FFFFF00000
01FFFFFE0000
003FFFFF8000
000FFFFFE000
0001FFFFFC00
00007FFFFF00
00001FFFFFE0
000003FFFFF8
000000FFFFF8
0000001FFFF8
00000007FFF8
00000000FFF8
00000001FFF8
0000000FFFF8
0000003FFFF8
000001FFFFF8
000007FFFFF0
00001FFFFFC0
0000FFFFFE00
0003FFFFF800
001FFFFFC000
007FFFFF0000
03FFFFFC0000
0FFFFFE00000
7FFFFF800000
FFFFFC000000
FFFFF0000000
FFFF80000000
FFFE00000000
FFF800000000
FFC000000000
FF0000000000
F80000000000
E00000000000
800000000000
ENDCHAR
STARTCHAR 003F
ENCODING 63
SWIDTH 514 0
DWIDTH 40 0
BBX 36 56 2 -1
BITMAP
001FFF0000
007FFFC000
01FFFFF000
07FFFFFC00
0FFFFFFE00
1FFFFFFF00
1FFFFFFF00
3FFFFFFF80
7FFFFFFFC0
7FFFFFFFC0
7FFFFFFFE0
FFFFFFFFE0
FFFC0FFFE0
FFF807FFE0
3FF803FFF0
07F003FFF0
007003FFF0
000003FFF0
000003FFF0
000007FFF0
00000FFFF0
00003FFFE0
001FFFFFE0
001FFFFFE0
001FFFFFC0
001FFFFFC0
001FFFFF80
001FFFFF00
001FFFFF00
001FFFFE00
001FFFF800
001FFFE000
001FFF0000
001FFE0000
001FFE0000
001FFE0000
001FFE0000
0000000000
0000000000
0000000000
0000000000
0007F80000
000FFE0000
001FFE0000
003FFF0000
003FFF8000
003FFF8000
003FFF8000
007FFF8000
003FFF8000
003FFF8000
003FFF0000
001FFF0000
000FFE0000
0007FC0000
0003F00000
ENDCHAR
STARTCHAR 0040
ENCODING 64
SWIDTH 990 0
DWIDTH 77 0
BBX 72 69 3 -12
BITMAP
000000000780000000
00000007FFFF800000
0000003FFFFFF80000
000001FFFFFFFE0000
000007FFFFFFFF8000
00001FFFFFFFFFE000
00007FFFFFFFFFF800
0000FFFFFFFFFFFC00
0003FFFC0000FFFE00
0007FFE000001FFF00
000FFF80000007FF80
001FFE00000001FFC0
003FF800000000FFE0
007FF0000000007FF0
00FFC0000000001FF0
01FF80000000001FF8
01FF00000000000FF8
03FE000000000007FC
07FC00001C000003FC
07FC0003FF800003FE
0FF8001FFFC3FC01FE
0FF0003FFFE3FC01FE
1FF0007FFFF7FC01FE
1FE000FFFFFFF801FE
3FE001FFFFFFF800FF
3FC003FF80FFF800FF
3FC007FF007FF800FF
7F8007FE003FF000FF
7F800FFC003FF000FF
7F801FF8003FF000FF
7F801FF8003FF000FF
7F001FF0003FE000FF
FF003FF0003FE000FE
FF003FF0003FE001FE
FF003FE0003FE001FE
FF003FE0007FC001FE
FF007FE0007FC003FE
FF007FE0007FC003FC
FF007FE0007FC007FC
FF007FE000FF8007F8
FF007FE000FF800FF8
FF007FE001FF801FF0
FF007FE001FF801FF0
7F803FE003FF803FE0
7F803FE007FF80FFC0
7F803FF00FFF81FF80
7FC03FFC3FFFFFFF80
3FC01FFFFFFFFFFF00
3FC01FFFFF7FFFFE00
3FE00FFFFE3FFFF800
1FE007FFFC3FFFF000
1FF001FFF01FFFC000
0FF8007FC007FE0000
0FFC00000000000000
07FE00000000000000
03FF00000000002000
03FF80000000007000
01FFE000000001F800
00FFF000000007F800
007FFC0000001FFC00
003FFF800000FFFC00
000FFFF8000FFFF800
0007FFFFFFFFFFE000
0001FFFFFFFFFFC000
0000FFFFFFFFFF0000
00003FFFFFFFFC0000
000007FFFFFFE00000
000000FFFFFF000000
00000007FFE0000000
ENDCHAR
STARTCHAR 0041
ENCODING 65
SWIDTH 617 0
DWIDTH 48 0
BBX 41 55 4 0
BITMAP
0003FFE00000
001FFFF80000
007FFFFE0000
00FFFFFF8000
01FFFFFFC000
03FFFFFFE000
07FFFFFFF000
0FFFFFFFF800
1FFFFFFFF800
1FFFFFFFFC00
3FFFFFFFFC00
3FFFFFFFFE00
7FFFFFFFFE00
7FFF81FFFF00
7FFF007FFF00
FFFE003FFF00
FFFC003FFF00
FFFC001FFF80
FFF8001FFF80
FFF8001FFF80
FFF8000FFF80
FFF8000FFF80
FFF9FFFFFF80
FFF9FFFFFF80
FFF9FFFFFF80
FFF9FFFFFF80
FFF9FFFFFF80
FFF9FFFFFF80
FFF9FFFFFF80
FFF9FFFFFF80
FFF9FFFFFF80
FFF9FFFFFF80
FFF9FFFFFF80
FFF9FFFFFF80
FFF9FFFFFF80
FFF8000FFF80
FFF8000FFF80
FFF8000FFF80
FFF8000FFF80
FFF8000FFF80
FFF8000FFF80
FFF8000FFF80
FFF8000FFF80
FFF8000FFF80
FFF8000FFF80
FFF8000FFF80
FFF8000FFF80
FFF8000FFF80
FFF8000FFF80
FFF8000FFF80
FFF8000FFF80
FFF8000FFF80
FFF8000FFF80
FFF8000FFF80
FFF8000FFF80
ENDCHAR
STARTCHAR 0042
ENCODING 66
SWIDTH 578 0
DWIDTH 45 0
BBX 40 55 4 0
BITMAP
0007FF8000
003FFFF000
00FFFFFC00
01FFFFFE00
03FFFFFF00
07FFFFFF80
0FFFFFFFC0
1FFFFFFFE0
3FFFFFFFF0
3FFFFFFFF0
7FFFFFFFF0
7FFFFFFFF8
7FFE03FFF8
FFFE01FFF8
FFFC00FFF8
FFFC00FFF8
FFF800FFF8
FFF800FFF8
FFF800FFF8
FFF801FFF8
FFF803FFF0
FFF80FFFF0
FFF9FFFFE0
FFF9FFFFC0
FFF9FFFF80
FFF9FFFF00
FFF9FFFF80
FFF9FFFFC0
FFF9FFFFF0
FFF9FFFFF8
FFF9FFFFF8
FFF9FFFFFC
FFF9FFFFFE
FFF801FFFE
FFF8007FFF
FFF8003FFF
FFF8003FFF
FFF8003FFF
FFF8003FFF
FFF8003FFF
FFF8007FFF
FFF800FFFF
FFF803FFFF
FFF9FFFFFF
FFF9FFFFFE
FFF9FFFFFE
FFF9FFFFFC
FFF9FFFFFC
FFF9FFFFF8
FFF9FFFFF0
FFF9FFFFE0
FFF9FFFFC0
FFF9FFFF80
FFF9FFFC00
FFF9FFE000
ENDCHAR
STARTCHAR 0043
ENCODING 67
SWIDTH 501 0
DWIDTH 39 0
BBX 35 54 2 0
BITMAP
000001FFE0
00001FFFE0
0000FFFFE0
0003FFFFE0
000FFFFFE0
001FFFFFE0
007FFFFFE0
00FFFFFFE0
01FFFFFFE0
03FFFFFFE0
07FFFFFFE0
07FFFFFFE0
0FFFFFF800
1FFFFF0000
1FFFF80000
3FFFE00000
3FFFC00000
3FFF800000
7FFF000000
7FFF000000
7FFE000000
7FFE000000
FFFE000000
FFFC000000
FFFC000000
FFFC000000
FFFC000000
FFFC000000
FFFC000000
FFFC000000
FFFC000000
FFFE000000
7FFE000000
7FFE000000
7FFF000000
7FFF800000
3FFFC00000
3FFFE00000
1FFFF00000
1FFFFC0000
0FFFFF8000
0FFFFFFFE0
07FFFFFFE0
03FFFFFFE0
01FFFFFFE0
00FFFFFFE0
007FFFFFE0
003FFFFFE0
001FFFFFE0
0007FFFFE0
0001FFFFE0
00007FFFE0
00000FFFE0
0000007FE0
ENDCHAR
STARTCHAR 0044
ENCODING 68
SWIDTH 630 0
DWIDTH 49 0
BBX 44 54 4 0
BITMAP
FFFFFC000000
FFFFFFC00000
FFFFFFF00000
FFFFFFFC0000
FFFFFFFF0000
FFFFFFFF8000
FFFFFFFFC000
FFFFFFFFF000
FFFFFFFFF800
FFFFFFFFF800
FFFFFFFFFC00
FFFFFFFFFE00
FFFDFFFFFF00
FFFC07FFFF00
FFFC01FFFF80
FFFC007FFF80
FFFC003FFFC0
FFFC001FFFC0
FFFC001FFFE0
FFFC000FFFE0
FFFC0007FFE0
FFFC0007FFE0
FFFC0007FFF0
FFFC0003FFF0
FFFC0003FFF0
FFFC0003FFF0
FFFC0003FFF0
FFFC0003FFF0
FFFC0003FFF0
FFFC0003FFF0
FFFC0007FFF0
FFFC0007FFE0
FFFC0007FFE0
FFFC000FFFE0
FFFC000FFFE0
FFFC001FFFC0
FFFC003FFFC0
FFFC007FFFC0
FFFC00FFFF80
FFFC03FFFF80
FFFC1FFFFF00
FFFCFFFFFE00
FFFCFFFFFE00
FFFCFFFFFC00
FFFCFFFFF800
FFFCFFFFF000
FFFCFFFFE000
FFFCFFFFC000
FFFCFFFF8000
FFFCFFFF0000
FFFCFFFC0000
FFFCFFF00000
FFFCFF800000
FFFCF8000000
ENDCHAR
STARTCHAR 0045
ENCODING 69
SWIDTH 514 0
DWIDTH 40 0
BBX 35 54 2 0
BITMAP
000001FFE0
00001FFFE0
0000FFFFE0
0003FFFFE0
000FFFFFE0
001FFFFFE0
007FFFFFE0
00FFFFFFE0
01FFFFFFE0
03FFFFFFE0
07FFFFFFE0
07FFFFFFE0
0FFFFFC000
1FFFFE0000
1FFFF00000
3FFFE00000
3FFFC00000
3FFF800000
7FFF000000
7FFF000000
7FFFFFFFE0
7FFFFFFFE0
FFFFFFFFE0
FFFFFFFFE0
FFFFFFFFE0
FFFFFFFFE0
FFFFFFFFE0
FFFFFFFFE0
FFFFFFFFE0
FFFFFFFFE0
FFFFFFFFE0
FFFFFFFFE0
7FFFFFFFE0
7FFE000000
7FFF000000
7FFF000000
3FFF800000
3FFFC00000
1FFFE00000
1FFFF80000
0FFFFF0000
0FFFFFFFC0
07FFFFFFE0
03FFFFFFE0
01FFFFFFE0
00FFFFFFE0
007FFFFFE0
003FFFFFE0
001FFFFFE0
0007FFFFE0
0001FFFFE0
00007FFFE0
00000FFFE0
0000007FE0
ENDCHAR
STARTCHAR 0046
ENCODING 70
SWIDTH 450 0
DWIDTH 35 0
BBX 28 54 4 0
BITMAP
001FFFF0
00FFFFF0
01FFFFF0
07FFFFF0
0FFFFFF0
1FFFFFF0
3FFFFFF0
3FFFFFF0
7FFFFFF0
7FFFFFF0
7FFFFFF0
FFFFFFF0
FFFF8000
FFFE0000
FFFC0000
FFFC0000
FFF80000
FFF80000
FFF80000
FFF80000
FFF80000
FFFFFFF0
FFFFFFF0
FFFFFFF0
FFFFFFF0
FFFFFFF0
FFFFFFF0
FFFFFFF0
FFFFFFF0
FFFFFFF0
FFFFFFF0
FFFFFFF0
FFFFFFF0
FFFFFFF0
FFF80000
FFF80000
FFF80000
FFF80000
FFF80000
FFF80000
FFF80000
FFF80000
FFF80000
FFF80000
FFF80000
FFF80000
FFF80000
FFF80000
FFF80000
FFF80000
FFF80000
FFF80000
FFF80000
FFF80000
ENDCHAR
STARTCHAR 0047
ENCODING 71
SWIDTH 771 0
DWIDTH 60 0
BBX 56 56 2 -1
BITMAP
000003FFF00000
00003FFFFE0000
0000FFFFFFC000
0003FFFFFFF000
0007FFFFFFF800
001FFFFFFFFE00
003FFFFFFFFF00
007FFFFFFFFF80
00FFFFFFFFFF80
01FFFFFFFFFF00
03FFFFFFFFFF00
07FFFFFFFFFE00
07FFFFFFFFFC00
0FFFFF003FF800
1FFFF8000FF000
1FFFF00003E000
3FFFE00001C000
3FFFC000008000
3FFF8000000000
7FFF0000000000
7FFF0000000000
7FFE001FFFFFFF
7FFE001FFFFFFF
FFFE001FFFFFFF
FFFC001FFFFFFF
FFFC001FFFFFFF
FFFC001FFFFFFF
FFFC001FFFFFFF
FFFC001FFFFFFF
FFFC001FFFFFFF
FFFC001FFFFFFE
FFFE001FFFFFFE
7FFE001FFFFFFE
7FFE0000007FFE
7FFF000000FFFE
7FFF000000FFFC
7FFF800001FFFC
3FFFC00001FFFC
3FFFE00003FFF8
1FFFF00007FFF8
1FFFF8001FFFF8
0FFFFE003FFFF0
0FFFFFFFFFFFF0
07FFFFFFFFFFE0
03FFFFFFFFFFC0
03FFFFFFFFFFC0
01FFFFFFFFFF80
00FFFFFFFFFF00
007FFFFFFFFE00
003FFFFFFFFC00
000FFFFFFFF800
0007FFFFFFE000
0001FFFFFFC000
00007FFFFF0000
00001FFFF80000
000001FFC00000
ENDCHAR
STARTCHAR 0048
ENCODING 72
SWIDTH 630 0
DWIDTH 49 0
BBX 41 54 4 0
BITMAP
FFFC000FFF80
FFFC000FFF80
FFFC000FFF80
FFFC000FFF80
FFFC000FFF80
FFFC000FFF80
FFFC000FFF80
FFFC000FFF80
FFFC000FFF80
FFFC000FFF80
FFFC000FFF80
FFFC000FFF80
FFFC000FFF80
FFFC000FFF80
FFFC000FFF80
FFFC000FFF80
FFFC000FFF80
FFFC000FFF80
FFFC000FFF80
FFFFFFFFFF80
FFFFFFFFFF80
FFFFFFFFFF80
FFFFFFFFFF80
FFFFFFFFFF80
FFFFFFFFFF80
FFFFFFFFFF80
FFFFFFFFFF80
FFFFFFFFFF80
FFFFFFFFFF80
FFFFFFFFFF80
FFFFFFFFFF80
FFFFFFFFFF80
FFFC000FFF80
FFFC000FFF80
FFFC000FFF80
FFFC000FFF80
FFFC000FFF80
FFFC000FFF80
FFFC000FFF80
FFFC000FFF80
FFFC000FFF80
FFFC000FFF80
FFFC000FFF80
FFFC000FFF80
FFFC000FFF80
FFFC000FFF80
FFFC000FFF80
FFFC000FFF80
FFFC000FFF80
FFFC000FFF80
FFFC000FFF80
FFFC000FFF80
FFFC000FFF80
FFFC000FFF80
ENDCHAR
STARTCHAR 0049
ENCODING 73
SWIDTH 270 0
DWIDTH 21 0
BBX 14 54 4 0
BITMAP
FFFC
FFFC
FFFC
FFFC
FFFC
FFFC
FFFC
FFFC
FFFC
FFFC
FFFC
FFFC
FFFC
FFFC
FFFC
FFFC
FFFC
FFFC
FFFC
FFFC
FFFC
FFFC
FFFC
FFFC
FFFC
FFFC
FFFC
FFFC
FFFC
FFFC
FFFC
FFFC
FFFC
FFFC
FFFC
FFFC
FFFC
FFFC
FFFC
FFFC
FFFC
FFFC
FFFC
FFFC
FFFC
FFFC
FFFC
FFFC
FFFC
FFFC
FFFC
FFFC
FFFC
FFFC
ENDCHAR
STARTCHAR 004A
ENCODING 74
SWIDTH 411 0
DWIDTH 32 0
BBX 29 54 0 0
BITMAP
0000FFF8
0000FFF8
0000FFF8
0000FFF8
0000FFF8
0000FFF8
0000FFF8
0000FFF8
0000FFF8
0000FFF8
0000FFF8
0000FFF8
0000FFF8
0000FFF8
0000FFF8
0000FFF8
0000FFF8
0000FFF8
0000FFF8
0000FFF8
0000FFF8
0000FFF8
0000FFF8
0000FFF8
0000FFF8
0000FFF8
0000FFF8
0000FFF8
0000FFF8
0000FFF8
0000FFF8
0000FFF8
0000FFF8
0000FFF8
0000FFF8
0000FFF8
0000FFF8
0001FFF8
0001FFF8
0003FFF8
0007FFF8
FFFFFFF8
FFFFFFF0
FFFFFFF0
FFFFFFF0
FFFFFFE0
FFFFFFE0
FFFFFFC0
FFFFFF80
FFFFFF00
FFFFFE00
FFFFFC00
FFFFF000
FFFF0000
ENDCHAR
STARTCHAR 004B
ENCODING 75
SWIDTH 591 0
DWIDTH 46 0
BBX 42 54 4 0
BITMAP
FFFC001FFFC0
FFFC001FFFC0
FFFC001FFFC0
FFFC003FFF80
FFFC003FFF80
FFFC007FFF00
FFFC007FFF00
FFFC00FFFE00
FFFC00FFFE00
FFFC01FFFC00
FFFC01FFFC00
FFFC03FFF800
FFFC03FFF800
FFFC07FFF000
FFFC07FFF000
FFFC0FFFE000
FFFC1FFFE000
FFFC3FFFC000
FFFFFFFFC000
FFFFFFFF8000
FFFFFFFF0000
FFFFFFFE0000
FFFFFFFC0000
FFFFFFFF8000
FFFFFFFFE000
FFFFFFFFF000
FFFFFFFFF800
FFFFFFFFFC00
FFFFFFFFFC00
FFFFFFFFFE00
FFFFFFFFFE00
FFFFFFFFFE00
FFFC01FFFE00
FFFC007FFE00
FFFC007FFE00
FFFC003FFE00
FFFC003FFE00
FFFC003FFE00
FFFC003FFE00
FFFC003FFE00
FFFC003FFE00
FFFC003FFE00
FFFC003FFE00
FFFC003FFE00
FFFC003FFE00
FFFC003FFE00
FFFC003FFE00
FFFC003FFE00
FFFC003FFE00
FFFC003FFE00
FFFC003FFE00
FFFC003FFE00
FFFC003FFE00
FFFC003FFE00
ENDCHAR
STARTCHAR 004C
ENCODING 76
SWIDTH 424 0
DWIDTH 33 0
BBX 29 54 4 0
BITMAP
FFF80000
FFF80000
FFF80000
FFF80000
FFF80000
FFF80000
FFF80000
FFF80000
FFF80000
FFF80000
FFF80000
FFF80000
FFF80000
FFF80000
FFF80000
FFF80000
FFF80000
FFF80000
FFF80000
FFF80000
FFF80000
FFF80000
FFF80000
FFF80000
FFF80000
FFF80000
FFF80000
FFF80000
FFF80000
FFF80000
FFF80000
FFF80000
FFF80000
FFF80000
FFF80000
FFF80000
FFF80000
FFF80000
FFFC0000
FFFC0000
FFFE0000
FFFFFFF8
FFFFFFF8
7FFFFFF8
7FFFFFF8
3FFFFFF8
3FFFFFF8
1FFFFFF8
1FFFFFF8
0FFFFFF8
03FFFFF8
01FFFFF8
007FFFF8
0007FFF8
ENDCHAR
STARTCHAR 004D
ENCODING 77
SWIDTH 835 0
DWIDTH 65 0
BBX 63 55 1 0
BITMAP
000FF000001FE000
003FFC00007FF800
007FFE0000FFFC00
00FFFF0001FFFE00
00FFFF0001FFFE00
01FFFF8003FFFF00
01FFFF8003FFFF00
01FFFFC007FFFF80
03FFFFC007FFFF80
03FFFFC007FFFF80
03FFFFE007FFFF80
03FFFFE00FFFFF80
03FFFFE00FFDFF80
03FFFFE00FFDFFC0
07FFFFF00FFDFFC0
07FFBFF01FFDFFC0
07FF3FF01FF9FFC0
07FF3FF01FF9FFC0
07FF3FF81FF9FFC0
07FF3FF83FF9FFC0
07FF1FF83FF1FFE0
0FFF1FF83FF1FFE0
0FFF1FF83FF1FFE0
0FFF1FFC7FF1FFE0
0FFF0FFC7FF1FFE0
0FFF0FFC7FE0FFE0
0FFF0FFC7FE0FFE0
0FFF0FFC7FE0FFE0
0FFE0FFEFFE0FFF0
1FFE07FEFFE0FFF0
1FFE07FEFFC0FFF0
1FFE07FEFFC0FFF0
1FFE07FEFFC0FFF0
1FFE07FEFFC0FFF0
1FFE03FEFFC0FFF0
1FFE03FFFF80FFF8
3FFE03FFFF807FF8
3FFE03FFFF807FF8
3FFE01FFFF807FF8
3FFC01FFFF007FF8
3FFC01FFFF007FF8
3FFC01FFFF007FF8
3FFC01FFFF007FF8
3FFC00FFFF007FFC
7FFC00FFFE007FFC
7FFC00FFFE007FFC
7FFC00FFFE007FFC
7FFC00FFFE003FFC
7FFC007FFC003FFC
7FFC007FFC003FFC
7FFC007FFC003FFE
FFF8003FF8003FFE
FFF8003FF8003FFE
FFF8001FF0003FFE
FFF8000FE0003FFE
ENDCHAR
STARTCHAR 004E
ENCODING 78
SWIDTH 655 0
DWIDTH 51 0
BBX 43 57 4 -1
BITMAP
018000000000
0FF000000000
1FFC0003FFE0
3FFE0003FFE0
7FFF0003FFE0
7FFF0003FFE0
FFFF8003FFE0
FFFFC003FFE0
FFFFC003FFE0
FFFFE003FFE0
FFFFE003FFE0
FFFFF003FFE0
FFFFF003FFE0
FFFFF803FFE0
FFFFFC03FFE0
FFFFFC03FFE0
FFFFFE03FFE0
FFFFFE03FFE0
FFFFFF03FFE0
FFFFFF03FFE0
FFFFFF83FFE0
FFF7FF83FFE0
FFF7FFC3FFE0
FFF7FFE3FFE0
FFF3FFE1FFE0
FFF3FFF1FFE0
FFF1FFF1FFE0
FFF9FFF9FFE0
FFF8FFF9FFE0
FFF87FFDFFE0
FFF87FFDFFE0
FFF83FFDFFE0
FFF83FFFFFE0
FFF81FFFFFE0
FFF81FFFFFE0
FFF80FFFFFE0
FFF80FFFFFE0
FFF807FFFFE0
FFF803FFFFE0
FFF803FFFFE0
FFF801FFFFE0
FFF801FFFFE0
FFF800FFFFE0
FFF800FFFFE0
FFF8007FFFE0
FFF8007FFFE0
FFF8003FFFE0
FFF8001FFFE0
FFF8001FFFE0
FFF8000FFFE0
FFF8000FFFE0
FFF80007FFE0
FFF80007FFE0
FFF80003FFC0
FFF80001FFC0
FFF80000FF80
000000003E00
ENDCHAR
STARTCHAR 004F
ENCODING 79
SWIDTH 771 0
DWIDTH 60 0
BBX 56 56 2 -1
BITMAP
000007FFE00000
00003FFFFC0000
0000FFFFFF8000
0003FFFFFFC000
000FFFFFFFF000
001FFFFFFFF800
003FFFFFFFFC00
007FFFFFFFFE00
00FFFFFFFFFF00
01FFFFFFFFFF80
03FFFFFFFFFFC0
07FFFFFFFFFFE0
07FFFFFFFFFFF0
0FFFFF80FFFFF0
1FFFFC003FFFF8
1FFFF0000FFFF8
3FFFE00007FFFC
3FFFC00003FFFC
3FFF800001FFFC
7FFF000000FFFE
7FFF000000FFFE
7FFE0000007FFE
7FFE0000007FFE
FFFE0000003FFF
FFFC0000003FFF
FFFC0000003FFF
FFFC0000003FFF
FFFC0000003FFF
FFFC0000003FFF
FFFC0000003FFF
FFFC0000003FFF
FFFC0000003FFF
7FFE0000007FFF
7FFE0000007FFE
7FFF0000007FFE
7FFF000000FFFE
7FFF800001FFFE
3FFFC00001FFFC
3FFFE00003FFFC
1FFFF00007FFFC
1FFFF8001FFFF8
0FFFFE007FFFF8
0FFFFFFFFFFFF0
07FFFFFFFFFFE0
03FFFFFFFFFFE0
03FFFFFFFFFFC0
01FFFFFFFFFF80
00FFFFFFFFFF00
007FFFFFFFFE00
003FFFFFFFFC00
000FFFFFFFF800
0007FFFFFFE000
0001FFFFFFC000
0000FFFFFF0000
00001FFFF80000
000001FF800000
ENDCHAR
STARTCHAR 0050
ENCODING 80
SWIDTH 565 0
DWIDTH 44 0
BBX 39 55 4 0
BITMAP
0007FFC000
003FFFF000
00FFFFFC00
01FFFFFE00
03FFFFFF80
07FFFFFFC0
0FFFFFFFE0
1FFFFFFFE0
3FFFFFFFF0
3FFFFFFFF8
7FFFFFFFF8
7FFFFFFFFC
7FFFFFFFFC
FFFF03FFFC
FFFE00FFFC
FFFC00FFFE
FFFC007FFE
FFF8007FFE
FFF8007FFE
FFF8007FFE
FFF8007FFE
FFF800FFFE
FFF801FFFC
FFF803FFFC
FFF83FFFFC
FFF8FFFFFC
FFF8FFFFF8
FFF8FFFFF8
FFF8FFFFF0
FFF8FFFFF0
FFF8FFFFE0
FFF8FFFFC0
FFF8FFFF80
FFF8FFFE00
FFF8FFFC00
FFF8FFF000
FFF8FF8000
FFF8C00000
FFF8000000
FFF8000000
FFF8000000
FFF8000000
FFF8000000
FFF8000000
FFF8000000
FFF8000000
FFF8000000
FFF8000000
FFF8000000
FFF8000000
FFF8000000
FFF8000000
FFF8000000
FFF8000000
FFF8000000
ENDCHAR
STARTCHAR 0051
ENCODING 81
SWIDTH 771 0
DWIDTH 60 0
BBX 56 63 2 -8
BITMAP
000007FFE00000
00003FFFFC0000
0000FFFFFF0000
0003FFFFFFC000
000FFFFFFFF000
001FFFFFFFF800
003FFFFFFFFC00
007FFFFFFFFE00
00FFFFFFFFFF00
01FFFFFFFFFF80
03FFFFFFFFFFC0
07FFFFFFFFFFE0
07FFFFFFFFFFF0
0FFFFF80FFFFF0
1FFFFC003FFFF8
1FFFF0000FFFF8
3FFFE00007FFFC
3FFFC00003FFFC
3FFF800001FFFE
7FFF000000FFFE
7FFF000000FFFE
7FFE0000007FFE
7FFE0000007FFF
FFFE0000003FFF
FFFC0000003FFF
FFFC0000003FFF
FFFC0000003FFF
FFFC0000003FFF
FFFC0000003FFF
FFFC0000003FFF
FFFC0000003FFF
FFFE0000003FFF
FFFE0000003FFF
7FFE0000007FFF
7FFF03FFC07FFE
7FFF03FFC0FFFE
7FFF83FFC0FFFE
3FFFC3FFC1FFFE
3FFFE3FFC3FFFC
3FFFE3FFCFFFFC
1FFFE3FFFFFFF8
1FFFE3FFFFFFF8
0FFFE3FFFFFFF0
07FFE3FFFFFFF0
07FFE3FFFFFFE0
03FFE3FFFFFFC0
01FFE3FFFFFFC0
00FFE3FFFFFF80
007FE3FFFFFF00
003FE3FFFFFC00
001FE3FFFFF800
0007E3FFFFF000
0001E3FFFFC000
000063FFFF0000
000003FFF80000
000003FFC00000
000003FFC00000
000003FFC00000
000003FFC00000
000003FFC00000
000003FFC00000
000003FFC00000
000003FFC00000
ENDCHAR
STARTCHAR 0052
ENCODING 82
SWIDTH 578 0
DWIDTH 45 0
BBX 39 55 4 0
BITMAP
0007FF8000
003FFFF000
00FFFFFC00
01FFFFFF00
07FFFFFF80
0FFFFFFFC0
0FFFFFFFE0
1FFFFFFFF0
3FFFFFFFF0
3FFFFFFFF8
7FFFFFFFF8
7FFFFFFFFC
FFFF07FFFC
FFFE01FFFC
FFFC01FFFC
FFFC00FFFC
FFF800FFFC
FFF800FFFC
FFF800FFFC
FFF801FFF8
FFF801FFF8
FFF807FFF8
FFF9FFFFF0
FFF9FFFFE0
FFF9FFFFC0
FFF9FFFF80
FFF9FFFE00
FFF9FFFE00
FFF9FFFFC0
FFF9FFFFF0
FFF9FFFFF8
FFF9FFFFF8
FFF9FFFFFC
FFF9FFFFFC
FFF83FFFFE
FFF801FFFE
FFF800FFFE
FFF8007FFE
FFF8007FFE
FFF8007FFE
FFF8007FFE
FFF8007FFE
FFF8007FFE
FFF8007FFE
FFF8007FFE
FFF8007FFE
FFF8007FFE
FFF8007FFE
FFF8007FFE
FFF8007FFE
FFF8007FFE
FFF8007FFE
FFF8007FFE
FFF8007FFE
FFF8007FFE
ENDCHAR
STARTCHAR 0053
ENCODING 83
SWIDTH 527 0
DWIDTH 41 0
BBX 37 54 2 0
BITMAP
001FFFFFC0
00FFFFFFC0
03FFFFFFC0
07FFFFFFC0
0FFFFFFFC0
1FFFFFFFC0
1FFFFFFFC0
3FFFFFFFC0
3FFFFFFFC0
7FFFFFFFC0
7FFFFFFFC0
7FFFFFFFC0
7FFF000000
7FFE000000
7FFE000000
7FFE000000
7FFF000000
7FFF800000
7FFFC00000
3FFFF00000
3FFFF80000
1FFFFE0000
1FFFFF8000
0FFFFFE000
07FFFFF000
03FFFFFC00
01FFFFFE00
00FFFFFF00
003FFFFF80
000FFFFFC0
0007FFFFE0
0001FFFFE0
00007FFFF0
00003FFFF0
00000FFFF8
000007FFF8
000003FFF8
000001FFF8
000001FFF8
000003FFF8
000003FFF8
FFFFFFFFF8
FFFFFFFFF8
FFFFFFFFF8
FFFFFFFFF0
FFFFFFFFF0
FFFFFFFFE0
FFFFFFFFE0
FFFFFFFFC0
FFFFFFFF80
FFFFFFFF00
FFFFFFFC00
FFFFFFF000
FFFFFF8000
ENDCHAR
STARTCHAR 0054
ENCODING 84
SWIDTH 488 0
DWIDTH 38 0
BBX 37 54 1 0
BITMAP
FFFFFFFFF8
FFFFFFFFF8
FFFFFFFFF8
FFFFFFFFF8
FFFFFFFFF8
FFFFFFFFF8
FFFFFFFFF8
FFFFFFFFF8
FFFFFFFFF8
FFFFFFFFF8
FFFFFFFFF8
FFFFFFFFF8
000FFF8000
000FFF8000
000FFF8000
000FFF8000
000FFF8000
000FFF8000
000FFF8000
000FFF8000
000FFF8000
000FFF8000
000FFF8000
000FFF8000
000FFF8000
000FFF8000
000FFF8000
000FFF8000
000FFF8000
000FFF8000
000FFF8000
000FFF8000
000FFF8000
000FFF8000
000FFF8000
000FFF8000
000FFF8000
000FFF8000
000FFF8000
000FFF8000
000FFF8000
000FFF8000
000FFF8000
000FFF8000
000FFF8000
000FFF8000
000FFF8000
000FFF8000
000FFF8000
000FFF8000
000FFF8000
000FFF8000
000FFF8000
000FFF8000
ENDCHAR
STARTCHAR 0055
ENCODING 85
SWIDTH 617 0
DWIDTH 48 0
BBX 41 55 4 -1
BITMAP
FFF8000FFF80
FFF8000FFF80
FFF8000FFF80
FFF8000FFF80
FFF8000FFF80
FFF8000FFF80
FFF8000FFF80
FFF8000FFF80
FFF8000FFF80
FFF8000FFF80
FFF8000FFF80
FFF8000FFF80
FFF8000FFF80
FFF8000FFF80
FFF8000FFF80
FFF8000FFF80
FFF8000FFF80
FFF8000FFF80
FFF8000FFF80
FFF8000FFF80
FFF8000FFF80
FFF8000FFF80
FFF8000FFF80
FFF8000FFF80
FFF8000FFF80
FFF8000FFF80
FFF8000FFF80
FFF8000FFF80
FFF8000FFF80
FFF8000FFF80
FFF8000FFF80
FFF8000FFF80
FFF8000FFF80
FFF8000FFF80
FFF8001FFF80
FFF8001FFF80
FFF8001FFF80
FFFC001FFF00
FFFC003FFF00
FFFE003FFF00
7FFF00FFFF00
7FFFE3FFFE00
7FFFFFFFFE00
3FFFFFFFFE00
3FFFFFFFFC00
1FFFFFFFFC00
0FFFFFFFF800
0FFFFFFFF000
07FFFFFFE000
03FFFFFFE000
01FFFFFF8000
00FFFFFF0000
003FFFFE0000
000FFFF00000
0001FF800000
ENDCHAR
STARTCHAR 0056
ENCODING 86
SWIDTH 552 0
DWIDTH 43 0
BBX 45 55 -1 -1
BITMAP
FFFC0001FFF8
FFFC0001FFF8
FFFC0001FFF8
7FFC0001FFF0
7FFE0003FFF0
7FFE0003FFF0
3FFE0003FFE0
3FFE0003FFE0
3FFF0007FFE0
3FFF0007FFE0
1FFF0007FFC0
1FFF0007FFC0
1FFF800FFFC0
1FFF800FFFC0
0FFF800FFF80
0FFF800FFF80
0FFFC01FFF80
0FFFC01FFF80
07FFC01FFF00
07FFC01FFF00
07FFE03FFF00
07FFE03FFF00
03FFE03FFE00
03FFE03FFE00
03FFF07FFE00
03FFF07FFE00
01FFF07FFC00
01FFF07FFC00
01FFF8FFFC00
01FFF8FFFC00
00FFF8FFF800
00FFF8FFF800
00FFF8FFF800
00FFFDFFF800
007FFDFFF000
007FFDFFF000
007FFDFFF000
003FFDFFE000
003FFFFFE000
003FFFFFE000
003FFFFFE000
001FFFFFC000
001FFFFFC000
001FFFFFC000
001FFFFFC000
000FFFFF8000
000FFFFF8000
000FFFFF8000
0007FFFF0000
0007FFFF0000
0003FFFE0000
0001FFFC0000
0000FFF80000
00007FF00000
00001FC00000
ENDCHAR
STARTCHAR 0057
ENCODING 87
SWIDTH 912 0
DWIDTH 71 0
BBX 63 55 4 -1
BITMAP
FFF8007FFC003FFE
FFF8007FFC003FFE
FFF8007FFC003FFE
FFF8007FFC003FFE
FFF8007FFC003FFE
FFF8007FFC003FFE
FFF8007FFC003FFE
FFF8007FFC003FFE
FFF8007FFC003FFE
FFF8007FFC003FFE
FFF8007FFC003FFE
FFF8007FFC003FFE
FFF8007FFC003FFE
FFF8007FFC003FFE
FFF8007FFC003FFE
FFF8007FFC003FFE
FFF8007FFC003FFE
FFF8007FFC003FFE
FFF8007FFC003FFE
FFF8007FFC003FFE
FFF8007FFC003FFE
FFF8007FFC003FFE
FFF8007FFC003FFE
FFF8007FFC003FFE
FFF8007FFC003FFE
FFF8007FFC003FFE
FFF8007FFC003FFE
FFF8007FFC003FFE
FFF8007FFC003FFE
FFF8007FFC003FFE
FFF8007FFC003FFE
FFF8007FFC003FFE
FFF8007FFC003FFE
FFF8007FFC003FFE
FFF8007FFC003FFE
FFF8007FFC003FFE
FFF8007FFC003FFE
FFF8007FFC003FFE
FFFC00FFFE007FFE
FFFC00FFFE007FFE
FFFE01FFFF00FFFE
7FFF8FFFFFE3FFFC
7FFFFFFFFFFFFFFC
7FFFFFFFFFFFFFFC
3FFFFFFFFFFFFFF8
3FFFFFFFFFFFFFF8
1FFFFFFFFFFFFFF0
0FFFFFFFFFFFFFF0
0FFFFFFFFFFFFFE0
07FFFFFEFFFFFFC0
03FFFFFC7FFFFF80
00FFFFF83FFFFF00
007FFFE00FFFFC00
001FFFC007FFF000
0003FE0000FF8000
ENDCHAR
STARTCHAR 0058
ENCODING 88
SWIDTH 630 0
DWIDTH 49 0
BBX 46 54 2 0
BITMAP
FC00000001FC
FFC000001FFC
FFF800007FFC
FFFE0001FFFC
FFFF0007FFFC
FFFFC01FFFFC
FFFFE03FFFFC
FFFFF07FFFFC
FFFFF8FFFFFC
FFFFFDFFFFFC
FFFFFFFFFFFC
FFFFFFFFFFFC
7FFFFFFFFFF0
03FFFFFFFE00
007FFFFFF800
003FFFFFE000
000FFFFFC000
0007FFFF8000
0007FFFF0000
0003FFFE0000
0003FFFE0000
0001FFFC0000
0001FFFC0000
0001FFFC0000
0000FFFC0000
0000FFFC0000
0000FFFC0000
0000FFFC0000
0000FFFC0000
0000FFFC0000
0001FFFC0000
0001FFFC0000
0001FFFE0000
0003FFFE0000
0003FFFF0000
0007FFFF0000
000FFFFF8000
001FFFFFC000
003FFFFFF000
00FFFFFFFC00
07FFFFFFFF00
FFFFFFFFFFFC
FFFFFFFFFFFC
FFFFFFFFFFFC
FFFFFCFFFFFC
FFFFF8FFFFFC
FFFFF07FFFFC
FFFFE01FFFFC
FFFF800FFFFC
FFFF0007FFFC
FFFC0001FFFC
FFF000007FFC
FF8000000FFC
F0000000007C
ENDCHAR
STARTCHAR 0059
ENCODING 89
SWIDTH 565 0
DWIDTH 44 0
BBX 38 54 3 0
BITMAP
FFFC007FFC
FFFC007FFC
FFFC007FFC
FFFC007FFC
FFFC007FFC
FFFC007FFC
FFFC007FFC
FFFC007FFC
FFFC007FFC
FFFC007FFC
FFFC007FFC
FFFC007FFC
FFFC007FFC
FFFC007FFC
FFFC007FFC
FFFC007FFC
FFFC007FFC
FFFC007FFC
FFFC00FFFC
7FFC00FFFC
7FFC00FFFC
7FFE01FFF8
7FFF01FFF8
7FFFEFFFF8
3FFFFFFFF8
3FFFFFFFF0
1FFFFFFFF0
1FFFFFFFE0
0FFFFFFFE0
07FFFFFFC0
07FFFFFF80
03FFFFFF00
00FFFFFE00
007FFFF800
001FFFE000
000FFFC000
000FFFC000
000FFFC000
000FFFC000
000FFFC000
000FFFC000
000FFFC000
000FFFC000
000FFFC000
000FFFC000
000FFFC000
000FFFC000
000FFFC000
000FFFC000
000FFFC000
000FFFC000
000FFFC000
000FFFC000
000FFFC000
ENDCHAR
STARTCHAR 005A
ENCODING 90
SWIDTH 527 0
DWIDTH 41 0
BBX 39 54 1 0
BITMAP
1FFFFFFFE0
1FFFFFFFF8
1FFFFFFFFC
1FFFFFFFFC
1FFFFFFFFE
1FFFFFFFFE
1FFFFFFFFE
1FFFFFFFFE
1FFFFFFFFE
1FFFFFFFFE
1FFFFFFFFE
1FFFFFFFFE
000003FFFC
000007FFFC
000007FFF8
00000FFFF0
00001FFFE0
00003FFFE0
00003FFFC0
00007FFF80
0000FFFF00
0001FFFF00
0001FFFE00
0003FFFC00
0007FFFC00
0007FFF800
000FFFF000
001FFFE000
003FFFE000
003FFFC000
007FFF8000
00FFFF0000
01FFFF0000
01FFFE0000
03FFFC0000
07FFF80000
0FFFF80000
0FFFF00000
1FFFE00000
3FFFE00000
3FFFC00000
7FFFFFFFFE
7FFFFFFFFE
FFFFFFFFFE
FFFFFFFFFE
FFFFFFFFFE
FFFFFFFFFE
FFFFFFFFFE
FFFFFFFFFE
7FFFFFFFFE
7FFFFFFFFE
3FFFFFFFFE
1FFFFFFFFE
07FFFFFFFE
ENDCHAR
STARTCHAR 005B
ENCODING 91
SWIDTH 334 0
DWIDTH 26 0
BBX 16 71 7 -17
BITMAP
FFFF
FFFF
FFFF
FFFF
FFFF
FF80
FF80
FF80
FF80
FF80
FF80
FF80
FF80
FF80
FF80
FF80
FF80
FF80
FF80
FF80
FF80
FF80
FF80
FF80
FF80
FF80
FF80
FF80
FF80
FF80
FF80
FF80
FF80
FF80
FF80
FF80
FF80
FF80
FF80
FF80
FF80
FF80
FF80
FF80
FF80
FF80
FF80
FF80
FF80
FF80
FF80
FF80
FF80
FF80
FF80
FF80
FF80
FF80
FF80
FF80
FF80
FF80
FF80
FF80
FF80
FF80
FFFF
FFFF
FFFF
FFFF
FFFF
ENDCHAR
STARTCHAR 005C
ENCODING 92
SWIDTH 270 0
DWIDTH 21 0
BBX 26 62 -2 -7
BITMAP
FC000000
FE000000
FE000000
FE000000
7F000000
7F000000
7F000000
3F800000
3F800000
3F800000
1FC00000
1FC00000
1FC00000
0FE00000
0FE00000
0FE00000
07F00000
07F00000
07F00000
03F80000
03F80000
03F80000
03F80000
01FC0000
01FC0000
01FC0000
00FE0000
00FE0000
00FE0000
007F0000
007F0000
007F0000
003F8000
003F8000
003F8000
001FC000
001FC000
001FC000
000FE000
000FE000
000FE000
000FE000
0007F000
0007F000
0007F000
0003F800
0003F800
0003F800
0001FC00
0001FC00
0001FC00
0000FE00
0000FE00
0000FE00
00007F00
00007F00
00007F00
00003F80
00003F80
00003F80
00003F80
00001FC0
ENDCHAR
STARTCHAR 005D
ENCODING 93
SWIDTH 334 0
DWIDTH 26 0
BBX 17 71 3 -17
BITMAP
FFFF80
FFFF80
FFFF80
FFFF80
FFFF80
01FF80
01FF80
01FF80
01FF80
01FF80
01FF80
01FF80
01FF80
01FF80
01FF80
01FF80
01FF80
01FF80
01FF80
01FF80
01FF80
01FF80
01FF80
01FF80
01FF80
01FF80
01FF80
01FF80
01FF80
01FF80
01FF80
01FF80
01FF80
01FF80
01FF80
01FF80
01FF80
01FF80
01FF80
01FF80
01FF80
01FF80
01FF80
01FF80
01FF80
01FF80
01FF80
01FF80
01FF80
01FF80
01FF80
01FF80
01FF80
01FF80
01FF80
01FF80
01FF80
01FF80
01FF80
01FF80
01FF80
01FF80
01FF80
01FF80
01FF80
01FF80
FFFF80
FFFF80
FFFF80
FFFF80
FFFF80
ENDCHAR
STARTCHAR 005E
ENCODING 94
SWIDTH 990 0
DWIDTH 77 0
BBX 46 22 16 34
BITMAP
00007FF00000
00007FF80000
0000FFFC0000
0001FFFE0000
0003FFFF0000
0007FFFF0000
000FFFFF8000
000FFFFFC000
001FFFFFE000
003FFCFFF000
007FF87FF800
00FFF03FF800
01FFE01FFC00
01FFC00FFE00
03FF8007FF00
07FF0003FF80
0FFE0001FFC0
1FFC0000FFC0
3FF800007FE0
3FF000003FF0
7FE000001FF8
FFC000000FFC
ENDCHAR
STARTCHAR 005F
ENCODING 95
SWIDTH 488 0
DWIDTH 38 0
BBX 39 9 0 -18
BITMAP
FFFFFFFFFE
FFFFFFFFFE
FFFFFFFFFE
FFFFFFFFFE
FFFFFFFFFE
FFFFFFFFFE
FFFFFFFFFE
FFFFFFFFFE
FFFFFFFFFE
ENDCHAR
STARTCHAR 0060
ENCODING 96
SWIDTH 488 0
DWIDTH 38 0
BBX 16 14 9 43
BITMAP
FF80
FFC0
7FC0
3FE0
1FE0
0FF0
07F0
03F8
03FC
01FC
00FE
007E
003F
001F
ENDCHAR
STARTCHAR 0061
ENCODING 97
SWIDTH 552 0
DWIDTH 43 0
BBX 39 40 2 -1
BITMAP
0007FF8000
001FFFF000
007FFFF800
01FFFFFE00
03FFFFFF00
07FFFFFF80
0FFFFFFFC0
1FFFFFFFE0
1FFFFFFFF0
3FFFFFFFF0
3FFFFFFFF8
7FFFFFFFF8
7FFF03FFF8
7FFE00FFFC
FFFC007FFC
FFF8007FFC
FFF8003FFC
FFF0003FFC
FFF0003FFC
FFF0003FFC
FFF0003FFE
FFF0003FFE
FFF8003FFE
FFF8003FFE
FFFC003FFE
7FFC003FFE
7FFF00BFFE
7FFFFFBFFE
3FFFFFBFFE
3FFFFFBFFE
1FFFFFBFFE
1FFFFFBFFE
0FFFFFBFFE
07FFFFBFFE
03FFFFBFFE
01FFFFBFFE
00FFFFBFFE
003FFFBFFE
000FFFBFFE
0000500000
ENDCHAR
STARTCHAR 0062
ENCODING 98
SWIDTH 552 0
DWIDTH 43 0
BBX 39 55 3 -1
BITMAP
FFF0000000
FFF0000000
FFF0000000
FFF0000000
FFF0000000
FFF0000000
FFF0000000
FFF0000000
FFF0000000
FFF0000000
FFF0000000
FFF0000000
FFF0000000
FFF0000000
FFF0FE0000
FFF3FFE000
FFF3FFF800
FFF3FFFE00
FFF3FFFF00
FFF3FFFF80
FFF3FFFFC0
FFF3FFFFE0
FFF3FFFFE0
FFF3FFFFF0
FFF3FFFFF8
FFF3FFFFF8
FFF3CFFFF8
FFF001FFFC
FFF000FFFC
FFF0007FFC
FFF0003FFC
FFF0003FFE
FFF0003FFE
FFF0003FFE
FFF0003FFE
FFF0003FFE
FFF0003FFE
FFF8003FFE
7FF8007FFC
7FFC007FFC
7FFC00FFFC
7FFF01FFFC
7FFFFFFFF8
3FFFFFFFF8
3FFFFFFFF0
1FFFFFFFF0
0FFFFFFFE0
0FFFFFFFC0
07FFFFFFC0
03FFFFFF80
00FFFFFE00
007FFFFC00
001FFFF800
0007FFC000
0000780000
ENDCHAR
STARTCHAR 0063
ENCODING 99
SWIDTH 385 0
DWIDTH 30 0
BBX 27 39 2 0
BITMAP
000003E0
0003FFE0
001FFFE0
007FFFE0
00FFFFE0
03FFFFE0
07FFFFE0
0FFFFFE0
1FFFFFE0
1FFFFFE0
3FFFFFE0
3FFFFFE0
7FFFE000
7FFF0000
7FFE0000
FFFC0000
FFF80000
FFF80000
FFF00000
FFF00000
FFF00000
FFF00000
FFF80000
FFF80000
FFFC0000
7FFE0000
7FFF8000
7FFFFFE0
3FFFFFE0
3FFFFFE0
1FFFFFE0
0FFFFFE0
07FFFFE0
03FFFFE0
01FFFFE0
007FFFE0
003FFFE0
0007FFE0
00007FE0
ENDCHAR
STARTCHAR 0064
ENCODING 100
SWIDTH 552 0
DWIDTH 43 0
BBX 39 55 2 -1
BITMAP
0000003FFE
0000003FFE
0000003FFE
0000003FFE
0000003FFE
0000003FFE
0000003FFE
0000003FFE
0000003FFE
0000003FFE
0000003FFE
0000003FFE
0000003FFE
0000003FFE
0000003FFE
0003FFBFFE
001FFFBFFE
007FFFBFFE
00FFFFBFFE
03FFFFBFFE
07FFFFBFFE
0FFFFFBFFE
0FFFFFBFFE
1FFFFFBFFE
3FFFFFBFFE
3FFFFFBFFE
7FFFFFBFFE
7FFF83BFFE
7FFE003FFE
FFFC003FFE
FFF8003FFE
FFF8003FFE
FFF0003FFE
FFF0003FFE
FFF0003FFC
FFF0003FFC
FFF0003FFC
FFF8003FFC
FFF8003FFC
FFF8007FFC
7FFC00FFFC
7FFF01FFFC
7FFFFFFFF8
3FFFFFFFF8
3FFFFFFFF0
1FFFFFFFF0
1FFFFFFFE0
0FFFFFFFC0
07FFFFFFC0
03FFFFFF80
01FFFFFE00
00FFFFFC00
003FFFF000
000FFFC000
00007C0000
ENDCHAR
STARTCHAR 0065
ENCODING 101
SWIDTH 552 0
DWIDTH 43 0
BBX 40 40 2 -1
BITMAP
0003FF8000
001FFFF000
007FFFF800
00FFFFFE00
01FFFFFF00
03FFFFFF80
07FFFFFFC0
0FFFFFFFE0
1FFFFFFFF0
1FFFC3FFF0
3FFF00FFF8
3FFC01FFF8
7FFC07FFF8
7FF80FFFE0
7FF01FFFC0
FFF07FFF00
FFF0FFFE00
FFF3FFF800
FFF1FFF000
FFF0FFC000
FFF0FF8100
FFF07F03C0
FFF03C03F0
FFF83807FC
FFF8000FFF
7FFC001FFF
7FFE003FFF
7FFF80FFFE
3FFFFFFFFC
3FFFFFFFFC
1FFFFFFFF8
0FFFFFFFF0
0FFFFFFFE0
07FFFFFFE0
03FFFFFF80
01FFFFFF00
007FFFFE00
003FFFF800
0007FFE000
00007C0000
ENDCHAR
STARTCHAR 0066
ENCODING 102
SWIDTH 347 0
DWIDTH 27 0
BBX 23 54 4 0
BITMAP
007FFE
01FFFE
07FFFE
0FFFFE
1FFFFE
3FFFFE
7FFFFE
7FFFFE
7FFFFE
FFFFFE
FFFFFE
FFF800
FFF000
FFF000
FFF000
FFFFFE
FFFFFE
FFFFFE
FFFFFE
FFFFFE
FFFFFE
FFFFFE
FFFFFE
FFFFFE
FFFFFE
FFFFFE
FFFFFE
FFF000
FFF000
FFF000
FFF000
FFF000
FFF000
FFF000
FFF000
FFF000
FFF000
FFF000
FFF000
FFF000
FFF000
FFF000
FFF000
FFF000
FFF000
FFF000
FFF000
FFF000
FFF000
FFF000
FFF000
FFF000
FFF000
FFF000
ENDCHAR
STARTCHAR 0067
ENCODING 103
SWIDTH 552 0
DWIDTH 43 0
BBX 39 56 2 -17
BITMAP
0007FF8000
001FFFF000
007FFFF800
01FFFFFE00
03FFFFFF00
07FFFFFF80
0FFFFFFFC0
0FFFFFFFE0
1FFFFFFFF0
3FFFFFFFF0
3FFFFFFFF8
7FFFFFFFF8
7FFF03FFF8
7FFE00FFFC
FFFC007FFC
FFF8007FFC
FFF8003FFC
FFF8003FFC
FFF0003FFC
FFF0003FFC
FFF0003FFE
FFF0003FFE
FFF8003FFE
FFF8003FFE
FFFC003FFE
7FFE003FFE
7FFF00BFFE
7FFFFFBFFE
3FFFFFBFFE
3FFFFFBFFE
1FFFFFBFFE
0FFFFFBFFE
0FFFFFBFFE
07FFFFBFFE
03FFFFBFFE
01FFFFBFFE
007FFFBFFE
001FFFBFFE
0003FFBFFC
0000003FFC
0000003FFC
0000007FFC
0000007FFC
060000FFFC
07F007FFF8
07FFFFFFF8
07FFFFFFF8
07FFFFFFF0
07FFFFFFF0
07FFFFFFE0
07FFFFFFC0
07FFFFFF80
07FFFFFF00
07FFFFFC00
07FFFFF000
007FFFC000
ENDCHAR
STARTCHAR 0068
ENCODING 104
SWIDTH 540 0
DWIDTH 42 0
BBX 35 54 4 0
BITMAP
FFF0000000
FFF0000000
FFF0000000
FFF0000000
FFF0000000
FFF0000000
FFF0000000
FFF0000000
FFF0000000
FFF0000000
FFF0000000
FFF0000000
FFF0000000
FFF0000000
FFF0000000
FFF0FF8000
FFF3FFE000
FFFFFFF800
FFFFFFFC00
FFFFFFFE00
FFFFFFFE00
FFFFFFFF00
FFFFFFFF80
FFFFFFFF80
FFFFFFFF80
FFFFFFFFC0
FFFFFFFFC0
FFFC07FFC0
FFF803FFC0
FFF003FFE0
FFF001FFE0
FFF001FFE0
FFF001FFE0
FFF001FFE0
FFF001FFE0
FFF001FFE0
FFF001FFE0
FFF001FFE0
FFF001FFE0
FFF001FFE0
FFF001FFE0
FFF001FFE0
FFF001FFE0
FFF001FFE0
FFF001FFE0
FFF001FFE0
FFF001FFE0
FFF001FFE0
FFF001FFE0
FFF001FFE0
FFF001FFE0
FFF001FFE0
FFF001FFE0
FFF001FFE0
ENDCHAR
STARTCHAR 0069
ENCODING 105
SWIDTH 244 0
DWIDTH 19 0
BBX 14 56 3 0
BITMAP
0F80
3FE0
7FF0
7FF8
FFF8
FFFC
FFFC
FFFC
FFFC
FFF8
FFF8
7FF0
3FE0
0FC0
0000
0000
0000
7FF8
7FF8
7FF8
7FF8
7FF8
7FF8
7FF8
7FF8
7FF8
7FF8
7FF8
7FF8
7FF8
7FF8
7FF8
7FF8
7FF8
7FF8
7FF8
7FF8
7FF8
7FF8
7FF8
7FF8
7FF8
7FF8
7FF8
7FF8
7FF8
7FF8
7FF8
7FF8
7FF8
7FF8
7FF8
7FF8
7FF8
7FF8
7FF8
ENDCHAR
STARTCHAR 006A
ENCODING 106
SWIDTH 244 0
DWIDTH 19 0
BBX 23 73 -6 -17
BITMAP
0007C0
001FF0
003FF8
003FFC
007FFC
007FFE
007FFE
007FFE
007FFE
007FFC
003FFC
003FF8
001FF0
0007E0
000000
000000
000000
003FFC
003FFC
003FFC
003FFC
003FFC
003FFC
003FFC
003FFC
003FFC
003FFC
003FFC
003FFC
003FFC
003FFC
003FFC
003FFC
003FFC
003FFC
003FFC
003FFC
003FFC
003FFC
003FFC
003FFC
003FFC
003FFC
003FFC
003FFC
003FFC
003FFC
003FFC
003FFC
003FFC
003FFC
003FFC
003FFC
003FFC
003FFC
003FFC
003FFC
003FFC
003FFC
007FFC
00FFFC
FFFFF8
FFFFF8
FFFFF8
FFFFF0
FFFFF0
FFFFE0
FFFFE0
FFFFC0
FFFF80
FFFE00
FFF800
FC0000
ENDCHAR
STARTCHAR 006B
ENCODING 107
SWIDTH 514 0
DWIDTH 40 0
BBX 35 54 4 0
BITMAP
FFF0000000
FFF0000000
FFF0000000
FFF0000000
FFF0000000
FFF0000000
FFF0000000
FFF0000000
FFF0000000
FFF0000000
FFF0000000
FFF0000000
FFF0000000
FFF0000000
FFF0000000
FFF003FFE0
FFF003FFC0
FFF007FFC0
FFF007FFC0
FFF00FFF80
FFF00FFF80
FFF00FFF00
FFF01FFF00
FFF01FFF00
FFF03FFE00
FFF03FFE00
FFF07FFC00
FFF1FFFC00
FFFFFFFC00
FFFFFFF800
FFFFFFF000
FFFFFFC000
FFFFFFF000
FFFFFFFC00
FFFFFFFE00
FFFFFFFF00
FFFFFFFF00
FFFFFFFF80
FFFFFFFF80
FFF01FFF80
FFF00FFFC0
FFF007FFC0
FFF007FFC0
FFF003FFC0
FFF003FFC0
FFF003FFC0
FFF003FFC0
FFF003FFC0
FFF003FFC0
FFF003FFC0
FFF003FFC0
FFF003FFC0
FFF003FFC0
FFF003FFC0
ENDCHAR
STARTCHAR 006C
ENCODING 108
SWIDTH 244 0
DWIDTH 19 0
BBX 12 54 4 0
BITMAP
FFF0
FFF0
FFF0
FFF0
FFF0
FFF0
FFF0
FFF0
FFF0
FFF0
FFF0
FFF0
FFF0
FFF0
FFF0
FFF0
FFF0
FFF0
FFF0
FFF0
FFF0
FFF0
FFF0
FFF0
FFF0
FFF0
FFF0
FFF0
FFF0
FFF0
FFF0
FFF0
FFF0
FFF0
FFF0
FFF0
FFF0
FFF0
FFF0
FFF0
FFF0
FFF0
FFF0
FFF0
FFF0
FFF0
FFF0
FFF0
FFF0
FFF0
FFF0
FFF0
FFF0
FFF0
ENDCHAR
STARTCHAR 006D
ENCODING 109
SWIDTH 797 0
DWIDTH 62 0
BBX 56 39 3 0
BITMAP
001FFC003FF800
007FFF00FFFE00
01FFFFC1FFFF80
03FFFFE7FFFFC0
07FFFFFFFFFFE0
0FFFFFFFFFFFF0
0FFFFFFFFFFFF8
1FFFFFFFFFFFF8
3FFFFFFFFFFFFC
3FFFFFFFFFFFFC
7FFFFFFFFFFFFE
7FFF3FFFFEFFFE
7FFC0FFFF03FFE
7FF807FFE01FFF
FFF803FFC00FFF
FFF003FFC00FFF
FFF003FFC00FFF
FFF003FFC00FFF
FFF003FFC00FFF
FFF003FFC00FFF
FFF003FFC00FFF
FFF003FFC00FFF
FFF003FFC00FFF
FFF003FFC00FFF
FFF003FFC00FFF
FFF003FFC00FFF
FFF003FFC00FFF
FFF003FFC00FFF
FFF003FFC00FFF
FFF003FFC00FFF
FFF003FFC00FFF
FFF003FFC00FFF
FFF003FFC00FFF
FFF003FFC00FFF
FFF003FFC00FFF
FFF003FFC00FFF
FFF003FFC00FFF
FFF003FFC00FFF
FFF003FFC00FFF
ENDCHAR
STARTCHAR 006E
ENCODING 110
SWIDTH 527 0
DWIDTH 41 0
BBX 35 39 3 0
BITMAP
000FFE0000
003FFFC000
00FFFFE000
01FFFFF800
07FFFFFC00
07FFFFFE00
0FFFFFFF00
1FFFFFFF80
1FFFFFFF80
3FFFFFFFC0
3FFFFFFFC0
7FFFFFFFC0
7FFC07FFE0
7FF803FFE0
7FF801FFE0
FFF001FFE0
FFF001FFE0
FFF001FFE0
FFF001FFE0
FFF001FFE0
FFF001FFE0
FFF001FFE0
FFF001FFE0
FFF001FFE0
FFF001FFE0
FFF001FFE0
FFF001FFE0
FFF001FFE0
FFF001FFE0
FFF001FFE0
FFF001FFE0
FFF001FFE0
FFF001FFE0
FFF001FFE0
FFF001FFE0
FFF001FFE0
FFF001FFE0
FFF001FFE0
FFF001FFE0
ENDCHAR
STARTCHAR 006F
ENCODING 111
SWIDTH 540 0
DWIDTH 42 0
BBX 39 40 2 -1
BITMAP
0003FF8000
001FFFF000
007FFFF800
00FFFFFE00
01FFFFFF00
03FFFFFF80
07FFFFFFC0
0FFFFFFFE0
1FFFFFFFF0
1FFFFFFFF0
3FFFFFFFF8
3FFFFFFFF8
7FFF03FFFC
7FFE00FFFC
7FFC007FFC
FFF8007FFC
FFF8003FFE
FFF8003FFE
FFF0003FFE
FFF0003FFE
FFF0003FFE
FFF8003FFE
FFF8003FFE
FFF8003FFE
FFFC007FFC
7FFE00FFFC
7FFF01FFFC
7FFFFFFFF8
3FFFFFFFF8
3FFFFFFFF0
1FFFFFFFF0
0FFFFFFFE0
0FFFFFFFC0
07FFFFFFC0
03FFFFFF80
01FFFFFE00
007FFFFC00
003FFFF000
0007FFC000
0000780000
ENDCHAR
STARTCHAR 0070
ENCODING 112
SWIDTH 552 0
DWIDTH 43 0
BBX 39 56 3 -17
BITMAP
0003FF8000
001FFFF000
007FFFFC00
00FFFFFE00
03FFFFFF00
07FFFFFFC0
0FFFFFFFC0
0FFFFFFFE0
1FFFFFFFF0
3FFFFFFFF0
3FFFFFFFF8
7FFFFFFFF8
7FFF03FFFC
7FFE00FFFC
7FFC007FFC
FFF8007FFC
FFF8003FFE
FFF0003FFE
FFF0003FFE
FFF0003FFE
FFF0003FFE
FFF0003FFE
FFF0003FFE
FFF0003FFC
FFF0007FFC
FFF000FFFC
FFF201FFFC
FFF3FFFFF8
FFF3FFFFF8
FFF3FFFFF8
FFF3FFFFF0
FFF3FFFFE0
FFF3FFFFE0
FFF3FFFFC0
FFF3FFFF80
FFF3FFFF00
FFF3FFFC00
FFF3FFF000
FFF3FFC000
FFF0100000
FFF0000000
FFF0000000
FFF0000000
FFF0000000
FFF0000000
FFF0000000
FFF0000000
FFF0000000
FFF0000000
FFF0000000
FFF0000000
FFF0000000
FFF0000000
FFF0000000
FFF0000000
FFF0000000
ENDCHAR
STARTCHAR 0071
ENCODING 113
SWIDTH 552 0
DWIDTH 43 0
BBX 39 56 2 -17
BITMAP
0007FF8000
001FFFF000
007FFFF800
01FFFFFE00
03FFFFFF00
07FFFFFF80
0FFFFFFFC0
1FFFFFFFE0
1FFFFFFFF0
3FFFFFFFF0
3FFFFFFFF8
7FFFFFFFF8
7FFF03FFF8
7FFE00FFFC
FFFC007FFC
FFF8007FFC
FFF8003FFC
FFF0003FFC
FFF0003FFC
FFF0003FFC
FFF0003FFE
FFF0003FFE
FFF8003FFE
FFF8003FFE
FFFC003FFE
7FFC003FFE
7FFF00BFFE
7FFFFFBFFE
3FFFFFBFFE
3FFFFFBFFE
1FFFFFBFFE
1FFFFFBFFE
0FFFFFBFFE
07FFFFBFFE
03FFFFBFFE
01FFFFBFFE
00FFFFBFFE
003FFFBFFE
000FFFBFFE
0000503FFE
0000003FFE
0000003FFE
0000003FFE
0000003FFE
0000003FFE
0000003FFE
0000003FFE
0000003FFE
0000003FFE
0000003FFE
0000003FFE
0000003FFE
0000003FFE
0000003FFE
0000003FFE
0000003FFE
ENDCHAR
STARTCHAR 0072
ENCODING 114
SWIDTH 360 0
DWIDTH 28 0
BBX 24 39 4 0
BITMAP
FFE001
FFE0FF
FFE3FF
FFE7FF
FFEFFF
FFFFFF
FFFFFF
FFFFFF
FFFFFF
FFFFFF
FFFFFF
FFFFFF
FFFFF0
FFFF80
FFFE00
FFFC00
FFF800
FFF800
FFF000
FFF000
FFF000
FFE000
FFE000
FFE000
FFE000
FFE000
FFE000
FFE000
FFE000
FFE000
FFE000
FFE000
FFE000
FFE000
FFE000
FFE000
FFE000
FFE000
FFE000
ENDCHAR
STARTCHAR 0073
ENCODING 115
SWIDTH 424 0
DWIDTH 33 0
BBX 30 39 2 0
BITMAP
0003FFF0
00FFFFF0
03FFFFF0
0FFFFFF0
1FFFFFF0
1FFFFFF0
3FFFFFF0
3FFFFFF0
7FFFFFF0
7FFFFFF0
7FFFFFF0
7FF80000
7FF80000
7FF80000
3FFF0000
3FFFC000
3FFFF000
1FFFFC00
0FFFFF00
07FFFF80
03FFFFE0
00FFFFE0
003FFFF0
000FFFF8
0001FFF8
00007FFC
00007FFC
00007FFC
FFFFFFFC
FFFFFFFC
FFFFFFFC
FFFFFFF8
FFFFFFF8
FFFFFFF0
FFFFFFF0
FFFFFFE0
FFFFFFC0
FFFFFF00
FFFFF800
ENDCHAR
STARTCHAR 0074
ENCODING 116
SWIDTH 347 0
DWIDTH 27 0
BBX 22 48 3 0
BITMAP
FFF000
FFF000
FFF000
FFF000
FFF000
FFF000
FFF000
FFF000
FFF000
FFFFFC
FFFFFC
FFFFFC
FFFFFC
FFFFFC
FFFFFC
FFFFFC
FFFFFC
FFFFFC
FFFFFC
FFFFFC
FFFFFC
FFF000
FFF000
FFF000
FFF000
FFF000
FFF000
FFF000
FFF000
FFF000
FFF000
FFF000
FFF000
FFF000
FFF800
7FF800
7FFE00
7FFFFC
7FFFFC
7FFFFC
3FFFFC
3FFFFC
1FFFFC
0FFFFC
07FFFC
03FFFC
00FFFC
000FFC
ENDCHAR
STARTCHAR 0075
ENCODING 117
SWIDTH 527 0
DWIDTH 41 0
BBX 35 40 3 -1
BITMAP
FFF001FFE0
FFF001FFE0
FFF001FFE0
FFF001FFE0
FFF001FFE0
FFF001FFE0
FFF001FFE0
FFF001FFE0
FFF001FFE0
FFF001FFE0
FFF001FFE0
FFF001FFE0
FFF001FFE0
FFF001FFE0
FFF001FFE0
FFF001FFE0
FFF001FFE0
FFF001FFE0
FFF001FFE0
FFF001FFE0
FFF001FFE0
FFF001FFE0
FFF001FFE0
FFF001FFE0
FFF801FFE0
7FF803FFE0
7FFC03FFE0
7FFE0FFFC0
7FFFFFFFC0
3FFFFFFFC0
3FFFFFFF80
1FFFFFFF80
1FFFFFFF00
0FFFFFFE00
07FFFFFC00
03FFFFF800
01FFFFF000
007FFFE000
001FFF8000
0001F00000
ENDCHAR
STARTCHAR 0076
ENCODING 118
SWIDTH 475 0
DWIDTH 37 0
BBX 39 40 -1 -1
BITMAP
FFF8003FFE
FFF8003FFE
7FF8003FFC
7FF8003FFC
7FFC007FFC
3FFC007FF8
3FFC007FF8
3FFE007FF8
1FFE00FFF0
1FFE00FFF0
1FFE00FFF0
0FFF01FFE0
0FFF01FFE0
0FFF01FFE0
07FF01FFC0
07FF83FFC0
07FF83FFC0
03FF83FF80
03FFC3FF80
03FFC7FF80
01FFC7FF00
01FFC7FF00
01FFEFFF00
00FFEFFF00
00FFEFFE00
00FFEFFE00
007FEFFE00
007FFFFC00
007FFFFC00
003FFFFC00
003FFFF800
003FFFF800
001FFFF800
001FFFF000
001FFFF000
000FFFE000
0007FFC000
0003FFC000
0001FF0000
0000380000
ENDCHAR
STARTCHAR 0077
ENCODING 119
SWIDTH 797 0
DWIDTH 62 0
BBX 56 40 3 -1
BITMAP
FFF003FFC00FFF
FFF003FFC00FFF
FFF003FFC00FFF
FFF003FFC00FFF
FFF003FFC00FFF
FFF003FFC00FFF
FFF003FFC00FFF
FFF003FFC00FFF
FFF003FFC00FFF
FFF003FFC00FFF
FFF003FFC00FFF
FFF003FFC00FFF
FFF003FFC00FFF
FFF003FFC00FFF
FFF003FFC00FFF
FFF003FFC00FFF
FFF003FFC00FFF
FFF003FFC00FFF
FFF003FFC00FFF
FFF003FFC00FFF
FFF003FFC00FFF
FFF003FFC00FFF
FFF003FFC00FFF
FFF003FFC00FFF
FFF003FFC00FFF
7FF807FFE01FFF
7FF807FFE01FFE
7FFE1FFFF87FFE
7FFFFFFFFFFFFE
3FFFFFFFFFFFFC
3FFFFFFFFFFFFC
1FFFFFFFFFFFFC
1FFFFFFFFFFFF8
0FFFFFFFFFFFF0
07FFFFFFFFFFF0
03FFFFE7FFFFE0
01FFFFC3FFFF80
00FFFF81FFFF00
003FFE007FFC00
0001E000078000
ENDCHAR
STARTCHAR 0078
ENCODING 120
SWIDTH 437 0
DWIDTH 34 0
BBX 33 39 1 0
BITMAP
8000000080
FE00007F80
FFC003FF80
FFF007FF80
FFF81FFF80
FFFE3FFF80
FFFF7FFF80
FFFFFFFF80
FFFFFFFF80
FFFFFFFF80
FFFFFFFF80
FFFFFFFF80
1FFFFFFC00
03FFFFC000
00FFFF8000
007FFF0000
007FFE0000
003FFE0000
003FFE0000
003FFE0000
003FFE0000
003FFE0000
003FFE0000
007FFF0000
00FFFF0000
01FFFFC000
07FFFFE000
FFFFFFFF80
FFFFFFFF80
FFFFFFFF80
FFFFFFFF80
FFFFFFFF80
FFFFFFFF80
FFFE7FFF80
FFFC3FFF80
FFF80FFF80
FFE007FF80
FF8001FF80
F800001F80
ENDCHAR
STARTCHAR 0079
ENCODING 121
SWIDTH 527 0
DWIDTH 41 0
BBX 35 56 3 -17
BITMAP
FFF001FFE0
FFF001FFE0
FFF001FFE0
FFF001FFE0
FFF001FFE0
FFF001FFE0
FFF001FFE0
FFF001FFE0
FFF001FFE0
FFF001FFE0
FFF001FFE0
FFF001FFE0
FFF001FFE0
FFF001FFE0
FFF001FFE0
FFF001FFE0
FFF001FFE0
FFF001FFE0
FFF001FFE0
FFF001FFE0
FFF001FFE0
FFF001FFE0
FFF001FFE0
FFF001FFE0
FFF001FFE0
FFF801FFE0
7FFC03FFE0
7FFE07FFE0
7FFFFFFFC0
3FFFFFFFC0
3FFFFFFF80
1FFFFFFF80
1FFFFFFF00
0FFFFFFE00
07FFFFFE00
03FFFFFC00
01FFFFF000
007FFFE000
003FFF8000
000FFF0000
000FFF0000
000FFF0000
000FFF0000
000FFF0000
000FFF0000
000FFF0000
000FFF0000
000FFF0000
000FFF0000
000FFF0000
000FFF0000
000FFF0000
000FFF0000
000FFF0000
000FFF0000
000FFF0000
ENDCHAR
STARTCHAR 007A
ENCODING 122
SWIDTH 450 0
DWIDTH 35 0
BBX 33 39 1 0
BITMAP
3FFFFF0000
3FFFFFF800
3FFFFFFE00
3FFFFFFF00
3FFFFFFF00
3FFFFFFF00
3FFFFFFF80
3FFFFFFF80
3FFFFFFF80
3FFFFFFF00
3FFFFFFF00
3FFFFFFF00
0001FFFE00
0001FFFC00
0003FFF800
0007FFF000
000FFFE000
001FFFC000
003FFFC000
007FFF8000
00FFFF0000
01FFFE0000
01FFFC0000
03FFF80000
07FFF00000
0FFFE00000
1FFFC00000
3FFF800000
7FFFFFFF80
7FFFFFFF80
7FFFFFFF80
FFFFFFFF80
FFFFFFFF80
FFFFFFFF80
FFFFFFFF80
7FFFFFFF80
7FFFFFFF80
3FFFFFFF80
0FFFFFFF80
ENDCHAR
STARTCHAR 007B
ENCODING 123
SWIDTH 488 0
DWIDTH 38 0
BBX 28 72 6 -16
BITMAP
00007FF0
0003FFF0
000FFFF0
001FFFF0
001FFFF0
003FFFF0
003FFFF0
003FFFF0
003FFFF0
007FFE00
007FF800
007FF800
007FF000
007FF000
007FF000
007FF000
007FF000
007FF000
007FF000
007FF000
007FF000
007FF000
007FF000
007FF000
007FF000
007FF000
007FF000
007FF000
00FFF000
01FFF000
03FFE000
FFFFE000
FFFFC000
FFFF8000
FFFF0000
FFF80000
FFFC0000
FFFF8000
FFFFC000
FFFFE000
1FFFE000
03FFE000
00FFF000
00FFF000
007FF000
007FF000
007FF000
007FF000
007FF000
007FF000
007FF000
007FF000
007FF000
007FF000
007FF000
007FF000
007FF000
007FF000
007FF000
007FF000
007FF800
007FFC00
003FFF80
003FFFF0
003FFFF0
003FFFF0
003FFFF0
001FFFF0
000FFFF0
0007FFF0
0001FFF0
00000FF0
ENDCHAR
STARTCHAR 007C
ENCODING 124
SWIDTH 488 0
DWIDTH 38 0
BBX 9 77 15 -18
BITMAP
FF80
FF80
FF80
FF80
FF80
FF80
FF80
FF80
FF80
FF80
FF80
FF80
FF80
FF80
FF80
FF80
FF80
FF80
FF80
FF80
FF80
FF80
FF80
FF80
FF80
FF80
FF80
FF80
FF80
FF80
FF80
FF80
FF80
FF80
FF80
FF80
FF80
FF80
FF80
FF80
FF80
FF80
FF80
FF80
FF80
FF80
FF80
FF80
FF80
FF80
FF80
FF80
FF80
FF80
FF80
FF80
FF80
FF80
FF80
FF80
FF80
FF80
FF80
FF80
FF80
FF80
FF80
FF80
FF80
FF80
FF80
FF80
FF80
FF80
FF80
FF80
FF80
ENDCHAR
STARTCHAR 007D
ENCODING 125
SWIDTH 488 0
DWIDTH 38 0
BBX 28 72 5 -16
BITMAP
FFE00000
FFFC0000
FFFF0000
FFFF8000
FFFF8000
FFFFC000
FFFFC000
FFFFC000
FFFFC000
07FFC000
01FFE000
01FFE000
00FFE000
00FFE000
00FFE000
00FFE000
00FFE000
00FFE000
00FFE000
00FFE000
00FFE000
00FFE000
00FFE000
00FFE000
00FFE000
00FFE000
00FFE000
00FFE000
00FFF000
00FFF800
007FFC00
007FFFF0
003FFFF0
003FFFF0
000FFFF0
0003FFF0
0003FFF0
001FFFF0
003FFFF0
007FFFF0
007FFF80
00FFFC00
00FFF000
00FFF000
00FFE000
00FFE000
00FFE000
00FFE000
00FFE000
00FFE000
00FFE000
00FFE000
00FFE000
00FFE000
00FFE000
00FFE000
00FFE000
00FFE000
00FFE000
01FFE000
01FFE000
03FFE000
1FFFC000
FFFFC000
FFFFC000
FFFFC000
FFFFC000
FFFF8000
FFFF0000
FFFE0000
FFF80000
FF000000
ENDCHAR
STARTCHAR 007E
ENCODING 126
SWIDTH 822 0
DWIDTH 64 0
BBX 51 15 7 15
BITMAP
00000000000020
007FF800000060
03FFFF800001E0
0FFFFFF00007E0
3FFFFFFE001FE0
7FFFFFFFE3FFE0
FFFFFFFFFFFFE0
FFFFFFFFFFFFE0
FFFFFFFFFFFFE0
FFFFFFFFFFFFE0
FFC00FFFFFFFC0
FE0000FFFFFF00
F800001FFFFC00
E0000003FFF000
C00000003E0000
ENDCHAR
STARTCHAR 0080
ENCODING 128
SWIDTH 552 0
DWIDTH 43 0
BBX 42 54 0 0
BITMAP
00000007FFC0
0000007FFFC0
000003FFFFC0
00000FFFFFC0
00003FFFFFC0
00007FFFFFC0
0001FFFFFFC0
0003FFFFFFC0
0007FFFFFFC0
000FFFFFFFC0
000FFFFFFFC0
001FFFFFFF80
003FFFF80000
003FFFE00000
007FFF800000
007FFF000000
007FFE000000
00FFFE000000
00FFFC000000
3FFFFFFFFE00
7FFFFFFFFE00
7FFFFFFFFC00
7FFFFFFFFC00
FFFFFFFFFC00
01FFF0000000
01FFF0000000
01FFF0000000
01FFF0000000
01FFF0000000
7FFFFFFFF000
7FFFFFFFF000
7FFFFFFFF000
FFFFFFFFF000
00FFF8000000
00FFFC000000
00FFFC000000
00FFFE000000
007FFF000000
007FFF800000
007FFFC00000
003FFFF00000
003FFFFE0000
001FFFFFFFC0
000FFFFFFFC0
000FFFFFFFC0
0007FFFFFFC0
0003FFFFFFC0
0001FFFFFFC0
00007FFFFFC0
00003FFFFFC0
00000FFFFFC0
000003FFFFC0
0000003FFFC0
00000001FFC0
ENDCHAR
STARTCHAR 00A0
ENCODING 160
SWIDTH 552 0
DWIDTH 43 0
BBX 0 0 0 0
BITMAP
ENDCHAR
STARTCHAR 00A1
ENCODING 161
SWIDTH 321 0
DWIDTH 25 0
BBX 16 55 5 0
BITMAP
0FE0
1FF8
3FFC
7FFE
FFFE
FFFE
FFFE
FFFF
FFFE
FFFE
7FFE
7FFC
3FFC
1FF8
07E0
0000
0000
0000
3FFC
7FFC
7FFC
7FFC
7FFC
7FFC
7FFC
7FFC
7FFC
7FFC
7FFC
7FFC
7FFC
7FFC
7FFC
7FFC
7FFC
7FFC
7FFC
7FFC
7FFC
7FFE
7FFE
7FFE
7FFE
7FFE
7FFE
7FFE
7FFE
7FFE
7FFE
7FFE
7FFE
7FFE
7FFE
7FFE
7FFE
ENDCHAR
STARTCHAR 00A2
ENCODING 162
SWIDTH 552 0
DWIDTH 43 0
BBX 26 53 8 0
BITMAP
0007F800
0007F800
0007F800
0007F800
0007F800
0007F800
0007F800
0007F800
0007F800
0007F800
003FFFC0
01FFFFC0
03FFFFC0
07FFFFC0
0FFFFFC0
1FFFFFC0
1FFFFFC0
3FFFFFC0
3FFFFFC0
7FFFE000
7FFC0000
7FF80000
7FF00000
7FE00000
FFE00000
FFE00000
FFE00000
FFE00000
FFE00000
7FF00000
7FF80000
7FFE0000
7FFFFFC0
3FFFFFC0
3FFFFFC0
1FFFFFC0
1FFFFFC0
0FFFFFC0
07FFFFC0
03FFFFC0
00FFFFC0
003FFFC0
0007F800
0007F800
0007F800
0007F800
0007F800
0007F800
0007F800
0007F800
0007F800
0007F800
0007F800
ENDCHAR
STARTCHAR 00A3
ENCODING 163
SWIDTH 552 0
DWIDTH 43 0
BBX 42 55 1 0
BITMAP
00003FFC0000
0000FFFF0000
0003FFFF0000
0007FFFF0000
000FFFFF0000
001FFFFF0000
003FFFFF0000
003FFFFF0000
007FFFFF0000
007FFFFF0000
00FFFFFF0000
00FFFFFF0000
00FFFE000000
00FFFC000000
01FFF8000000
01FFF8000000
01FFF0000000
01FFF0000000
01FFF0000000
01FFF0000000
3FFFFFC00000
3FFFFFC00000
3FFFFFC00000
3FFFFFC00000
3FFFFFC00000
3FFFFFC00000
3FFFFFC00000
3FFFFFC00000
3FFFFFC00000
3FFFFFC00000
3FFFFFC00000
01FFF007FFC0
01FFF007FFC0
01FFF007FFC0
01FFF007FFC0
01FFF007FFC0
01FFF007FFC0
01FFF007FFC0
03FFE00FFFC0
03FFE00FFF80
07FFC01FFF80
0FFF807FFF80
FFFFFFFFFF80
FFFFFFFFFF00
FFFFFFFFFF00
FFFFFFFFFF00
FFFFFFFFFE00
FFFFFFFFFC00
FFFFFFFFFC00
FFFFFFFFF800
FFFFFFFFF000
FFFFFFFFE000
FFFFFFFF8000
FFFFFFFF0000
FFFFFFF00000
ENDCHAR
STARTCHAR 00A4
ENCODING 164
SWIDTH 552 0
DWIDTH 43 0
BBX 42 54 0 0
BITMAP
00000007FFC0
0000007FFFC0
000003FFFFC0
00000FFFFFC0
00003FFFFFC0
00007FFFFFC0
0001FFFFFFC0
0003FFFFFFC0
0007FFFFFFC0
000FFFFFFFC0
000FFFFFFFC0
001FFFFFFF80
003FFFF80000
003FFFE00000
007FFF800000
007FFF000000
007FFE000000
00FFFE000000
00FFFC000000
3FFFFFFFFE00
7FFFFFFFFE00
7FFFFFFFFC00
7FFFFFFFFC00
FFFFFFFFFC00
01FFF0000000
01FFF0000000
01FFF0000000
01FFF0000000
01FFF0000000
7FFFFFFFF000
7FFFFFFFF000
7FFFFFFFF000
FFFFFFFFF000
00FFF8000000
00FFFC000000
00FFFC000000
00FFFE000000
007FFF000000
007FFF800000
007FFFC00000
003FFFF00000
003FFFFE0000
001FFFFFFFC0
000FFFFFFFC0
000FFFFFFFC0
0007FFFFFFC0
0003FFFFFFC0
0001FFFFFFC0
00007FFFFFC0
00003FFFFFC0
00000FFFFFC0
000003FFFFC0
0000003FFFC0
00000001FFC0
ENDCHAR
STARTCHAR 00A5
ENCODING 165
SWIDTH 591 0
DWIDTH 46 0
BBX 46 54 0 0
BITMAP
7FF800007FF8
7FFC0000FFF8
3FFC0000FFF0
3FFC0000FFF0
1FFE0001FFE0
1FFE0001FFE0
0FFF0003FFE0
0FFF0003FFC0
0FFF0003FFC0
07FF8007FF80
07FF8007FF80
03FFC00FFF00
03FFC00FFF00
01FFE00FFE00
FFFFE01FFFFC
FFFFE01FFFFC
FFFFF03FFFFC
FFFFF03FFFFC
FFFFF83FFFFC
FFFFF87FFFFC
FFFFF87FFFFC
003FFCFFF000
001FFCFFE000
001FFFFFE000
000FFFFFC000
FFFFFFFFFFFC
FFFFFFFFFFFC
FFFFFFFFFFFC
FFFFFFFFFFFC
FFFFFFFFFFFC
FFFFFFFFFFFC
0001FFFE0000
0001FFFE0000
0000FFFC0000
0000FFFC0000
00007FF80000
00007FF80000
00007FF80000
00007FF80000
00007FF80000
00007FF80000
00007FF80000
00007FF80000
00007FF80000
00007FF80000
00007FF80000
00007FF80000
00007FF80000
00007FF80000
00007FF80000
00007FF80000
00007FF80000
00007FF80000
00007FF80000
ENDCHAR
STARTCHAR 00A6
ENCODING 166
SWIDTH 488 0
DWIDTH 38 0
BBX 9 67 15 -13
BITMAP
FF80
FF80
FF80
FF80
FF80
FF80
FF80
FF80
FF80
FF80
FF80
FF80
FF80
FF80
FF80
FF80
FF80
FF80
FF80
FF80
FF80
FF80
FF80
FF80
FF80
FF80
FF80
FF80
0000
0000
0000
0000
0000
0000
0000
0000
0000
0000
FF80
FF80
FF80
FF80
FF80
FF80
FF80
FF80
FF80
FF80
FF80
FF80
FF80
FF80
FF80
FF80
FF80
FF80
FF80
FF80
FF80
FF80
FF80
FF80
FF80
FF80
FF80
FF80
FF80
ENDCHAR
STARTCHAR 00A7
ENCODING 167
SWIDTH 527 0
DWIDTH 41 0
BBX 33 60 5 -6
BITMAP
007FFFFC00
03FFFFFC00
0FFFFFFC00
1FFFFFFC00
3FFFFFFC00
3FFFFFFC00
7FFFFFFC00
7FFFFFFC00
7FFFFFFC00
FFFFFFFC00
FFFFFFFC00
FFFF000000
FFFC000000
FFF8000000
FFF8000000
7FF8000000
7FFC000000
3FFF000000
3FFFC00000
1FFFF00000
0FFFFC0000
3FFFFF0000
3FFFFFC000
7FFFFFF000
FFFFFFF800
FFFFFFFC00
FFE1FFFE00
FFE07FFF00
FFE01FFF00
FFF007FF80
FFF803FF80
7FFE03FF80
7FFF83FF80
3FFFFFFF80
1FFFFFFF80
0FFFFFFF00
03FFFFFF00
00FFFFFE00
003FFFFC00
000FFFF800
0001FFFC00
00007FFE00
00001FFF00
00000FFF00
000007FF80
000007FF80
00000FFF80
0001FFFF80
7FFFFFFF80
7FFFFFFF80
7FFFFFFF80
7FFFFFFF80
7FFFFFFF00
7FFFFFFF00
7FFFFFFE00
7FFFFFFC00
7FFFFFF800
7FFFFFE000
7FFFFF8000
7FFFF00000
ENDCHAR
STARTCHAR 00A8
ENCODING 168
SWIDTH 488 0
DWIDTH 38 0
BBX 23 10 8 45
BITMAP
0C0070
3F01F8
7F83FC
FF87FE
FFC7FE
FFC7FE
FFC7FE
FF83FE
7F83FC
3E01F8
ENDCHAR
STARTCHAR 00A9
ENCODING 169
SWIDTH 822 0
DWIDTH 64 0
BBX 57 56 4 0
BITMAP
000007FFF0000000
00003FFFFE000000
0000FFFFFF800000
0003FFFFFFE00000
000FFFFFFFF80000
001FFC003FFC0000
003FE00007FE0000
007F800000FF0000
00FF0000007F8000
01FC0000001FC000
03F80000000FE000
07F0007F8007F000
07E003FFF003F000
0FC00FFFF801F800
1F803FFFFE01F800
1F807FFFFF00FC00
3F007FFFFF807C00
3F00FF80FF807E00
3E01FF007FC03E00
7E01FE003FC03F00
7C03FE003FC03F00
7C03FC003FC01F00
7C03FC0000001F00
FC07FC0000001F00
F807FC0000001F80
F807FC0000001F80
F807FC0000000F80
F807FC0000000F80
F807FC0000000F80
F807FC0000000F80
F807FC0000001F80
F807FC0000001F80
FC07FC0000001F00
7C03FC003FE01F00
7C03FE003FE01F00
7C03FE003FC03F00
7E01FF007FC03F00
3E01FF807FC03E00
3F00FFE3FF807E00
3F00FFFFFF807C00
1F807FFFFF00FC00
1FC03FFFFE01F800
0FC00FFFF801F800
07E007FFF003F000
07F000FF8007F000
03F80000000FE000
01FE0000001FC000
00FF0000007F8000
007FC00001FF0000
003FF00007FE0000
001FFE003FFC0000
000FFFFFFFF00000
0003FFFFFFE00000
0000FFFFFF800000
00003FFFFC000000
000007FFE0000000
ENDCHAR
STARTCHAR 00AA
ENCODING 170
SWIDTH 411 0
DWIDTH 32 0
BBX 29 28 1 27
BITMAP
001FE000
00FFFC00
03FFFE00
07FFFF80
0FFFFFC0
1FFFFFE0
3FFFFFE0
3FFFFFF0
7FFFFFF0
7FF03FF8
7FE01FF8
7FC00FF8
FFC00FF8
FFC00FF8
FFC00FF8
FFC00FF8
7FC00FF8
7FE00FF8
7FF00FF8
7FFFEFF8
3FFFEFF8
3FFFEFF8
1FFFEFF8
0FFFEFF8
07FFEFF8
03FFEFF8
00FFEFF8
001FEFF8
ENDCHAR
STARTCHAR 00AB
ENCODING 171
SWIDTH 540 0
DWIDTH 42 0
BBX 33 24 5 7
BITMAP
00FF80FF80
00FF01FF00
01FF03FE00
03FE07FC00
07FC07F800
0FF80FF800
0FF01FF000
1FF03FE000
3FE07FC000
7FC07F8000
FF80FF8000
FF01FF0000
FF80FF0000
7FC0FF8000
3FC07FC000
3FE03FE000
1FF01FF000
0FF81FF000
07FC0FF800
03FC07FC00
03FE03FE00
01FF01FE00
00FF81FF00
007FC0FF80
ENDCHAR
STARTCHAR 00AC
ENCODING 172
SWIDTH 822 0
DWIDTH 64 0
BBX 45 19 10 14
BITMAP
FFFFFFFFFFF8
FFFFFFFFFFF8
FFFFFFFFFFF8
FFFFFFFFFFF8
FFFFFFFFFFF8
FFFFFFFFFFF8
FFFFFFFFFFF8
FFFFFFFFFFF8
FFFFFFFFFFF8
000000000FF8
000000000FF8
000000000FF8
000000000FF8
000000000FF8
000000000FF8
000000000FF8
000000000FF8
000000000FF8
000000000FF8
ENDCHAR
STARTCHAR 00AD
ENCODING 173
SWIDTH 321 0
DWIDTH 25 0
BBX 20 10 3 14
BITMAP
FFFFF0
FFFFF0
FFFFF0
FFFFF0
FFFFF0
FFFFF0
FFFFF0
FFFFF0
FFFFF0
FFFFF0
ENDCHAR
STARTCHAR 00AE
ENCODING 174
SWIDTH 822 0
DWIDTH 64 0
BBX 57 56 4 0
BITMAP
000007FFF0000000
00003FFFFE000000
0000FFFFFF800000
0003FFFFFFE00000
000FFFFFFFF80000
001FFC003FFC0000
003FE00007FE0000
007F800000FF0000
00FF0000007F8000
01FC0000001FC000
03F80000000FE000
07F000000007F000
07E0FFFFE003F000
0FC0FFFFFC01F800
1F80FFFFFF01FC00
1F80FFFFFF80FC00
3F00FFFFFF807C00
3F00FF83FFC07E00
3E00FF80FFC03E00
7E00FF807FC03F00
7C00FF807FC03F00
7C00FF803FC01F00
7C00FF807FC01F00
FC00FF807FC01F00
F800FF80FFC01F80
F800FFFFFF801F80
F800FFFFFF000F80
F800FFFFFE000F80
F800FFFFFC000F80
F800FFFFF0000F80
F800FFFFF0001F80
F800FF8FF8001F80
FC00FF8FF8001F00
7C00FF87FC001F00
7C00FF87FC001F00
7C00FF83FE003F00
7E00FF83FE003F00
3E00FF81FF003E00
3F00FF81FF007E00
3F00FF80FF807C00
1F80FF80FF80FC00
1FC0FF807FC1F800
0FC0FF807FC1F800
07E000000003F000
07F000000007F000
03F80000000FE000
01FE0000003FC000
00FF0000007F8000
007FC00001FF0000
003FF00007FE0000
001FFE003FFC0000
0007FFFFFFF00000
0003FFFFFFE00000
0000FFFFFF800000
00003FFFFC000000
000007FFE0000000
ENDCHAR
STARTCHAR 00AF
ENCODING 175
SWIDTH 488 0
DWIDTH 38 0
BBX 21 6 9 47
BITMAP
FFFFF8
FFFFF8
FFFFF8
FFFFF8
FFFFF8
FFFFF8
ENDCHAR
STARTCHAR 00B0
ENCODING 176
SWIDTH 321 0
DWIDTH 25 0
BBX 24 24 1 32
BITMAP
003C00
01FF80
07FFE0
0FFFF0
1FFFF8
3FFFFC
7F81FC
7F00FE
7E007E
FC003E
FC003F
FC003F
FC003F
FC003F
FC003E
FE007E
7E00FE
7F81FC
3FFFFC
3FFFF8
1FFFF0
0FFFE0
03FFC0
00FE00
ENDCHAR
STARTCHAR 00B1
ENCODING 177
SWIDTH 822 0
DWIDTH 64 0
BBX 45 48 10 -1
BITMAP
00003FE00000
00003FE00000
00003FE00000
00003FE00000
00003FE00000
00003FE00000
00003FE00000
00003FE00000
00003FE00000
00003FE00000
00003FE00000
00003FE00000
FFFFFFFFFFF8
FFFFFFFFFFF8
FFFFFFFFFFF8
FFFFFFFFFFF8
FFFFFFFFFFF8
FFFFFFFFFFF8
FFFFFFFFFFF8
FFFFFFFFFFF8
FFFFFFFFFFF8
00003FE00000
00003FE00000
00003FE00000
00003FE00000
00003FE00000
00003FE00000
00003FE00000
00003FE00000
00003FE00000
00003FE00000
00003FE00000
00003FE00000
000000000000
000000000000
000000000000
000000000000
000000000000
000000000000
FFFFFFFFFFF8
FFFFFFFFFFF8
FFFFFFFFFFF8
FFFFFFFFFFF8
FFFFFFFFFFF8
FFFFFFFFFFF8
FFFFFFFFFFF8
FFFFFFFFFFF8
FFFFFFFFFFF8
ENDCHAR
STARTCHAR 00B2
ENCODING 178
SWIDTH 372 0
DWIDTH 29 0
BBX 25 33 2 22
BITMAP
007F0000
03FFE000
0FFFF000
1FFFF800
3FFFFC00
3FFFFE00
7FFFFE00
7FE3FF00
7F81FF00
FF81FF00
FF81FF00
7F81FF00
7FC3FF00
7FE3FE00
7FCFFE00
3F9FFC00
1F3FF800
0E7FF800
04FFF000
01FFE000
03FFC000
07FF0000
0FFE0000
1FFC0000
3FF80000
7FF00000
7FFFFF80
FFFFFF80
FFFFFF80
FFFFFF80
FFFFFF80
7FFFFF80
3FFFFF80
ENDCHAR
STARTCHAR 00B3
ENCODING 179
SWIDTH 372 0
DWIDTH 29 0
BBX 25 32 2 22
BITMAP
7FFFF000
7FFFFC00
7FFFFE00
7FFFFE00
7FFFFE00
7FFFFE00
7FFFFE00
0007FC00
000FFC00
001FF000
007FE000
00FFC000
01FF8000
03FFE000
03FFF800
03FFFC00
03FFFE00
03FFFF00
0003FF00
0000FF00
0000FF80
0000FF80
0000FF80
0001FF80
0007FF00
FFFFFF00
FFFFFF00
FFFFFE00
FFFFFC00
FFFFF800
FFFFF000
FFFFC000
ENDCHAR
STARTCHAR 00B4
ENCODING 180
SWIDTH 488 0
DWIDTH 38 0
BBX 16 14 14 43
BITMAP
01FF
03FE
03FE
07FC
0FF8
0FF0
1FE0
1FC0
3FC0
3F80
7F00
7E00
FC00
F800
ENDCHAR
STARTCHAR 00B5
ENCODING 181
SWIDTH 630 0
DWIDTH 49 0
BBX 50 57 -2 -16
BITMAP
007FFE000FFFC0
007FFE000FFFC0
007FFC000FFF80
007FFC000FFF80
007FFC000FFF80
00FFFC001FFF80
00FFFC001FFF80
00FFFC001FFF80
00FFFC001FFF00
00FFF8001FFF00
00FFF8001FFF00
01FFF8003FFF00
01FFF8003FFF00
01FFF8003FFF00
01FFF8003FFE00
01FFF8003FFE00
01FFF0003FFE00
01FFF0007FFE00
03FFF0007FFE00
03FFF0007FFE00
03FFF0007FFE00
03FFF0007FFC00
03FFF0007FFC00
03FFE000FFFC00
07FFE000FFFC00
07FFE000FFFC00
07FFF001FFFC00
07FFF001FFF800
07FFF003FFF800
07FFF003FFF800
0FFFF80FFFF800
0FFFFF3FFFF800
0FFFFFFFFFF800
0FFFFFFFFFF000
0FFFFFFFFFF000
0FFFFFFFFFF000
0FFFFFFFFFF000
1FFFFFFEFFF000
1FFFBFFDFFF000
1FFF3FF9FFE000
1FFF0FF1FFE000
1FFF0180000000
1FFF0000000000
3FFF0000000000
3FFF0000000000
3FFE0000000000
3FFE0000000000
3FFE0000000000
3FFE0000000000
3FFE0000000000
7FFE0000000000
7FFE0000000000
7FFC0000000000
7FFC0000000000
7FFC0000000000
7FFC0000000000
FFFC0000000000
ENDCHAR
STARTCHAR 00B6
ENCODING 182
SWIDTH 488 0
DWIDTH 38 0
BBX 37 56 1 0
BITMAP
003FFFFFF8
01FFFFFFF8
07FFFFFFF8
0FFFFFFFF8
1FFFFFFFF8
3FFFF03F80
3FFFF03F80
7FFFF03F80
7FFFF03F80
FFFFF03F80
FFFFF03F80
FFFFF03F80
FFFFF03F80
FFFFF03F80
FFFFF03F80
FFFFF03F80
FFFFF03F80
7FFFF03F80
7FFFF03F80
3FFFF03F80
3FFFF03F80
1FFFF03F80
0FFFF03F80
07FFF03F80
01FFF03F80
007FF03F80
0003F03F80
0003F03F80
0003F03F80
0003F03F80
0003F03F80
0003F03F80
0003F03F80
0003F03F80
0003F03F80
0003F03F80
0003F03F80
0003F03F80
0003F03F80
0003F03F80
0003F03F80
0003F03F80
0003F03F80
0003F03F80
0003F03F80
0003F03F80
0003F03F80
0003F03F80
0003F03F80
0003F03F80
0003F03F80
0003F03F80
0003F03F80
0003F03F80
0003F03F80
0003F03F80
ENDCHAR
STARTCHAR 00B7
ENCODING 183
SWIDTH 270 0
DWIDTH 21 0
BBX 16 16 3 20
BITMAP
03C0
0FF0
3FF8
3FFC
7FFE
7FFE
FFFF
FFFF
FFFF
FFFF
7FFE
7FFE
7FFC
3FFC
1FF0
03E0
ENDCHAR
STARTCHAR 00B8
ENCODING 184
SWIDTH 488 0
DWIDTH 38 0
BBX 20 22 11 -18
BITMAP
00F000
00F000
00F000
00F000
00E000
01E000
01E000
01E000
01FF00
03FFC0
03FFE0
03FFE0
000FF0
0007F0
0007F0
0007F0
C007F0
FFFFE0
FFFFE0
FFFFC0
FFFF80
1FFE00
ENDCHAR
STARTCHAR 00B9
ENCODING 185
SWIDTH 372 0
DWIDTH 29 0
BBX 14 32 7 22
BITMAP
FFFC
FFFC
FFFC
FFFC
FFFC
FFFC
FFFC
03FC
03FC
03FC
03FC
03FC
03FC
03FC
03FC
03FC
03FC
03FC
03FC
03FC
03FC
03FC
03FC
03FC
03FC
03FC
03FC
03FC
03FC
03FC
03FC
03FC
ENDCHAR
STARTCHAR 00BA
ENCODING 186
SWIDTH 411 0
DWIDTH 32 0
BBX 30 28 1 27
BITMAP
001FE000
00FFFC00
01FFFE00
07FFFF80
0FFFFFC0
1FFFFFE0
1FFFFFE0
3FFFFFF0
3FFFFFF8
7FF03FF8
7FE01FF8
7FC00FF8
7FC00FFC
FFC00FFC
FFC00FFC
7FC00FFC
7FC00FF8
7FE01FF8
7FF03FF8
3FFFFFF8
3FFFFFF0
1FFFFFE0
1FFFFFE0
0FFFFFC0
07FFFF80
01FFFF00
00FFFC00
001FE000
ENDCHAR
STARTCHAR 00BB
ENCODING 187
SWIDTH 540 0
DWIDTH 42 0
BBX 33 24 4 7
BITMAP
FF80FF8000
7FC07FC000
3FE03FC000
1FF03FE000
0FF01FF000
0FF80FF800
07FC07FC00
03FE03FC00
01FF03FE00
00FF01FF00
00FF80FF80
007FC07F80
007FC0FF80
00FF80FF00
01FF01FE00
03FE03FE00
03FC07FC00
07FC0FF800
0FF80FF000
1FF01FF000
3FE03FE000
3FC07FC000
7FC0FF8000
FF80FF0000
ENDCHAR
STARTCHAR 00BC
ENCODING 188
SWIDTH 874 0
DWIDTH 68 0
BBX 60 54 7 0
BITMAP
FFF8000003FC0000
FFF8000003FC0000
FFF8000007F80000
FFF8000007F00000
FFF800000FF00000
FFF800000FE00000
FFF800001FE00000
07F800003FC00000
07F800003F800000
07F800007F800000
07F800007F000000
07F80000FF000000
07F80000FE000000
07F80001FE000000
07F80003FC000000
07F80003F8000000
07F80007F8000000
07F80007F0000000
07F8000FF0000000
07F8000FE0000000
07F8001FE0000000
07F8003FC0000000
07F8003F80000000
07F8007F80000000
07F8007F0007FD00
07F800FF0007F900
07F800FE000FF300
07F801FE001FE700
07F803FC001FE700
07F803F8003FCF00
000007F8003FDF00
000007F0007F9F00
00000FF000FF3F00
00001FE000FF3F00
00001FE001FE7F00
00003FC003FC7F00
00003F8003FC7F00
00007F8007F87F00
00007F0007F07F00
0000FF000FF07F00
0001FE001FE07F00
0001FE001FFFFFF0
0003FC001FFFFFF0
0003F8001FFFFFF0
0007F8001FFFFFF0
0007F0000FFFFFF0
000FF0000FFFFFF0
001FE00003FFFFF0
001FE00000007F00
003FC00000007F00
003F800000007F00
007F800000007F00
007F000000007F00
00FF000000007F00
ENDCHAR
STARTCHAR 00BD
ENCODING 189
SWIDTH 874 0
DWIDTH 68 0
BBX 59 54 7 0
BITMAP
FFF8000003FC0000
FFF8000003FC0000
FFF8000007F80000
FFF8000007F00000
FFF800000FF00000
FFF800000FE00000
FFF800001FE00000
07F800003FC00000
07F800003F800000
07F800007F800000
07F800007F000000
07F80000FF000000
07F80000FE000000
07F80001FE000000
07F80003FC000000
07F80003F8000000
07F80007F8000000
07F80007F0000000
07F8000FF0000000
07F8000FE0000000
07F8001FE0000000
07F8003FC0000000
07F8003F80000000
07F8007F800FE000
07F8007F007FFC00
07F800FF00FFFE00
07F800FE03FFFF00
07F801FE03FFFF80
07F803FC07FFFFC0
07F803F807FFFFC0
000007F80FF83FC0
000007F00FF03FC0
00000FF00FF03FE0
00001FE00FF03FC0
00001FE00FF83FC0
00003FC00FFC7FC0
00003F8007F8FF80
00007F8003F3FF80
00007F0003E7FF00
0000FF0001CFFE00
0001FE00001FFC00
0001FE00003FF800
0003FC00007FF000
0003F80000FFE000
0007F80001FFC000
0007F00003FF0000
000FF00007FE0000
001FE00007FFFFE0
001FE0000FFFFFE0
003FC0000FFFFFE0
003F80000FFFFFE0
007F80000FFFFFE0
007F000007FFFFE0
00FF000003FFFFE0
ENDCHAR
STARTCHAR 00BE
ENCODING 190
SWIDTH 874 0
DWIDTH 68 0
BBX 65 54 2 0
BITMAP
7FFFE000001FE00000
7FFFF800001FE00000
7FFFFC00003FC00000
7FFFFC00003F800000
7FFFFC00007F800000
7FFFFC00007F000000
0007FC0000FF000000
000FF80001FE000000
003FF00001FC000000
007FE00003FC000000
00FF800003F8000000
01FF000007F8000000
03FFC00007F0000000
07FFF0000FF0000000
07FFF8001FE0000000
07FFFC001FC0000000
07FFFE003FC0000000
0003FE003F80000000
0001FE007F80000000
0001FE007F00000000
0001FE00FF00000000
0001FE01FE00000000
0003FE01FC00000000
FFFFFE03FC00000000
FFFFFE03F8003FE800
FFFFFC07F8003FC800
FFFFF807F0007F9800
FFFFF00FF000FF3800
FFFFE01FE000FF3800
FFFF801FC001FE7800
0000003FC001FEF800
0000003F8003FCF800
0000007F8007F9F800
000000FF0007F9F800
000000FF000FF3F800
000001FE001FE3F800
000001FC001FE3F800
000003FC003FC3F800
000003F8003F83F800
000007F8007F83F800
00000FF000FF03F800
00000FF000FFFFFF80
00001FE000FFFFFF80
00001FC000FFFFFF80
00003FC000FFFFFF80
00003F80007FFFFF80
00007F80007FFFFF80
0000FF00001FFFFF80
0000FF00000003F800
0001FE00000003F800
0001FC00000003F800
0003FC00000003F800
0003F800000003F800
0007F800000003F800
ENDCHAR
STARTCHAR 00BF
ENCODING 191
SWIDTH 514 0
DWIDTH 40 0
BBX 36 56 3 -1
BITMAP
0001FC0000
0007FE0000
000FFF0000
001FFF8000
001FFF8000
001FFFC000
003FFFC000
003FFFC000
003FFFC000
001FFFC000
001FFF8000
001FFF8000
000FFF0000
0007FE0000
0001FC0000
0000000000
0000000000
0000000000
000FFF8000
000FFF8000
000FFF8000
000FFF8000
000FFF8000
003FFF8000
01FFFF8000
03FFFF8000
0FFFFF8000
1FFFFF8000
3FFFFF8000
3FFFFF8000
7FFFFF8000
7FFFFF8000
FFFFFF8000
FFFFFF8000
FFFF000000
FFFC000000
FFFC000000
FFF8000000
FFF8010000
FFF801F000
FFF801FF00
FFFC01FFE0
FFFE03FFF0
FFFF0FFFE0
FFFFFFFFE0
7FFFFFFFE0
7FFFFFFFC0
3FFFFFFFC0
3FFFFFFF80
1FFFFFFF00
0FFFFFFE00
07FFFFFE00
03FFFFF800
00FFFFF000
003FFFC000
0007FE0000
ENDCHAR
STARTCHAR 00C0
ENCODING 192
SWIDTH 617 0
DWIDTH 48 0
BBX 41 74 4 0
BITMAP
007FE0000000
003FF0000000
001FF0000000
000FF8000000
0007F8000000
0007FC000000
0003FC000000
0001FE000000
0000FE000000
00007F000000
00003F000000
00001F800000
00001F800000
00000FC00000
000007C00000
000000000000
000000000000
000000000000
000000000000
0003FFE00000
001FFFF80000
007FFFFE0000
00FFFFFF8000
01FFFFFFC000
03FFFFFFE000
07FFFFFFF000
0FFFFFFFF800
1FFFFFFFF800
1FFFFFFFFC00
3FFFFFFFFC00
3FFFFFFFFE00
7FFFFFFFFE00
7FFF81FFFF00
7FFF007FFF00
FFFE003FFF00
FFFC003FFF00
FFFC001FFF80
FFF8001FFF80
FFF8001FFF80
FFF8000FFF80
FFF8000FFF80
FFF9FFFFFF80
FFF9FFFFFF80
FFF9FFFFFF80
FFF9FFFFFF80
FFF9FFFFFF80
FFF9FFFFFF80
FFF9FFFFFF80
FFF9FFFFFF80
FFF9FFFFFF80
FFF9FFFFFF80
FFF9FFFFFF80
FFF9FFFFFF80
FFF9FFFFFF80
FFF8000FFF80
FFF8000FFF80
FFF8000FFF80
FFF8000FFF80
FFF8000FFF80
FFF8000FFF80
FFF8000FFF80
FFF8000FFF80
FFF8000FFF80
FFF8000FFF80
FFF8000FFF80
FFF8000FFF80
FFF8000FFF80
FFF8000FFF80
FFF8000FFF80
FFF8000FFF80
FFF8000FFF80
FFF8000FFF80
FFF8000FFF80
FFF8000FFF80
ENDCHAR
STARTCHAR 00C1
ENCODING 193
SWIDTH 617 0
DWIDTH 48 0
BBX 41 74 4 0
BITMAP
000003FE0000
000007FE0000
000007FC0000
00000FF80000
00000FF00000
00001FE00000
00003FC00000
00003FC00000
00007F800000
00007F000000
0000FE000000
0000FC000000
0001F8000000
0001F8000000
0003F0000000
000000000000
000000000000
000000000000
000000000000
0003FFE00000
001FFFF80000
007FFFFE0000
00FFFFFF8000
01FFFFFFC000
03FFFFFFE000
07FFFFFFF000
0FFFFFFFF800
1FFFFFFFF800
1FFFFFFFFC00
3FFFFFFFFC00
3FFFFFFFFE00
7FFFFFFFFE00
7FFF81FFFF00
7FFF007FFF00
FFFE003FFF00
FFFC003FFF00
FFFC001FFF80
FFF8001FFF80
FFF8001FFF80
FFF8000FFF80
FFF8000FFF80
FFF9FFFFFF80
FFF9FFFFFF80
FFF9FFFFFF80
FFF9FFFFFF80
FFF9FFFFFF80
FFF9FFFFFF80
FFF9FFFFFF80
FFF9FFFFFF80
FFF9FFFFFF80
FFF9FFFFFF80
FFF9FFFFFF80
FFF9FFFFFF80
FFF9FFFFFF80
FFF8000FFF80
FFF8000FFF80
FFF8000FFF80
FFF8000FFF80
FFF8000FFF80
FFF8000FFF80
FFF8000FFF80
FFF8000FFF80
FFF8000FFF80
FFF8000FFF80
FFF8000FFF80
FFF8000FFF80
FFF8000FFF80
FFF8000FFF80
FFF8000FFF80
FFF8000FFF80
FFF8000FFF80
FFF8000FFF80
FFF8000FFF80
FFF8000FFF80
ENDCHAR
STARTCHAR 00C2
ENCODING 194
SWIDTH 617 0
DWIDTH 48 0
BBX 41 72 4 0
BITMAP
0000FF800000
0001FF800000
0001FFC00000
0003FFE00000
0003FFE00000
0007FFF00000
0007F7F00000
000FE7F80000
000FC3F80000
001FC1FC0000
003F80FC0000
003F007E0000
007E007E0000
007C003F0000
00FC001F0000
000000000000
000000000000
0003FFE00000
001FFFF80000
007FFFFE0000
00FFFFFF8000
01FFFFFFC000
03FFFFFFE000
07FFFFFFF000
0FFFFFFFF800
1FFFFFFFF800
1FFFFFFFFC00
3FFFFFFFFC00
3FFFFFFFFE00
7FFFFFFFFE00
7FFF81FFFF00
7FFF007FFF00
FFFE003FFF00
FFFC003FFF00
FFFC001FFF80
FFF8001FFF80
FFF8001FFF80
FFF8000FFF80
FFF8000FFF80
FFF9FFFFFF80
FFF9FFFFFF80
FFF9FFFFFF80
FFF9FFFFFF80
FFF9FFFFFF80
FFF9FFFFFF80
FFF9FFFFFF80
FFF9FFFFFF80
FFF9FFFFFF80
FFF9FFFFFF80
FFF9FFFFFF80
FFF9FFFFFF80
FFF9FFFFFF80
FFF8000FFF80
FFF8000FFF80
FFF8000FFF80
FFF8000FFF80
FFF8000FFF80
FFF8000FFF80
FFF8000FFF80
FFF8000FFF80
FFF8000FFF80
FFF8000FFF80
FFF8000FFF80
FFF8000FFF80
FFF8000FFF80
FFF8000FFF80
FFF8000FFF80
FFF8000FFF80
FFF8000FFF80
FFF8000FFF80
FFF8000FFF80
FFF8000FFF80
ENDCHAR
STARTCHAR 00C3
ENCODING 195
SWIDTH 617 0
DWIDTH 48 0
BBX 41 72 4 0
BITMAP
0000000F0000
0000000F0000
0007F01F0000
000FFF7F0000
001FFFFE0000
003FFFFE0000
003FFFFC0000
007FFFF80000
007C1FF00000
007801C00000
00F800000000
000000000000
000000000000
000000000000
000000000000
000000000000
000000000000
0003FFE00000
001FFFF80000
007FFFFE0000
00FFFFFF8000
01FFFFFFC000
03FFFFFFE000
07FFFFFFF000
0FFFFFFFF800
1FFFFFFFF800
1FFFFFFFFC00
3FFFFFFFFC00
3FFFFFFFFE00
7FFFFFFFFE00
7FFF81FFFF00
7FFF007FFF00
FFFE003FFF00
FFFC003FFF00
FFFC001FFF80
FFF8001FFF80
FFF8001FFF80
FFF8000FFF80
FFF8000FFF80
FFF9FFFFFF80
FFF9FFFFFF80
FFF9FFFFFF80
FFF9FFFFFF80
FFF9FFFFFF80
FFF9FFFFFF80
FFF9FFFFFF80
FFF9FFFFFF80
FFF9FFFFFF80
FFF9FFFFFF80
FFF9FFFFFF80
FFF9FFFFFF80
FFF9FFFFFF80
FFF8000FFF80
FFF8000FFF80
FFF8000FFF80
FFF8000FFF80
FFF8000FFF80
FFF8000FFF80
FFF8000FFF80
FFF8000FFF80
FFF8000FFF80
FFF8000FFF80
FFF8000FFF80
FFF8000FFF80
FFF8000FFF80
FFF8000FFF80
FFF8000FFF80
FFF8000FFF80
FFF8000FFF80
FFF8000FFF80
FFF8000FFF80
FFF8000FFF80
ENDCHAR
STARTCHAR 00C4
ENCODING 196
SWIDTH 617 0
DWIDTH 48 0
BBX 41 71 4 0
BITMAP
001F80FC0000
003FC1FE0000
007FC1FE0000
007FE3FF0000
007FE3FF0000
007FE3FF0000
007FC3FF0000
003FC1FE0000
001F80FC0000
000400000000
000000000000
000000000000
000000000000
000000000000
000000000000
000000000000
0003FFE00000
001FFFF80000
007FFFFE0000
00FFFFFF8000
01FFFFFFC000
03FFFFFFE000
07FFFFFFF000
0FFFFFFFF800
1FFFFFFFF800
1FFFFFFFFC00
3FFFFFFFFC00
3FFFFFFFFE00
7FFFFFFFFE00
7FFF81FFFF00
7FFF007FFF00
FFFE003FFF00
FFFC003FFF00
FFFC001FFF80
FFF8001FFF80
FFF8001FFF80
FFF8000FFF80
FFF8000FFF80
FFF9FFFFFF80
FFF9FFFFFF80
FFF9FFFFFF80
FFF9FFFFFF80
FFF9FFFFFF80
FFF9FFFFFF80
FFF9FFFFFF80
FFF9FFFFFF80
FFF9FFFFFF80
FFF9FFFFFF80
FFF9FFFFFF80
FFF9FFFFFF80
FFF9FFFFFF80
FFF8000FFF80
FFF8000FFF80
FFF8000FFF80
FFF8000FFF80
FFF8000FFF80
FFF8000FFF80
FFF8000FFF80
FFF8000FFF80
FFF8000FFF80
FFF8000FFF80
FFF8000FFF80
FFF8000FFF80
FFF8000FFF80
FFF8000FFF80
FFF8000FFF80
FFF8000FFF80
FFF8000FFF80
FFF8000FFF80
FFF8000FFF80
FFF8000FFF80
ENDCHAR
STARTCHAR 00C5
ENCODING 197
SWIDTH 617 0
DWIDTH 48 0
BBX 41 75 4 0
BITMAP
00003C000000
0000FF800000
0003FFC00000
0007FFE00000
000FFFF00000
000FFFF80000
001FC1F80000
001F80FC0000
001F00FC0000
001F007C0000
001F007C0000
001F007C0000
001F80FC0000
001F81F80000
000FFFF80000
000FFFF00000
0007FFF00000
0003FFC00000
0000FF800000
00000C000000
0003FFE00000
001FFFF80000
007FFFFE0000
00FFFFFF8000
01FFFFFFC000
03FFFFFFE000
07FFFFFFF000
0FFFFFFFF800
1FFFFFFFF800
1FFFFFFFFC00
3FFFFFFFFC00
3FFFFFFFFE00
7FFFFFFFFE00
7FFF81FFFF00
7FFF007FFF00
FFFE003FFF00
FFFC003FFF00
FFFC001FFF80
FFF8001FFF80
FFF8001FFF80
FFF8000FFF80
FFF8000FFF80
FFF9FFFFFF80
FFF9FFFFFF80
FFF9FFFFFF80
FFF9FFFFFF80
FFF9FFFFFF80
FFF9FFFFFF80
FFF9FFFFFF80
FFF9FFFFFF80
FFF9FFFFFF80
FFF9FFFFFF80
FFF9FFFFFF80
FFF9FFFFFF80
FFF9FFFFFF80
FFF8000FFF80
FFF8000FFF80
FFF8000FFF80
FFF8000FFF80
FFF8000FFF80
FFF8000FFF80
FFF8000FFF80
FFF8000FFF80
FFF8000FFF80
FFF8000FFF80
FFF8000FFF80
FFF8000FFF80
FFF8000FFF80
FFF8000FFF80
FFF8000FFF80
FFF8000FFF80
FFF8000FFF80
FFF8000FFF80
FFF8000FFF80
FFF8000FFF80
ENDCHAR
STARTCHAR 00C6
ENCODING 198
SWIDTH 861 0
DWIDTH 67 0
BBX 60 55 4 0
BITMAP
0003FFC000000000
001FFFF000007FF0
007FFFFC0007FFF0
00FFFFFF003FFFF0
01FFFFFF80FFFFF0
03FFFFFFC3FFFFF0
07FFFFFFE7FFFFF0
0FFFFFFFFFFFFFF0
1FFFFFFFFFFFFFF0
1FFFFFFFFFFFFFF0
3FFFFFFFFFFFFFF0
3FFFFFFFFFFFFFF0
7FFFFFFFFFFFFFF0
7FFF80FFFFFFE000
7FFE007FFFFE0000
FFFE003FFFF80000
FFFC003FFFF00000
FFFC001FFFE00000
FFF8001FFFC00000
FFF8001FFF800000
FFF8000FFF000000
FFF8000FFF000000
FFF9FFFFFFFFFFF0
FFF9FFFFFFFFFFF0
FFF9FFFFFFFFFFF0
FFF9FFFFFFFFFFF0
FFF9FFFFFFFFFFF0
FFF9FFFFFFFFFFF0
FFF9FFFFFFFFFFF0
FFF9FFFFFFFFFFF0
FFF9FFFFFFFFFFF0
FFF9FFFFFFFFFFF0
FFF9FFFFFFFFFFF0
FFF8000FFF000000
FFF8000FFF000000
FFF8000FFF800000
FFF8000FFF800000
FFF8000FFFC00000
FFF8000FFFE00000
FFF8000FFFF00000
FFF8000FFFFC0000
FFF8000FFFFF8000
FFF8000FFFFFFE00
FFF8000FFFFFFFF0
FFF8000FFFFFFFF0
FFF8000FFFFFFFF0
FFF8000FFFFFFFF0
FFF8000FFFFFFFF0
FFF8000FFFFFFFF0
FFF8000FFFFFFFF0
FFF8000FFFFFFFF0
FFF8000FFFFFFFF0
FFF8000FFF3FFFF0
FFF8000FFF03FFF0
FFF8000FFF001FF0
ENDCHAR
STARTCHAR 00C7
ENCODING 199
SWIDTH 501 0
DWIDTH 39 0
BBX 35 72 2 -18
BITMAP
000001FFE0
00001FFFE0
0000FFFFE0
0003FFFFE0
000FFFFFE0
001FFFFFE0
007FFFFFE0
00FFFFFFE0
01FFFFFFE0
03FFFFFFE0
07FFFFFFE0
07FFFFFFE0
0FFFFFF800
1FFFFF0000
1FFFF80000
3FFFE00000
3FFFC00000
3FFF800000
7FFF000000
7FFF000000
7FFE000000
7FFE000000
FFFE000000
FFFC000000
FFFC000000
FFFC000000
FFFC000000
FFFC000000
FFFC000000
FFFC000000
FFFC000000
FFFE000000
7FFE000000
7FFE000000
7FFF000000
7FFF800000
3FFFC00000
3FFFE00000
1FFFF00000
1FFFFC0000
0FFFFF8000
0FFFFFFFE0
07FFFFFFE0
03FFFFFFE0
01FFFFFFE0
00FFFFFFE0
007FFFFFE0
003FFFFFE0
001FFFFFE0
0007FFFFE0
0001FFFFE0
00007FFFE0
00000FFFE0
00000F7FE0
00000F0000
00000F0000
00000E0000
00001F0000
00001FF800
00001FFC00
00001FFE00
00001FFF00
000000FF00
0000003F00
0000003F00
0000003F00
000E007F00
000FFFFF00
000FFFFF00
000FFFFE00
000FFFFC00
0000FFF000
ENDCHAR
STARTCHAR 00C8
ENCODING 200
SWIDTH 514 0
DWIDTH 40 0
BBX 35 74 2 0
BITMAP
000FFC0000
0007FE0000
0003FE0000
0001FF0000
0000FF0000
00007F8000
00007F8000
00003FC000
00001FC000
00000FE000
000007F000
000003F000
000003F800
000001F800
000000FC00
0000000000
0000000000
0000000000
0000000000
0000000000
000001FFE0
00001FFFE0
0000FFFFE0
0003FFFFE0
000FFFFFE0
001FFFFFE0
007FFFFFE0
00FFFFFFE0
01FFFFFFE0
03FFFFFFE0
07FFFFFFE0
07FFFFFFE0
0FFFFFC000
1FFFFE0000
1FFFF00000
3FFFE00000
3FFFC00000
3FFF800000
7FFF000000
7FFF000000
7FFFFFFFE0
7FFFFFFFE0
FFFFFFFFE0
FFFFFFFFE0
FFFFFFFFE0
FFFFFFFFE0
FFFFFFFFE0
FFFFFFFFE0
FFFFFFFFE0
FFFFFFFFE0
FFFFFFFFE0
FFFFFFFFE0
7FFFFFFFE0
7FFE000000
7FFF000000
7FFF000000
3FFF800000
3FFFC00000
1FFFE00000
1FFFF80000
0FFFFF0000
0FFFFFFFC0
07FFFFFFE0
03FFFFFFE0
01FFFFFFE0
00FFFFFFE0
007FFFFFE0
003FFFFFE0
001FFFFFE0
0007FFFFE0
0001FFFFE0
00007FFFE0
00000FFFE0
0000007FE0
ENDCHAR
STARTCHAR 00C9
ENCODING 201
SWIDTH 514 0
DWIDTH 40 0
BBX 35 74 2 0
BITMAP
0000007FE0
000000FFC0
000000FF80
000001FF00
000001FE00
000003FC00
000003FC00
000007F800
000007F000
00000FE000
00000FC000
00001F8000
00003F8000
00003F0000
00007E0000
0000000000
0000000000
0000000000
0000000000
0000000000
000001FFE0
00001FFFE0
0000FFFFE0
0003FFFFE0
000FFFFFE0
001FFFFFE0
007FFFFFE0
00FFFFFFE0
01FFFFFFE0
03FFFFFFE0
07FFFFFFE0
07FFFFFFE0
0FFFFFC000
1FFFFE0000
1FFFF00000
3FFFE00000
3FFFC00000
3FFF800000
7FFF000000
7FFF000000
7FFFFFFFE0
7FFFFFFFE0
FFFFFFFFE0
FFFFFFFFE0
FFFFFFFFE0
FFFFFFFFE0
FFFFFFFFE0
FFFFFFFFE0
FFFFFFFFE0
FFFFFFFFE0
FFFFFFFFE0
FFFFFFFFE0
7FFFFFFFE0
7FFE000000
7FFF000000
7FFF000000
3FFF800000
3FFFC00000
1FFFE00000
1FFFF80000
0FFFFF0000
0FFFFFFFC0
07FFFFFFE0
03FFFFFFE0
01FFFFFFE0
00FFFFFFE0
007FFFFFE0
003FFFFFE0
001FFFFFE0
0007FFFFE0
0001FFFFE0
00007FFFE0
00000FFFE0
0000007FE0
ENDCHAR
STARTCHAR 00CA
ENCODING 202
SWIDTH 514 0
DWIDTH 40 0
BBX 35 72 2 0
BITMAP
00001FF000
00003FF800
00003FF800
00007FFC00
00007FFC00
0000FFFE00
0000FEFE00
0001FC7F00
0001FC7F00
0003F83F80
0003F01F80
0007E00FC0
0007C00FC0
000FC007E0
000F8003E0
0000000000
0000000000
0000000000
000001FFE0
00001FFFE0
0000FFFFE0
0003FFFFE0
000FFFFFE0
001FFFFFE0
007FFFFFE0
00FFFFFFE0
01FFFFFFE0
03FFFFFFE0
07FFFFFFE0
07FFFFFFE0
0FFFFFC000
1FFFFE0000
1FFFF00000
3FFFE00000
3FFFC00000
3FFF800000
7FFF000000
7FFF000000
7FFFFFFFE0
7FFFFFFFE0
FFFFFFFFE0
FFFFFFFFE0
FFFFFFFFE0
FFFFFFFFE0
FFFFFFFFE0
FFFFFFFFE0
FFFFFFFFE0
FFFFFFFFE0
FFFFFFFFE0
FFFFFFFFE0
7FFFFFFFE0
7FFE000000
7FFF000000
7FFF000000
3FFF800000
3FFFC00000
1FFFE00000
1FFFF80000
0FFFFF0000
0FFFFFFFC0
07FFFFFFE0
03FFFFFFE0
01FFFFFFE0
00FFFFFFE0
007FFFFFE0
003FFFFFE0
001FFFFFE0
0007FFFFE0
0001FFFFE0
00007FFFE0
00000FFFE0
0000007FE0
ENDCHAR
STARTCHAR 00CB
ENCODING 203
SWIDTH 514 0
DWIDTH 40 0
BBX 35 71 2 0
BITMAP
0003F01F80
0007F83FC0
000FF83FE0
000FFC7FE0
000FFC7FE0
000FFC7FE0
000FFC3FE0
0007F83FC0
0003F01F80
0000000000
0000000000
0000000000
0000000000
0000000000
0000000000
0000000000
0000000000
000001FFE0
00001FFFE0
0000FFFFE0
0003FFFFE0
000FFFFFE0
001FFFFFE0
007FFFFFE0
00FFFFFFE0
01FFFFFFE0
03FFFFFFE0
07FFFFFFE0
07FFFFFFE0
0FFFFFC000
1FFFFE0000
1FFFF00000
3FFFE00000
3FFFC00000
3FFF800000
7FFF000000
7FFF000000
7FFFFFFFE0
7FFFFFFFE0
FFFFFFFFE0
FFFFFFFFE0
FFFFFFFFE0
FFFFFFFFE0
FFFFFFFFE0
FFFFFFFFE0
FFFFFFFFE0
FFFFFFFFE0
FFFFFFFFE0
FFFFFFFFE0
7FFFFFFFE0
7FFE000000
7FFF000000
7FFF000000
3FFF800000
3FFFC00000
1FFFE00000
1FFFF80000
0FFFFF0000
0FFFFFFFC0
07FFFFFFE0
03FFFFFFE0
01FFFFFFE0
00FFFFFFE0
007FFFFFE0
003FFFFFE0
001FFFFFE0
0007FFFFE0
0001FFFFE0
00007FFFE0
00000FFFE0
0000007FE0
ENDCHAR
STARTCHAR 00CC
ENCODING 204
SWIDTH 270 0
DWIDTH 21 0
BBX 18 74 0 0
BITMAP
FFC000
7FC000
3FE000
3FE000
1FF000
0FF000
07F800
03F800
01FC00
01FC00
00FE00
007E00
003F00
001F80
000F80
000000
000000
000000
000000
000000
0FFFC0
0FFFC0
0FFFC0
0FFFC0
0FFFC0
0FFFC0
0FFFC0
0FFFC0
0FFFC0
0FFFC0
0FFFC0
0FFFC0
0FFFC0
0FFFC0
0FFFC0
0FFFC0
0FFFC0
0FFFC0
0FFFC0
0FFFC0
0FFFC0
0FFFC0
0FFFC0
0FFFC0
0FFFC0
0FFFC0
0FFFC0
0FFFC0
0FFFC0
0FFFC0
0FFFC0
0FFFC0
0FFFC0
0FFFC0
0FFFC0
0FFFC0
0FFFC0
0FFFC0
0FFFC0
0FFFC0
0FFFC0
0FFFC0
0FFFC0
0FFFC0
0FFFC0
0FFFC0
0FFFC0
0FFFC0
0FFFC0
0FFFC0
0FFFC0
0FFFC0
0FFFC0
0FFFC0
ENDCHAR
STARTCHAR 00CD
ENCODING 205
SWIDTH 270 0
DWIDTH 21 0
BBX 18 74 4 0
BITMAP
00FFC0
00FF80
01FF00
01FF00
03FE00
03FC00
07F800
07F000
0FE000
0FE000
1FC000
3F8000
3F0000
7E0000
7C0000
000000
000000
000000
000000
000000
FFFC00
FFFC00
FFFC00
FFFC00
FFFC00
FFFC00
FFFC00
FFFC00
FFFC00
FFFC00
FFFC00
FFFC00
FFFC00
FFFC00
FFFC00
FFFC00
FFFC00
FFFC00
FFFC00
FFFC00
FFFC00
FFFC00
FFFC00
FFFC00
FFFC00
FFFC00
FFFC00
FFFC00
FFFC00
FFFC00
FFFC00
FFFC00
FFFC00
FFFC00
FFFC00
FFFC00
FFFC00
FFFC00
FFFC00
FFFC00
FFFC00
FFFC00
FFFC00
FFFC00
FFFC00
FFFC00
FFFC00
FFFC00
FFFC00
FFFC00
FFFC00
FFFC00
FFFC00
FFFC00
ENDCHAR
STARTCHAR 00CE
ENCODING 206
SWIDTH 270 0
DWIDTH 21 0
BBX 24 74 -1 0
BITMAP
01FF80
01FF80
03FFC0
03FFC0
07FFE0
07FFE0
0FFFF0
0FE7F0
1FC3F8
1F81F8
3F81FC
3F00FC
7E007E
7C003E
F8003F
000000
000000
000000
000000
000000
07FFE0
07FFE0
07FFE0
07FFE0
07FFE0
07FFE0
07FFE0
07FFE0
07FFE0
07FFE0
07FFE0
07FFE0
07FFE0
07FFE0
07FFE0
07FFE0
07FFE0
07FFE0
07FFE0
07FFE0
07FFE0
07FFE0
07FFE0
07FFE0
07FFE0
07FFE0
07FFE0
07FFE0
07FFE0
07FFE0
07FFE0
07FFE0
07FFE0
07FFE0
07FFE0
07FFE0
07FFE0
07FFE0
07FFE0
07FFE0
07FFE0
07FFE0
07FFE0
07FFE0
07FFE0
07FFE0
07FFE0
07FFE0
07FFE0
07FFE0
07FFE0
07FFE0
07FFE0
07FFE0
ENDCHAR
STARTCHAR 00CF
ENCODING 207
SWIDTH 270 0
DWIDTH 21 0
BBX 24 71 -1 0
BITMAP
1F00F8
3F81FE
7FC3FE
FFC3FE
FFC3FF
FFC3FE
7FC3FE
7F81FE
3F80FC
0C0030
000000
000000
000000
000000
000000
000000
000000
07FFE0
07FFE0
07FFE0
07FFE0
07FFE0
07FFE0
07FFE0
07FFE0
07FFE0
07FFE0
07FFE0
07FFE0
07FFE0
07FFE0
07FFE0
07FFE0
07FFE0
07FFE0
07FFE0
07FFE0
07FFE0
07FFE0
07FFE0
07FFE0
07FFE0
07FFE0
07FFE0
07FFE0
07FFE0
07FFE0
07FFE0
07FFE0
07FFE0
07FFE0
07FFE0
07FFE0
07FFE0
07FFE0
07FFE0
07FFE0
07FFE0
07FFE0
07FFE0
07FFE0
07FFE0
07FFE0
07FFE0
07FFE0
07FFE0
07FFE0
07FFE0
07FFE0
07FFE0
07FFE0
ENDCHAR
STARTCHAR 00D0
ENCODING 208
SWIDTH 642 0
DWIDTH 50 0
BBX 48 54 0 0
BITMAP
0FFFFFE00000
0FFFFFFC0000
0FFFFFFF8000
0FFFFFFFE000
0FFFFFFFF000
0FFFFFFFFC00
0FFFFFFFFE00
0FFFFFFFFF00
0FFFFFFFFF80
0FFFFFFFFFC0
0FFFFFFFFFE0
0FFFFFFFFFE0
0FFFEFFFFFF0
0FFFC07FFFF8
0FFFC01FFFF8
0FFFC007FFFC
0FFFC003FFFC
0FFFC001FFFE
0FFFC000FFFE
0FFFC000FFFE
0FFFC0007FFE
0FFFC0007FFF
FFFFFF003FFF
FFFFFF003FFF
FFFFFF003FFF
FFFFFF003FFF
FFFFFF003FFF
FFFFFF003FFF
FFFFFF003FFF
FFFFFF003FFF
0FFFC0003FFF
0FFFC0003FFF
0FFFC0007FFF
0FFFC0007FFE
0FFFC000FFFE
0FFFC001FFFE
0FFFC001FFFC
0FFFC003FFFC
0FFFC00FFFFC
0FFFC03FFFF8
0FFFC1FFFFF0
0FFFCFFFFFF0
0FFFCFFFFFE0
0FFFCFFFFFC0
0FFFCFFFFFC0
0FFFCFFFFF80
0FFFCFFFFF00
0FFFCFFFFE00
0FFFCFFFF800
0FFFCFFFF000
0FFFCFFFC000
0FFFCFFF0000
0FFFCFF80000
0FFFCF800000
ENDCHAR
STARTCHAR 00D1
ENCODING 209
SWIDTH 655 0
DWIDTH 51 0
BBX 43 73 4 -1
BITMAP
00000007C000
000000078000
0003F8078000
0007FFDF8000
000FFFFF0000
001FFFFF0000
001FFFFE0000
003FFFFE0000
003E07F80000
003C00400000
003C00000000
000000000000
000000000000
000000000000
000000000000
000000000000
018000000000
0FF000000000
1FFC0003FFE0
3FFE0003FFE0
7FFF0003FFE0
7FFF0003FFE0
FFFF8003FFE0
FFFFC003FFE0
FFFFC003FFE0
FFFFE003FFE0
FFFFE003FFE0
FFFFF003FFE0
FFFFF003FFE0
FFFFF803FFE0
FFFFFC03FFE0
FFFFFC03FFE0
FFFFFE03FFE0
FFFFFE03FFE0
FFFFFF03FFE0
FFFFFF03FFE0
FFFFFF83FFE0
FFF7FF83FFE0
FFF7FFC3FFE0
FFF7FFE3FFE0
FFF3FFE1FFE0
FFF3FFF1FFE0
FFF1FFF1FFE0
FFF9FFF9FFE0
FFF8FFF9FFE0
FFF87FFDFFE0
FFF87FFDFFE0
FFF83FFDFFE0
FFF83FFFFFE0
FFF81FFFFFE0
FFF81FFFFFE0
FFF80FFFFFE0
FFF80FFFFFE0
FFF807FFFFE0
FFF803FFFFE0
FFF803FFFFE0
FFF801FFFFE0
FFF801FFFFE0
FFF800FFFFE0
FFF800FFFFE0
FFF8007FFFE0
FFF8007FFFE0
FFF8003FFFE0
FFF8001FFFE0
FFF8001FFFE0
FFF8000FFFE0
FFF8000FFFE0
FFF80007FFE0
FFF80007FFE0
FFF80003FFC0
FFF80001FFC0
FFF80000FF80
000000003E00
ENDCHAR
STARTCHAR 00D2
ENCODING 210
SWIDTH 771 0
DWIDTH 60 0
BBX 56 75 2 -1
BITMAP
00007FE0000000
00003FE0000000
00001FF0000000
00001FF0000000
00000FF8000000
000007F8000000
000003FC000000
000001FE000000
000000FE000000
0000007F000000
0000007F000000
0000003F800000
0000001F800000
0000000FC00000
00000007C00000
00000000000000
00000000000000
00000000000000
00000000000000
000007FFE00000
00003FFFFC0000
0000FFFFFF8000
0003FFFFFFC000
000FFFFFFFF000
001FFFFFFFF800
003FFFFFFFFC00
007FFFFFFFFE00
00FFFFFFFFFF00
01FFFFFFFFFF80
03FFFFFFFFFFC0
07FFFFFFFFFFE0
07FFFFFFFFFFF0
0FFFFF80FFFFF0
1FFFFC003FFFF8
1FFFF0000FFFF8
3FFFE00007FFFC
3FFFC00003FFFC
3FFF800001FFFC
7FFF000000FFFE
7FFF000000FFFE
7FFE0000007FFE
7FFE0000007FFE
FFFE0000003FFF
FFFC0000003FFF
FFFC0000003FFF
FFFC0000003FFF
FFFC0000003FFF
FFFC0000003FFF
FFFC0000003FFF
FFFC0000003FFF
FFFC0000003FFF
7FFE0000007FFF
7FFE0000007FFE
7FFF0000007FFE
7FFF000000FFFE
7FFF800001FFFE
3FFFC00001FFFC
3FFFE00003FFFC
1FFFF00007FFFC
1FFFF8001FFFF8
0FFFFE007FFFF8
0FFFFFFFFFFFF0
07FFFFFFFFFFE0
03FFFFFFFFFFE0
03FFFFFFFFFFC0
01FFFFFFFFFF80
00FFFFFFFFFF00
007FFFFFFFFE00
003FFFFFFFFC00
000FFFFFFFF800
0007FFFFFFE000
0001FFFFFFC000
0000FFFFFF0000
00001FFFF80000
000001FF800000
ENDCHAR
STARTCHAR 00D3
ENCODING 211
SWIDTH 771 0
DWIDTH 60 0
BBX 56 75 2 -1
BITMAP
00000007FE0000
00000007FC0000
0000000FFC0000
0000000FF80000
0000001FF00000
0000001FE00000
0000003FC00000
0000003F800000
0000007F800000
0000007F000000
000000FE000000
000000FC000000
000001F8000000
000001F0000000
000003E0000000
00000000000000
00000000000000
00000000000000
00000000000000
000007FFE00000
00003FFFFC0000
0000FFFFFF8000
0003FFFFFFC000
000FFFFFFFF000
001FFFFFFFF800
003FFFFFFFFC00
007FFFFFFFFE00
00FFFFFFFFFF00
01FFFFFFFFFF80
03FFFFFFFFFFC0
07FFFFFFFFFFE0
07FFFFFFFFFFF0
0FFFFF80FFFFF0
1FFFFC003FFFF8
1FFFF0000FFFF8
3FFFE00007FFFC
3FFFC00003FFFC
3FFF800001FFFC
7FFF000000FFFE
7FFF000000FFFE
7FFE0000007FFE
7FFE0000007FFE
FFFE0000003FFF
FFFC0000003FFF
FFFC0000003FFF
FFFC0000003FFF
FFFC0000003FFF
FFFC0000003FFF
FFFC0000003FFF
FFFC0000003FFF
FFFC0000003FFF
7FFE0000007FFF
7FFE0000007FFE
7FFF0000007FFE
7FFF000000FFFE
7FFF800001FFFE
3FFFC00001FFFC
3FFFE00003FFFC
1FFFF00007FFFC
1FFFF8001FFFF8
0FFFFE007FFFF8
0FFFFFFFFFFFF0
07FFFFFFFFFFE0
03FFFFFFFFFFE0
03FFFFFFFFFFC0
01FFFFFFFFFF80
00FFFFFFFFFF00
007FFFFFFFFE00
003FFFFFFFFC00
000FFFFFFFF800
0007FFFFFFE000
0001FFFFFFC000
0000FFFFFF0000
00001FFFF80000
000001FF800000
ENDCHAR
STARTCHAR 00D4
ENCODING 212
SWIDTH 771 0
DWIDTH 60 0
BBX 56 73 2 -1
BITMAP
000001FF800000
000001FF800000
000003FFC00000
000003FFC00000
000007FFE00000
000007FFE00000
00000FFFF00000
00000FE7F00000
00001FC3F80000
00001F81F80000
00003F81FC0000
00003F00FC0000
00007E007E0000
00007C003E0000
0000F8001F0000
00000000000000
00000000000000
000007FFE00000
00003FFFFC0000
0000FFFFFF8000
0003FFFFFFC000
000FFFFFFFF000
001FFFFFFFF800
003FFFFFFFFC00
007FFFFFFFFE00
00FFFFFFFFFF00
01FFFFFFFFFF80
03FFFFFFFFFFC0
07FFFFFFFFFFE0
07FFFFFFFFFFF0
0FFFFF80FFFFF0
1FFFFC003FFFF8
1FFFF0000FFFF8
3FFFE00007FFFC
3FFFC00003FFFC
3FFF800001FFFC
7FFF000000FFFE
7FFF000000FFFE
7FFE0000007FFE
7FFE0000007FFE
FFFE0000003FFF
FFFC0000003FFF
FFFC0000003FFF
FFFC0000003FFF
FFFC0000003FFF
FFFC0000003FFF
FFFC0000003FFF
FFFC0000003FFF
FFFC0000003FFF
7FFE0000007FFF
7FFE0000007FFE
7FFF0000007FFE
7FFF000000FFFE
7FFF800001FFFE
3FFFC00001FFFC
3FFFE00003FFFC
1FFFF00007FFFC
1FFFF8001FFFF8
0FFFFE007FFFF8
0FFFFFFFFFFFF0
07FFFFFFFFFFE0
03FFFFFFFFFFE0
03FFFFFFFFFFC0
01FFFFFFFFFF80
00FFFFFFFFFF00
007FFFFFFFFE00
003FFFFFFFFC00
000FFFFFFFF800
0007FFFFFFE000
0001FFFFFFC000
0000FFFFFF0000
00001FFFF80000
000001FF800000
ENDCHAR
STARTCHAR 00D5
ENCODING 213
SWIDTH 771 0
DWIDTH 60 0
BBX 56 73 2 -1
BITMAP
000000000F0000
000000000F0000
000007F01F0000
00001FFF7E0000
00003FFFFE0000
00003FFFFC0000
00007FFFFC0000
00007FFFF80000
00007C1FF00000
0000F800800000
0000F000000000
00000000000000
00000000000000
00000000000000
00000000000000
00000000000000
00000000000000
000007FFE00000
00003FFFFC0000
0000FFFFFF8000
0003FFFFFFC000
000FFFFFFFF000
001FFFFFFFF800
003FFFFFFFFC00
007FFFFFFFFE00
00FFFFFFFFFF00
01FFFFFFFFFF80
03FFFFFFFFFFC0
07FFFFFFFFFFE0
07FFFFFFFFFFF0
0FFFFF80FFFFF0
1FFFFC003FFFF8
1FFFF0000FFFF8
3FFFE00007FFFC
3FFFC00003FFFC
3FFF800001FFFC
7FFF000000FFFE
7FFF000000FFFE
7FFE0000007FFE
7FFE0000007FFE
FFFE0000003FFF
FFFC0000003FFF
FFFC0000003FFF
FFFC0000003FFF
FFFC0000003FFF
FFFC0000003FFF
FFFC0000003FFF
FFFC0000003FFF
FFFC0000003FFF
7FFE0000007FFF
7FFE0000007FFE
7FFF0000007FFE
7FFF000000FFFE
7FFF800001FFFE
3FFFC00001FFFC
3FFFE00003FFFC
1FFFF00007FFFC
1FFFF8001FFFF8
0FFFFE007FFFF8
0FFFFFFFFFFFF0
07FFFFFFFFFFE0
03FFFFFFFFFFE0
03FFFFFFFFFFC0
01FFFFFFFFFF80
00FFFFFFFFFF00
007FFFFFFFFE00
003FFFFFFFFC00
000FFFFFFFF800
0007FFFFFFE000
0001FFFFFFC000
0000FFFFFF0000
00001FFFF80000
000001FF800000
ENDCHAR
STARTCHAR 00D6
ENCODING 214
SWIDTH 771 0
DWIDTH 60 0
BBX 56 72 2 -1
BITMAP
00001F00FC0000
00003F81FE0000
00007FC3FE0000
00007FC3FF0000
00007FC3FF0000
00007FC3FF0000
00007FC3FE0000
00007FC1FE0000
00003F80FC0000
00000400000000
00000000000000
00000000000000
00000000000000
00000000000000
00000000000000
00000000000000
000007FFE00000
00003FFFFC0000
0000FFFFFF8000
0003FFFFFFC000
000FFFFFFFF000
001FFFFFFFF800
003FFFFFFFFC00
007FFFFFFFFE00
00FFFFFFFFFF00
01FFFFFFFFFF80
03FFFFFFFFFFC0
07FFFFFFFFFFE0
07FFFFFFFFFFF0
0FFFFF80FFFFF0
1FFFFC003FFFF8
1FFFF0000FFFF8
3FFFE00007FFFC
3FFFC00003FFFC
3FFF800001FFFC
7FFF000000FFFE
7FFF000000FFFE
7FFE0000007FFE
7FFE0000007FFE
FFFE0000003FFF
FFFC0000003FFF
FFFC0000003FFF
FFFC0000003FFF
FFFC0000003FFF
FFFC0000003FFF
FFFC0000003FFF
FFFC0000003FFF
FFFC0000003FFF
7FFE0000007FFF
7FFE0000007FFE
7FFF0000007FFE
7FFF000000FFFE
7FFF800001FFFE
3FFFC00001FFFC
3FFFE00003FFFC
1FFFF00007FFFC
1FFFF8001FFFF8
0FFFFE007FFFF8
0FFFFFFFFFFFF0
07FFFFFFFFFFE0
03FFFFFFFFFFE0
03FFFFFFFFFFC0
01FFFFFFFFFF80
00FFFFFFFFFF00
007FFFFFFFFE00
003FFFFFFFFC00
000FFFFFFFF800
0007FFFFFFE000
0001FFFFFFC000
0000FFFFFF0000
00001FFFF80000
000001FF800000
ENDCHAR
STARTCHAR 00D7
ENCODING 215
SWIDTH 822 0
DWIDTH 64 0
BBX 46 46 10 0
BITMAP
020000000100
070000000380
0F80000007C0
1FC000000FE0
3FE000001FF0
7FF000003FF8
7FF800007FF8
3FFC0000FFF0
1FFE0001FFE0
0FFF0003FFC0
07FF8007FF80
03FFC00FFF00
01FFE01FFE00
00FFF03FFC00
007FF87FF800
003FFCFFF800
001FFFFFF000
000FFFFFE000
0007FFFFC000
0003FFFF8000
0001FFFF0000
0000FFFE0000
00007FFC0000
0000FFFC0000
0001FFFE0000
0003FFFF0000
0007FFFF8000
000FFFFFC000
001FFFFFE000
003FFEFFF000
007FFC7FF800
00FFF83FFC00
01FFF01FFE00
03FFE00FFF00
07FFC007FF80
0FFF8003FFC0
1FFF0001FFE0
3FFE0000FFF0
7FFC00007FF8
FFF800003FFC
7FF000001FF8
3FE000000FF0
1FC0000007E0
0F80000003C0
070000000180
020000000000
ENDCHAR
STARTCHAR 00D8
ENCODING 216
SWIDTH 771 0
DWIDTH 60 0
BBX 56 61 2 -4
BITMAP
00000000000040
00000000000060
000000000000F0
000007FFE001FC
00003FFFFC03FE
0000FFFFFF07FE
0003FFFFFFCFFC
000FFFFFFFFFF8
001FFFFFFFFFF8
003FFFFFFFFFF0
007FFFFFFFFFE0
00FFFFFFFFFFC0
01FFFFFFFFFF80
03FFFFFFFFFFC0
07FFFFFFFFFFE0
07FFFFFFFFFFE0
0FFFFF00FFFFF0
1FFFF8001FFFF8
1FFFF0003FFFF8
3FFFE0007FFFFC
3FFF8000FFFFFC
3FFF8001FFFFFC
7FFF0003FFFFFE
7FFE0007FE7FFE
7FFE0007FC7FFE
7FFC000FF83FFE
FFFC001FF03FFF
FFFC003FE03FFF
FFFC007FE03FFF
FFFC00FFC03FFF
FFFC01FF803FFF
FFFC03FF003FFF
FFFC03FE003FFF
FFFC07FC003FFF
FFFC0FF8003FFF
7FFC1FF0003FFF
7FFE3FF0007FFE
7FFE7FE0007FFE
7FFFFFC000FFFE
7FFFFF8000FFFE
3FFFFF0001FFFC
3FFFFE0003FFFC
1FFFFC0007FFFC
1FFFF8000FFFF8
0FFFFE003FFFF8
0FFFFFE3FFFFF0
07FFFFFFFFFFE0
03FFFFFFFFFFE0
03FFFFFFFFFFC0
03FFFFFFFFFF80
07FFFFFFFFFF00
0FFFFFFFFFFE00
0FFFFFFFFFFC00
1FFFFFFFFFF800
3FF7FFFFFFE000
7FE1FFFFFFC000
FFC07FFFFF0000
7F801FFFFC0000
3F8001FF800000
1F000000000000
06000000000000
ENDCHAR
STARTCHAR 00D9
ENCODING 217
SWIDTH 617 0
DWIDTH 48 0
BBX 41 75 4 -1
BITMAP
007FE0000000
003FF0000000
001FF0000000
000FF8000000
0007F8000000
0007FC000000
0003FC000000
0001FE000000
0000FE000000
00007F000000
00003F000000
00001F800000
00001F800000
00000FC00000
000007C00000
000000000000
000000000000
000000000000
000000000000
000000000000
FFF8000FFF80
FFF8000FFF80
FFF8000FFF80
FFF8000FFF80
FFF8000FFF80
FFF8000FFF80
FFF8000FFF80
FFF8000FFF80
FFF8000FFF80
FFF8000FFF80
FFF8000FFF80
FFF8000FFF80
FFF8000FFF80
FFF8000FFF80
FFF8000FFF80
FFF8000FFF80
FFF8000FFF80
FFF8000FFF80
FFF8000FFF80
FFF8000FFF80
FFF8000FFF80
FFF8000FFF80
FFF8000FFF80
FFF8000FFF80
FFF8000FFF80
FFF8000FFF80
FFF8000FFF80
FFF8000FFF80
FFF8000FFF80
FFF8000FFF80
FFF8000FFF80
FFF8000FFF80
FFF8000FFF80
FFF8000FFF80
FFF8001FFF80
FFF8001FFF80
FFF8001FFF80
FFFC001FFF00
FFFC003FFF00
FFFE003FFF00
7FFF00FFFF00
7FFFE3FFFE00
7FFFFFFFFE00
3FFFFFFFFE00
3FFFFFFFFC00
1FFFFFFFFC00
0FFFFFFFF800
0FFFFFFFF000
07FFFFFFE000
03FFFFFFE000
01FFFFFF8000
00FFFFFF0000
003FFFFE0000
000FFFF00000
0001FF800000
ENDCHAR
STARTCHAR 00DA
ENCODING 218
SWIDTH 617 0
DWIDTH 48 0
BBX 41 75 4 -1
BITMAP
000003FE0000
000007FE0000
000007FC0000
00000FF80000
00000FF00000
00001FE00000
00003FC00000
00003FC00000
00007F800000
00007F000000
0000FE000000
0000FC000000
0001F8000000
0001F8000000
0003F0000000
000000000000
000000000000
000000000000
000000000000
000000000000
FFF8000FFF80
FFF8000FFF80
FFF8000FFF80
FFF8000FFF80
FFF8000FFF80
FFF8000FFF80
FFF8000FFF80
FFF8000FFF80
FFF8000FFF80
FFF8000FFF80
FFF8000FFF80
FFF8000FFF80
FFF8000FFF80
FFF8000FFF80
FFF8000FFF80
FFF8000FFF80
FFF8000FFF80
FFF8000FFF80
FFF8000FFF80
FFF8000FFF80
FFF8000FFF80
FFF8000FFF80
FFF8000FFF80
FFF8000FFF80
FFF8000FFF80
FFF8000FFF80
FFF8000FFF80
FFF8000FFF80
FFF8000FFF80
FFF8000FFF80
FFF8000FFF80
FFF8000FFF80
FFF8000FFF80
FFF8000FFF80
FFF8001FFF80
FFF8001FFF80
FFF8001FFF80
FFFC001FFF00
FFFC003FFF00
FFFE003FFF00
7FFF00FFFF00
7FFFE3FFFE00
7FFFFFFFFE00
3FFFFFFFFE00
3FFFFFFFFC00
1FFFFFFFFC00
0FFFFFFFF800
0FFFFFFFF000
07FFFFFFE000
03FFFFFFE000
01FFFFFF8000
00FFFFFF0000
003FFFFE0000
000FFFF00000
0001FF800000
ENDCHAR
STARTCHAR 00DB
ENCODING 219
SWIDTH 617 0
DWIDTH 48 0
BBX 41 75 4 -1
BITMAP
0000FF800000
0001FF800000
0001FFC00000
0003FFC00000
0003FFE00000
0007FFF00000
0007F7F00000
000FE7F80000
000FE3F80000
001FC1FC0000
001F80FC0000
003F007E0000
007E007E0000
007E003F0000
00FC001F0000
000000000000
000000000000
000000000000
000000000000
000000000000
FFF8000FFF80
FFF8000FFF80
FFF8000FFF80
FFF8000FFF80
FFF8000FFF80
FFF8000FFF80
FFF8000FFF80
FFF8000FFF80
FFF8000FFF80
FFF8000FFF80
FFF8000FFF80
FFF8000FFF80
FFF8000FFF80
FFF8000FFF80
FFF8000FFF80
FFF8000FFF80
FFF8000FFF80
FFF8000FFF80
FFF8000FFF80
FFF8000FFF80
FFF8000FFF80
FFF8000FFF80
FFF8000FFF80
FFF8000FFF80
FFF8000FFF80
FFF8000FFF80
FFF8000FFF80
FFF8000FFF80
FFF8000FFF80
FFF8000FFF80
FFF8000FFF80
FFF8000FFF80
FFF8000FFF80
FFF8000FFF80
FFF8001FFF80
FFF8001FFF80
FFF8001FFF80
FFFC001FFF00
FFFC003FFF00
FFFE003FFF00
7FFF00FFFF00
7FFFE3FFFE00
7FFFFFFFFE00
3FFFFFFFFE00
3FFFFFFFFC00
1FFFFFFFFC00
0FFFFFFFF800
0FFFFFFFF000
07FFFFFFE000
03FFFFFFE000
01FFFFFF8000
00FFFFFF0000
003FFFFE0000
000FFFF00000
0001FF800000
ENDCHAR
STARTCHAR 00DC
ENCODING 220
SWIDTH 617 0
DWIDTH 48 0
BBX 41 72 4 -1
BITMAP
001F80FC0000
003FC1FE0000
007FC1FE0000
007FE3FF0000
007FE3FF0000
007FE3FF0000
007FC3FF0000
003FC1FE0000
001F80FC0000
000400000000
000000000000
000000000000
000000000000
000000000000
000000000000
000000000000
000000000000
FFF8000FFF80
FFF8000FFF80
FFF8000FFF80
FFF8000FFF80
FFF8000FFF80
FFF8000FFF80
FFF8000FFF80
FFF8000FFF80
FFF8000FFF80
FFF8000FFF80
FFF8000FFF80
FFF8000FFF80
FFF8000FFF80
FFF8000FFF80
FFF8000FFF80
FFF8000FFF80
FFF8000FFF80
FFF8000FFF80
FFF8000FFF80
FFF8000FFF80
FFF8000FFF80
FFF8000FFF80
FFF8000FFF80
FFF8000FFF80
FFF8000FFF80
FFF8000FFF80
FFF8000FFF80
FFF8000FFF80
FFF8000FFF80
FFF8000FFF80
FFF8000FFF80
FFF8000FFF80
FFF8000FFF80
FFF8000FFF80
FFF8001FFF80
FFF8001FFF80
FFF8001FFF80
FFFC001FFF00
FFFC003FFF00
FFFE003FFF00
7FFF00FFFF00
7FFFE3FFFE00
7FFFFFFFFE00
3FFFFFFFFE00
3FFFFFFFFC00
1FFFFFFFFC00
0FFFFFFFF800
0FFFFFFFF000
07FFFFFFE000
03FFFFFFE000
01FFFFFF8000
00FFFFFF0000
003FFFFE0000
000FFFF00000
0001FF800000
ENDCHAR
STARTCHAR 00DD
ENCODING 221
SWIDTH 565 0
DWIDTH 44 0
BBX 38 74 3 0
BITMAP
00000FFC00
00000FF800
00001FF800
00001FF000
00003FE000
00003FC000
00007F8000
00007F0000
0000FF0000
0000FE0000
0001FC0000
0001F80000
0003F00000
0003E00000
0007E00000
0000000000
0000000000
0000000000
0000000000
0000000000
FFFC007FFC
FFFC007FFC
FFFC007FFC
FFFC007FFC
FFFC007FFC
FFFC007FFC
FFFC007FFC
FFFC007FFC
FFFC007FFC
FFFC007FFC
FFFC007FFC
FFFC007FFC
FFFC007FFC
FFFC007FFC
FFFC007FFC
FFFC007FFC
FFFC007FFC
FFFC007FFC
FFFC00FFFC
7FFC00FFFC
7FFC00FFFC
7FFE01FFF8
7FFF01FFF8
7FFFEFFFF8
3FFFFFFFF8
3FFFFFFFF0
1FFFFFFFF0
1FFFFFFFE0
0FFFFFFFE0
07FFFFFFC0
07FFFFFF80
03FFFFFF00
00FFFFFE00
007FFFF800
001FFFE000
000FFFC000
000FFFC000
000FFFC000
000FFFC000
000FFFC000
000FFFC000
000FFFC000
000FFFC000
000FFFC000
000FFFC000
000FFFC000
000FFFC000
000FFFC000
000FFFC000
000FFFC000
000FFFC000
000FFFC000
000FFFC000
000FFFC000
ENDCHAR
STARTCHAR 00DE
ENCODING 222
SWIDTH 565 0
DWIDTH 44 0
BBX 39 55 4 0
BITMAP
FFF8000000
FFF8000000
FFF8000000
FFF8000000
FFF8000000
FFF8000000
FFF8000000
FFF9FF0000
FFFFFFE000
FFFFFFF800
FFFFFFFE00
FFFFFFFF00
FFFFFFFF80
FFFFFFFFC0
FFFFFFFFE0
FFFFFFFFF0
FFFFFFFFF0
FFFFFFFFF8
FFFFFFFFF8
FFFFFFFFFC
FFFF03FFFC
FFFE01FFFC
FFFC00FFFE
FFFC007FFE
FFF8007FFE
FFF8007FFE
FFF8007FFE
FFF8007FFE
FFF800FFFE
FFF800FFFE
FFF801FFFC
FFF807FFFC
FFF8FFFFFC
FFF8FFFFF8
FFF8FFFFF8
FFF8FFFFF0
FFF8FFFFF0
FFF8FFFFE0
FFF8FFFFC0
FFF8FFFF80
FFF8FFFF00
FFF8FFFE00
FFF8FFF800
FFF8FFC000
FFF8FC0000
FFF8000000
FFF8000000
FFF8000000
FFF8000000
FFF8000000
FFF8000000
FFF8000000
FFF8000000
FFF8000000
FFF8000000
ENDCHAR
STARTCHAR 00DF
ENCODING 223
SWIDTH 591 0
DWIDTH 46 0
BBX 44 55 0 0
BITMAP
0001FF800000
000FFFF00000
003FFFFC0000
007FFFFF0000
00FFFFFF8000
01FFFFFFC000
01FFFFFFC000
03FFFFFFE000
07FFFFFFE000
07FFFFFFF000
07FFFFFFF000
07FFC1FFF000
0FFF80FFF000
0FFF80FFF000
0FFF00FFF000
0FFF00FFF000
FFFF00FFE000
FFFF01FFE000
FFFF01FFC000
FFFF03FF8000
FFFF07FF0000
FFFF07FF0000
FFFF0FFFC000
FFFF0FFFE000
FFFF0FFFF000
FFFF07FFFC00
FFFF07FFFE00
FFFF01FFFF00
0FFF00FFFF00
0FFF007FFF80
0FFF003FFFC0
0FFF001FFFC0
0FFF000FFFE0
0FFF0007FFE0
0FFF0003FFF0
0FFF0001FFF0
0FFF0001FFF0
0FFF0000FFF0
0FFF0000FFF0
0FFF0000FFF0
0FFF0000FFF0
0FFF0001FFF0
0FFF0003FFF0
0FFF001FFFF0
0FFF1FFFFFF0
0FFF1FFFFFE0
0FFF1FFFFFE0
0FFF1FFFFFC0
0FFF1FFFFFC0
0FFF1FFFFF80
0FFF1FFFFF00
0FFF1FFFFC00
0FFF1FFFF800
0FFF1FFFE000
0FFF1FFE0000
ENDCHAR
STARTCHAR 00E0
ENCODING 224
SWIDTH 552 0
DWIDTH 43 0
BBX 39 58 2 -1
BITMAP
007FE00000
003FE00000
001FF00000
000FF00000
000FF80000
0007F80000
0003FC0000
0001FC0000
0000FE0000
00007E0000
00007F0000
00003F8000
00001F8000
00000FC000
0000000000
0000000000
0000000000
0000000000
0007FF8000
001FFFF000
007FFFF800
01FFFFFE00
03FFFFFF00
07FFFFFF80
0FFFFFFFC0
1FFFFFFFE0
1FFFFFFFF0
3FFFFFFFF0
3FFFFFFFF8
7FFFFFFFF8
7FFF03FFF8
7FFE00FFFC
FFFC007FFC
FFF8007FFC
FFF8003FFC
FFF0003FFC
FFF0003FFC
FFF0003FFC
FFF0003FFE
FFF0003FFE
FFF8003FFE
FFF8003FFE
FFFC003FFE
7FFC003FFE
7FFF00BFFE
7FFFFFBFFE
3FFFFFBFFE
3FFFFFBFFE
1FFFFFBFFE
1FFFFFBFFE
0FFFFFBFFE
07FFFFBFFE
03FFFFBFFE
01FFFFBFFE
00FFFFBFFE
003FFFBFFE
000FFFBFFE
0000500000
ENDCHAR
STARTCHAR 00E1
ENCODING 225
SWIDTH 552 0
DWIDTH 43 0
BBX 39 58 2 -1
BITMAP
000007FE00
00000FFC00
00000FF800
00001FF000
00001FE000
00003FC000
00003FC000
00007F8000
00007F0000
0000FE0000
0000FC0000
0001F80000
0001F80000
0003F00000
0000000000
0000000000
0000000000
0000000000
0007FF8000
001FFFF000
007FFFF800
01FFFFFE00
03FFFFFF00
07FFFFFF80
0FFFFFFFC0
1FFFFFFFE0
1FFFFFFFF0
3FFFFFFFF0
3FFFFFFFF8
7FFFFFFFF8
7FFF03FFF8
7FFE00FFFC
FFFC007FFC
FFF8007FFC
FFF8003FFC
FFF0003FFC
FFF0003FFC
FFF0003FFC
FFF0003FFE
FFF0003FFE
FFF8003FFE
FFF8003FFE
FFFC003FFE
7FFC003FFE
7FFF00BFFE
7FFFFFBFFE
3FFFFFBFFE
3FFFFFBFFE
1FFFFFBFFE
1FFFFFBFFE
0FFFFFBFFE
07FFFFBFFE
03FFFFBFFE
01FFFFBFFE
00FFFFBFFE
003FFFBFFE
000FFFBFFE
0000500000
ENDCHAR
STARTCHAR 00E2
ENCODING 226
SWIDTH 552 0
DWIDTH 43 0
BBX 39 58 2 -1
BITMAP
0001FF8000
0001FF8000
0003FFC000
0003FFC000
0007FFE000
000FFFE000
000FEFF000
001FE7F000
001FC3F800
003F81F800
003F01FC00
007E00FC00
007E007E00
00FC003E00
0000000000
0000000000
0000000000
0000000000
0007FF8000
001FFFF000
007FFFF800
01FFFFFE00
03FFFFFF00
07FFFFFF80
0FFFFFFFC0
1FFFFFFFE0
1FFFFFFFF0
3FFFFFFFF0
3FFFFFFFF8
7FFFFFFFF8
7FFF03FFF8
7FFE00FFFC
FFFC007FFC
FFF8007FFC
FFF8003FFC
FFF0003FFC
FFF0003FFC
FFF0003FFC
FFF0003FFE
FFF0003FFE
FFF8003FFE
FFF8003FFE
FFFC003FFE
7FFC003FFE
7FFF00BFFE
7FFFFFBFFE
3FFFFFBFFE
3FFFFFBFFE
1FFFFFBFFE
1FFFFFBFFE
0FFFFFBFFE
07FFFFBFFE
03FFFFBFFE
01FFFFBFFE
00FFFFBFFE
003FFFBFFE
000FFFBFFE
0000500000
ENDCHAR
STARTCHAR 00E3
ENCODING 227
SWIDTH 552 0
DWIDTH 43 0
BBX 39 56 2 -1
BITMAP
0000000F00
0003001F00
000FF83E00
001FFFFE00
003FFFFC00
007FFFFC00
007FFFF800
007EFFF000
00F80FE000
00F0000000
0000000000
0000000000
0000000000
0000000000
0000000000
0000000000
0007FF8000
001FFFF000
007FFFF800
01FFFFFE00
03FFFFFF00
07FFFFFF80
0FFFFFFFC0
1FFFFFFFE0
1FFFFFFFF0
3FFFFFFFF0
3FFFFFFFF8
7FFFFFFFF8
7FFF03FFF8
7FFE00FFFC
FFFC007FFC
FFF8007FFC
FFF8003FFC
FFF0003FFC
FFF0003FFC
FFF0003FFC
FFF0003FFE
FFF0003FFE
FFF8003FFE
FFF8003FFE
FFFC003FFE
7FFC003FFE
7FFF00BFFE
7FFFFFBFFE
3FFFFFBFFE
3FFFFFBFFE
1FFFFFBFFE
1FFFFFBFFE
0FFFFFBFFE
07FFFFBFFE
03FFFFBFFE
01FFFFBFFE
00FFFFBFFE
003FFFBFFE
000FFFBFFE
0000500000
ENDCHAR
STARTCHAR 00E4
ENCODING 228
SWIDTH 552 0
DWIDTH 43 0
BBX 39 56 2 -1
BITMAP
000C003000
003F01FC00
007F83FE00
007FC3FE00
00FFC3FE00
00FFC3FE00
00FFC3FE00
007FC3FE00
007F81FC00
001F00F800
0000000000
0000000000
0000000000
0000000000
0000000000
0000000000
0007FF8000
001FFFF000
007FFFF800
01FFFFFE00
03FFFFFF00
07FFFFFF80
0FFFFFFFC0
1FFFFFFFE0
1FFFFFFFF0
3FFFFFFFF0
3FFFFFFFF8
7FFFFFFFF8
7FFF03FFF8
7FFE00FFFC
FFFC007FFC
FFF8007FFC
FFF8003FFC
FFF0003FFC
FFF0003FFC
FFF0003FFC
FFF0003FFE
FFF0003FFE
FFF8003FFE
FFF8003FFE
FFFC003FFE
7FFC003FFE
7FFF00BFFE
7FFFFFBFFE
3FFFFFBFFE
3FFFFFBFFE
1FFFFFBFFE
1FFFFFBFFE
0FFFFFBFFE
07FFFFBFFE
03FFFFBFFE
01FFFFBFFE
00FFFFBFFE
003FFFBFFE
000FFFBFFE
0000500000
ENDCHAR
STARTCHAR 00E5
ENCODING 229
SWIDTH 552 0
DWIDTH 43 0
BBX 39 63 2 -1
BITMAP
00007F0000
0001FFC000
0003FFE000
0007FFF000
000FFFF800
000FFFFC00
001FC0FC00
001F807C00
001F007E00
001F007E00
001F007E00
001F007E00
001F807E00
001F80FC00
000FE3FC00
000FFFF800
0007FFF800
0003FFF000
0001FFE000
00007F8000
0000000000
0000000000
0000000000
0007FF8000
001FFFF000
007FFFF800
01FFFFFE00
03FFFFFF00
07FFFFFF80
0FFFFFFFC0
1FFFFFFFE0
1FFFFFFFF0
3FFFFFFFF0
3FFFFFFFF8
7FFFFFFFF8
7FFF03FFF8
7FFE00FFFC
FFFC007FFC
FFF8007FFC
FFF8003FFC
FFF0003FFC
FFF0003FFC
FFF0003FFC
FFF0003FFE
FFF0003FFE
FFF8003FFE
FFF8003FFE
FFFC003FFE
7FFC003FFE
7FFF00BFFE
7FFFFFBFFE
3FFFFFBFFE
3FFFFFBFFE
1FFFFFBFFE
1FFFFFBFFE
0FFFFFBFFE
07FFFFBFFE
03FFFFBFFE
01FFFFBFFE
00FFFFBFFE
003FFFBFFE
000FFFBFFE
0000500000
ENDCHAR
STARTCHAR 00E6
ENCODING 230
SWIDTH 835 0
DWIDTH 65 0
BBX 63 40 1 -1
BITMAP
003FFE0003FFC000
03FFFF800FFFF000
1FFFFFE03FFFFC00
3FFFFFF0FFFFFE00
3FFFFFF9FFFFFF80
1FFFFFFFFFFFFFC0
1FFFFFFFFFFFFFC0
0FFFFFFFFFFFFFE0
0FFFFFFFFFFFFFF0
07F01FFFFFE7FFF8
078007FFFF00FFF8
040003FFFE003FFC
000003FFFC00FFFC
00003FFFF803FFFC
0003FFFFF01FFFFE
001FFFFFF07FFFFC
00FFFFFFF1FFFFF0
01FFFFFFE0FFFFC0
07FFFFFFE0FFFE00
0FFFFFFFE0FFF800
1FFFFCFFE07FE000
3FFFC0FFE07F8000
7FFE00FFF03E0000
7FF800FFF0300380
FFF001FFF80007C0
FFF001FFF8000FF0
FFE001FFFC001FF8
FFF003FFFE007FFE
FFF007FFFFC3FFFE
FFF81FFFFFFFFFFC
FFFFFFFFFFFFFFFC
FFFFFFFFFFFFFFF8
7FFFFFFFFFFFFFF0
7FFFFFFBFFFFFFE0
3FFFFFF1FFFFFFC0
1FFFFFC0FFFFFF80
0FFFFF807FFFFE00
07FFFE001FFFF800
01FFF80007FFE000
001C0000005C0000
ENDCHAR
STARTCHAR 00E7
ENCODING 231
SWIDTH 385 0
DWIDTH 30 0
BBX 27 57 2 -18
BITMAP
000003E0
0003FFE0
001FFFE0
007FFFE0
00FFFFE0
03FFFFE0
07FFFFE0
0FFFFFE0
1FFFFFE0
1FFFFFE0
3FFFFFE0
3FFFFFE0
7FFFE000
7FFF0000
7FFE0000
FFFC0000
FFF80000
FFF80000
FFF00000
FFF00000
FFF00000
FFF00000
FFF80000
FFF80000
FFFC0000
7FFE0000
7FFF8000
7FFFFFE0
3FFFFFE0
3FFFFFE0
1FFFFFE0
0FFFFFE0
07FFFFE0
03FFFFE0
01FFFFE0
007FFFE0
003FFFE0
0007FFE0
0001FFE0
0003C000
0003C000
0003C000
0003C000
0003FE00
0007FF80
0007FFC0
0007FFC0
00001FE0
00000FE0
00000FE0
00000FE0
01801FE0
01FFFFC0
01FFFFC0
01FFFF80
01FFFF00
003FFC00
ENDCHAR
STARTCHAR 00E8
ENCODING 232
SWIDTH 552 0
DWIDTH 43 0
BBX 40 58 2 -1
BITMAP
007FC00000
003FE00000
003FE00000
001FF00000
000FF80000
0007F80000
0003FC0000
0001FC0000
0001FE0000
0000FE0000
00007F0000
00003F0000
00001F8000
00000F8000
0000000000
0000000000
0000000000
0000000000
0003FF8000
001FFFF000
007FFFF800
00FFFFFE00
01FFFFFF00
03FFFFFF80
07FFFFFFC0
0FFFFFFFE0
1FFFFFFFF0
1FFFC3FFF0
3FFF00FFF8
3FFC01FFF8
7FFC07FFF8
7FF80FFFE0
7FF01FFFC0
FFF07FFF00
FFF0FFFE00
FFF3FFF800
FFF1FFF000
FFF0FFC000
FFF0FF8100
FFF07F03C0
FFF03C03F0
FFF83807FC
FFF8000FFF
7FFC001FFF
7FFE003FFF
7FFF80FFFE
3FFFFFFFFC
3FFFFFFFFC
1FFFFFFFF8
0FFFFFFFF0
0FFFFFFFE0
07FFFFFFE0
03FFFFFF80
01FFFFFF00
007FFFFE00
003FFFF800
0007FFE000
00007C0000
ENDCHAR
STARTCHAR 00E9
ENCODING 233
SWIDTH 552 0
DWIDTH 43 0
BBX 40 58 2 -1
BITMAP
000007FC00
00000FFC00
00000FF800
00001FF000
00001FE000
00003FC000
00007F8000
00007F0000
0000FF0000
0000FE0000
0001FC0000
0001F80000
0003F00000
0003E00000
0000000000
0000000000
0000000000
0000000000
0003FF8000
001FFFF000
007FFFF800
00FFFFFE00
01FFFFFF00
03FFFFFF80
07FFFFFFC0
0FFFFFFFE0
1FFFFFFFF0
1FFFC3FFF0
3FFF00FFF8
3FFC01FFF8
7FFC07FFF8
7FF80FFFE0
7FF01FFFC0
FFF07FFF00
FFF0FFFE00
FFF3FFF800
FFF1FFF000
FFF0FFC000
FFF0FF8100
FFF07F03C0
FFF03C03F0
FFF83807FC
FFF8000FFF
7FFC001FFF
7FFE003FFF
7FFF80FFFE
3FFFFFFFFC
3FFFFFFFFC
1FFFFFFFF8
0FFFFFFFF0
0FFFFFFFE0
07FFFFFFE0
03FFFFFF80
01FFFFFF00
007FFFFE00
003FFFF800
0007FFE000
00007C0000
ENDCHAR
STARTCHAR 00EA
ENCODING 234
SWIDTH 552 0
DWIDTH 43 0
BBX 40 58 2 -1
BITMAP
0001FF0000
0003FF8000
0003FF8000
0007FFC000
0007FFC000
000FFFE000
000FEFE000
001FC7F000
001F83F000
003F83F800
003F01FC00
007E00FC00
00FC007E00
00F8003E00
0000000000
0000000000
0000000000
0000000000
0003FF8000
001FFFF000
007FFFF800
00FFFFFE00
01FFFFFF00
03FFFFFF80
07FFFFFFC0
0FFFFFFFE0
1FFFFFFFF0
1FFFC3FFF0
3FFF00FFF8
3FFC01FFF8
7FFC07FFF8
7FF80FFFE0
7FF01FFFC0
FFF07FFF00
FFF0FFFE00
FFF3FFF800
FFF1FFF000
FFF0FFC000
FFF0FF8100
FFF07F03C0
FFF03C03F0
FFF83807FC
FFF8000FFF
7FFC001FFF
7FFE003FFF
7FFF80FFFE
3FFFFFFFFC
3FFFFFFFFC
1FFFFFFFF8
0FFFFFFFF0
0FFFFFFFE0
07FFFFFFE0
03FFFFFF80
01FFFFFF00
007FFFFE00
003FFFF800
0007FFE000
00007C0000
ENDCHAR
STARTCHAR 00EB
ENCODING 235
SWIDTH 552 0
DWIDTH 43 0
BBX 40 56 2 -1
BITMAP
000C006000
003F01F800
007F83FC00
00FFC3FE00
00FFC7FE00
00FFC7FE00
00FFC7FE00
00FF83FE00
007F83FC00
003F00F800
0000000000
0000000000
0000000000
0000000000
0000000000
0000000000
0003FF8000
001FFFF000
007FFFF800
00FFFFFE00
01FFFFFF00
03FFFFFF80
07FFFFFFC0
0FFFFFFFE0
1FFFFFFFF0
1FFFC3FFF0
3FFF00FFF8
3FFC01FFF8
7FFC07FFF8
7FF80FFFE0
7FF01FFFC0
FFF07FFF00
FFF0FFFE00
FFF3FFF800
FFF1FFF000
FFF0FFC000
FFF0FF8100
FFF07F03C0
FFF03C03F0
FFF83807FC
FFF8000FFF
7FFC001FFF
7FFE003FFF
7FFF80FFFE
3FFFFFFFFC
3FFFFFFFFC
1FFFFFFFF8
0FFFFFFFF0
0FFFFFFFE0
07FFFFFFE0
03FFFFFF80
01FFFFFF00
007FFFFE00
003FFFF800
0007FFE000
00007C0000
ENDCHAR
STARTCHAR 00EC
ENCODING 236
SWIDTH 244 0
DWIDTH 19 0
BBX 17 57 -1 0
BITMAP
FFC000
7FC000
3FE000
3FE000
1FF000
0FF000
07F800
03F800
01FC00
01FC00
00FE00
007E00
003F00
001F00
000000
000000
000000
000000
07FF80
07FF80
07FF80
07FF80
07FF80
07FF80
07FF80
07FF80
07FF80
07FF80
07FF80
07FF80
07FF80
07FF80
07FF80
07FF80
07FF80
07FF80
07FF80
07FF80
07FF80
07FF80
07FF80
07FF80
07FF80
07FF80
07FF80
07FF80
07FF80
07FF80
07FF80
07FF80
07FF80
07FF80
07FF80
07FF80
07FF80
07FF80
07FF80
ENDCHAR
STARTCHAR 00ED
ENCODING 237
SWIDTH 244 0
DWIDTH 19 0
BBX 17 57 4 0
BITMAP
01FF80
03FF00
03FE00
07FC00
07F800
0FF000
0FF000
1FE000
1FC000
3F8000
3F0000
7E0000
FC0000
FC0000
000000
000000
000000
000000
FFF000
FFF000
FFF000
FFF000
FFF000
FFF000
FFF000
FFF000
FFF000
FFF000
FFF000
FFF000
FFF000
FFF000
FFF000
FFF000
FFF000
FFF000
FFF000
FFF000
FFF000
FFF000
FFF000
FFF000
FFF000
FFF000
FFF000
FFF000
FFF000
FFF000
FFF000
FFF000
FFF000
FFF000
FFF000
FFF000
FFF000
FFF000
FFF000
ENDCHAR
STARTCHAR 00EE
ENCODING 238
SWIDTH 244 0
DWIDTH 19 0
BBX 23 57 -2 0
BITMAP
01FF00
03FF80
03FFC0
07FFC0
07FFE0
0FFFE0
0FEFF0
1FC7F0
1FC3F8
3F81F8
3F01FC
7E00FC
7C007E
FC003E
000000
000000
000000
000000
03FFC0
03FFC0
03FFC0
03FFC0
03FFC0
03FFC0
03FFC0
03FFC0
03FFC0
03FFC0
03FFC0
03FFC0
03FFC0
03FFC0
03FFC0
03FFC0
03FFC0
03FFC0
03FFC0
03FFC0
03FFC0
03FFC0
03FFC0
03FFC0
03FFC0
03FFC0
03FFC0
03FFC0
03FFC0
03FFC0
03FFC0
03FFC0
03FFC0
03FFC0
03FFC0
03FFC0
03FFC0
03FFC0
03FFC0
ENDCHAR
STARTCHAR 00EF
ENCODING 239
SWIDTH 244 0
DWIDTH 19 0
BBX 23 55 -2 0
BITMAP
0E0060
3F01FC
7F83FE
FFC3FE
FFC7FE
FFC7FE
FFC3FE
7FC3FE
7F81FC
3F00F8
000000
000000
000000
000000
000000
000000
03FFC0
03FFC0
03FFC0
03FFC0
03FFC0
03FFC0
03FFC0
03FFC0
03FFC0
03FFC0
03FFC0
03FFC0
03FFC0
03FFC0
03FFC0
03FFC0
03FFC0
03FFC0
03FFC0
03FFC0
03FFC0
03FFC0
03FFC0
03FFC0
03FFC0
03FFC0
03FFC0
03FFC0
03FFC0
03FFC0
03FFC0
03FFC0
03FFC0
03FFC0
03FFC0
03FFC0
03FFC0
03FFC0
03FFC0
ENDCHAR
STARTCHAR 00F0
ENCODING 240
SWIDTH 527 0
DWIDTH 41 0
BBX 38 55 2 -1
BITMAP
00FFF00000
007FF80800
007FF87800
003FFFFC00
003FFFFC00
001FFFFE00
000FFFFE00
003FFFF800
01FFFFC000
03FFFFC000
03FFFFC000
01FFFFE000
01FDFFF000
01E0FFF000
0080FFF800
00007FFC00
00007FFC00
00013FFE00
001F1FFF00
007F9FFF00
01FFCFFF80
03FFCFFFC0
07FFE7FFC0
0FFFE3FFE0
1FFFF3FFE0
1FFFF9FFF0
3FFFF9FFF0
7FFFECFFF0
7FFE00FFF8
7FFC007FF8
FFFC007FF8
FFF8007FF8
FFF8003FF8
FFF0003FFC
FFF0003FFC
FFF0003FFC
FFF0003FFC
FFF0003FF8
FFF0007FF8
FFF8007FF8
7FFC00FFF8
7FFE01FFF8
7FFF87FFF0
3FFFFFFFF0
3FFFFFFFE0
1FFFFFFFE0
1FFFFFFFC0
0FFFFFFFC0
07FFFFFF80
03FFFFFF00
01FFFFFE00
00FFFFFC00
003FFFF000
000FFFC000
0001FE0000
ENDCHAR
STARTCHAR 00F1
ENCODING 241
SWIDTH 527 0
DWIDTH 41 0
BBX 35 55 3 0
BITMAP
0000003C00
000C007C00
003FE0F800
007FFFF800
00FFFFF000
01FFFFF000
01FFFFE000
01FBFFC000
03E03F8000
03C0000000
0000000000
0000000000
0000000000
0000000000
0000000000
0000000000
000FFE0000
003FFFC000
00FFFFE000
01FFFFF800
07FFFFFC00
07FFFFFE00
0FFFFFFF00
1FFFFFFF80
1FFFFFFF80
3FFFFFFFC0
3FFFFFFFC0
7FFFFFFFC0
7FFC07FFE0
7FF803FFE0
7FF801FFE0
FFF001FFE0
FFF001FFE0
FFF001FFE0
FFF001FFE0
FFF001FFE0
FFF001FFE0
FFF001FFE0
FFF001FFE0
FFF001FFE0
FFF001FFE0
FFF001FFE0
FFF001FFE0
FFF001FFE0
FFF001FFE0
FFF001FFE0
FFF001FFE0
FFF001FFE0
FFF001FFE0
FFF001FFE0
FFF001FFE0
FFF001FFE0
FFF001FFE0
FFF001FFE0
FFF001FFE0
ENDCHAR
STARTCHAR 00F2
ENCODING 242
SWIDTH 540 0
DWIDTH 42 0
BBX 39 58 2 -1
BITMAP
007FC00000
007FE00000
003FE00000
001FF00000
000FF00000
0007F80000
0003F80000
0001FC0000
0001FE0000
0000FE0000
00007F0000
00003F0000
00001F8000
00000F8000
0000000000
0000000000
0000000000
0000000000
0003FF8000
001FFFF000
007FFFF800
00FFFFFE00
01FFFFFF00
03FFFFFF80
07FFFFFFC0
0FFFFFFFE0
1FFFFFFFF0
1FFFFFFFF0
3FFFFFFFF8
3FFFFFFFF8
7FFF03FFFC
7FFE00FFFC
7FFC007FFC
FFF8007FFC
FFF8003FFE
FFF8003FFE
FFF0003FFE
FFF0003FFE
FFF0003FFE
FFF8003FFE
FFF8003FFE
FFF8003FFE
FFFC007FFC
7FFE00FFFC
7FFF01FFFC
7FFFFFFFF8
3FFFFFFFF8
3FFFFFFFF0
1FFFFFFFF0
0FFFFFFFE0
0FFFFFFFC0
07FFFFFFC0
03FFFFFF80
01FFFFFE00
007FFFFC00
003FFFF000
0007FFC000
0000780000
ENDCHAR
STARTCHAR 00F3
ENCODING 243
SWIDTH 540 0
DWIDTH 42 0
BBX 39 58 2 -1
BITMAP
000007FC00
00000FF800
00000FF800
00001FF000
00003FE000
00003FC000
00007F8000
00007F0000
0000FF0000
0000FE0000
0001FC0000
0001F80000
0003F00000
0003E00000
0000000000
0000000000
0000000000
0000000000
0003FF8000
001FFFF000
007FFFF800
00FFFFFE00
01FFFFFF00
03FFFFFF80
07FFFFFFC0
0FFFFFFFE0
1FFFFFFFF0
1FFFFFFFF0
3FFFFFFFF8
3FFFFFFFF8
7FFF03FFFC
7FFE00FFFC
7FFC007FFC
FFF8007FFC
FFF8003FFE
FFF8003FFE
FFF0003FFE
FFF0003FFE
FFF0003FFE
FFF8003FFE
FFF8003FFE
FFF8003FFE
FFFC007FFC
7FFE00FFFC
7FFF01FFFC
7FFFFFFFF8
3FFFFFFFF8
3FFFFFFFF0
1FFFFFFFF0
0FFFFFFFE0
0FFFFFFFC0
07FFFFFFC0
03FFFFFF80
01FFFFFE00
007FFFFC00
003FFFF000
0007FFC000
0000780000
ENDCHAR
STARTCHAR 00F4
ENCODING 244
SWIDTH 540 0
DWIDTH 42 0
BBX 39 58 2 -1
BITMAP
0001FF0000
0003FF8000
0003FF8000
0007FFC000
0007FFC000
000FFFE000
000FEFE000
001FC7F000
001F83F000
003F83F800
007F01F800
007E00FC00
00FC007E00
00F8007E00
0000000000
0000000000
0000000000
0000000000
0003FF8000
001FFFF000
007FFFF800
00FFFFFE00
01FFFFFF00
03FFFFFF80
07FFFFFFC0
0FFFFFFFE0
1FFFFFFFF0
1FFFFFFFF0
3FFFFFFFF8
3FFFFFFFF8
7FFF03FFFC
7FFE00FFFC
7FFC007FFC
FFF8007FFC
FFF8003FFE
FFF8003FFE
FFF0003FFE
FFF0003FFE
FFF0003FFE
FFF8003FFE
FFF8003FFE
FFF8003FFE
FFFC007FFC
7FFE00FFFC
7FFF01FFFC
7FFFFFFFF8
3FFFFFFFF8
3FFFFFFFF0
1FFFFFFFF0
0FFFFFFFE0
0FFFFFFFC0
07FFFFFFC0
03FFFFFF80
01FFFFFE00
007FFFFC00
003FFFF000
0007FFC000
0000780000
ENDCHAR
STARTCHAR 00F5
ENCODING 245
SWIDTH 540 0
DWIDTH 42 0
BBX 39 56 2 -1
BITMAP
0000001E00
0003001E00
000FF03E00
003FFFFC00
003FFFFC00
007FFFFC00
007FFFF800
00FCFFF000
00F80FE000
00F0000000
0000000000
0000000000
0000000000
0000000000
0000000000
0000000000
0003FF8000
001FFFF000
007FFFF800
00FFFFFE00
01FFFFFF00
03FFFFFF80
07FFFFFFC0
0FFFFFFFE0
1FFFFFFFF0
1FFFFFFFF0
3FFFFFFFF8
3FFFFFFFF8
7FFF03FFFC
7FFE00FFFC
7FFC007FFC
FFF8007FFC
FFF8003FFE
FFF8003FFE
FFF0003FFE
FFF0003FFE
FFF0003FFE
FFF8003FFE
FFF8003FFE
FFF8003FFE
FFFC007FFC
7FFE00FFFC
7FFF01FFFC
7FFFFFFFF8
3FFFFFFFF8
3FFFFFFFF0
1FFFFFFFF0
0FFFFFFFE0
0FFFFFFFC0
07FFFFFFC0
03FFFFFF80
01FFFFFE00
007FFFFC00
003FFFF000
0007FFC000
0000780000
ENDCHAR
STARTCHAR 00F6
ENCODING 246
SWIDTH 540 0
DWIDTH 42 0
BBX 39 56 2 -1
BITMAP
000C007000
003F01F800
007F83FC00
00FF87FE00
00FFC7FE00
00FFC7FE00
00FFC7FE00
00FF83FE00
007F83FC00
003E01F800
0000000000
0000000000
0000000000
0000000000
0000000000
0000000000
0003FF8000
001FFFF000
007FFFF800
00FFFFFE00
01FFFFFF00
03FFFFFF80
07FFFFFFC0
0FFFFFFFE0
1FFFFFFFF0
1FFFFFFFF0
3FFFFFFFF8
3FFFFFFFF8
7FFF03FFFC
7FFE00FFFC
7FFC007FFC
FFF8007FFC
FFF8003FFE
FFF8003FFE
FFF0003FFE
FFF0003FFE
FFF0003FFE
FFF8003FFE
FFF8003FFE
FFF8003FFE
FFFC007FFC
7FFE00FFFC
7FFF01FFFC
7FFFFFFFF8
3FFFFFFFF8
3FFFFFFFF0
1FFFFFFFF0
0FFFFFFFE0
0FFFFFFFC0
07FFFFFFC0
03FFFFFF80
01FFFFFE00
007FFFFC00
003FFFF000
0007FFC000
0000780000
ENDCHAR
STARTCHAR 00F7
ENCODING 247
SWIDTH 822 0
DWIDTH 64 0
BBX 45 43 10 2
BITMAP
00000F000000
00001FC00000
00007FE00000
00007FF00000
0000FFF00000
0000FFF80000
0000FFF80000
0000FFF80000
0000FFF00000
00007FF00000
00003FE00000
00001FC00000
000002000000
000000000000
000000000000
000000000000
000000000000
FFFFFFFFFFF8
FFFFFFFFFFF8
FFFFFFFFFFF8
FFFFFFFFFFF8
FFFFFFFFFFF8
FFFFFFFFFFF8
FFFFFFFFFFF8
FFFFFFFFFFF8
FFFFFFFFFFF8
000000000000
000000000000
000000000000
000000000000
000000000000
00000F800000
00003FE00000
00007FE00000
00007FF00000
0000FFF00000
0000FFF80000
0000FFF80000
0000FFF80000
00007FF00000
00007FF00000
00003FE00000
00001FC00000
ENDCHAR
STARTCHAR 00F8
ENCODING 248
SWIDTH 540 0
DWIDTH 42 0
BBX 40 46 1 -4
BITMAP
0000000030
0000000078
00000000FC
0001FFC0FF
000FFFF1FF
003FFFFFFE
007FFFFFFC
00FFFFFFFC
01FFFFFFF8
03FFFFFFF0
07FFFFFFF0
0FFFFFFFF8
0FFFFFFFF8
1FFFFFFFFC
1FFFC1FFFC
3FFF03FFFE
3FFE07FFFE
3FFC07FFFE
7FFC0FFFFE
7FF81FEFFF
7FF83FCFFF
7FF87F8FFF
7FF87F0FFF
7FF8FF0FFF
7FF9FE0FFF
7FFBFC0FFF
7FFFF81FFF
3FFFF01FFE
3FFFF03FFE
3FFFE07FFE
3FFFC0FFFE
1FFFFFFFFC
1FFFFFFFFC
0FFFFFFFF8
07FFFFFFF0
07FFFFFFF0
0FFFFFFFE0
1FFFFFFFC0
1FFFFFFF80
3FFFFFFE00
7FDFFFFC00
FF83FFE000
3F801C0000
1F00000000
0E00000000
0400000000
ENDCHAR
STARTCHAR 00F9
ENCODING 249
SWIDTH 527 0
DWIDTH 41 0
BBX 35 58 3 -1
BITMAP
01FF800000
00FF800000
007FC00000
003FC00000
003FE00000
001FE00000
000FF00000
0007F00000
0003F80000
0001F80000
0001FC0000
0000FE0000
00007E0000
00003F0000
0000000000
0000000000
0000000000
0000000000
FFF001FFE0
FFF001FFE0
FFF001FFE0
FFF001FFE0
FFF001FFE0
FFF001FFE0
FFF001FFE0
FFF001FFE0
FFF001FFE0
FFF001FFE0
FFF001FFE0
FFF001FFE0
FFF001FFE0
FFF001FFE0
FFF001FFE0
FFF001FFE0
FFF001FFE0
FFF001FFE0
FFF001FFE0
FFF001FFE0
FFF001FFE0
FFF001FFE0
FFF001FFE0
FFF001FFE0
FFF801FFE0
7FF803FFE0
7FFC03FFE0
7FFE0FFFC0
7FFFFFFFC0
3FFFFFFFC0
3FFFFFFF80
1FFFFFFF80
1FFFFFFF00
0FFFFFFE00
07FFFFFC00
03FFFFF800
01FFFFF000
007FFFE000
001FFF8000
0001F00000
ENDCHAR
STARTCHAR 00FA
ENCODING 250
SWIDTH 527 0
DWIDTH 41 0
BBX 35 58 3 -1
BITMAP
00001FF800
00003FF000
00003FE000
00007FC000
00007F8000
0000FF0000
0000FF0000
0001FE0000
0001FC0000
0003F80000
0003F00000
0007E00000
0007E00000
000FC00000
0000000000
0000000000
0000000000
0000000000
FFF001FFE0
FFF001FFE0
FFF001FFE0
FFF001FFE0
FFF001FFE0
FFF001FFE0
FFF001FFE0
FFF001FFE0
FFF001FFE0
FFF001FFE0
FFF001FFE0
FFF001FFE0
FFF001FFE0
FFF001FFE0
FFF001FFE0
FFF001FFE0
FFF001FFE0
FFF001FFE0
FFF001FFE0
FFF001FFE0
FFF001FFE0
FFF001FFE0
FFF001FFE0
FFF001FFE0
FFF801FFE0
7FF803FFE0
7FFC03FFE0
7FFE0FFFC0
7FFFFFFFC0
3FFFFFFFC0
3FFFFFFF80
1FFFFFFF80
1FFFFFFF00
0FFFFFFE00
07FFFFFC00
03FFFFF800
01FFFFF000
007FFFE000
001FFF8000
0001F00000
ENDCHAR
STARTCHAR 00FB
ENCODING 251
SWIDTH 527 0
DWIDTH 41 0
BBX 35 58 3 -1
BITMAP
0007FE0000
0007FE0000
000FFF0000
000FFF0000
001FFF8000
003FFF8000
003FBFC000
007F9FC000
007F0FE000
00FE07E000
00FC07F000
01F803F000
01F801F800
03F000F800
0000000000
0000000000
0000000000
0000000000
FFF001FFE0
FFF001FFE0
FFF001FFE0
FFF001FFE0
FFF001FFE0
FFF001FFE0
FFF001FFE0
FFF001FFE0
FFF001FFE0
FFF001FFE0
FFF001FFE0
FFF001FFE0
FFF001FFE0
FFF001FFE0
FFF001FFE0
FFF001FFE0
FFF001FFE0
FFF001FFE0
FFF001FFE0
FFF001FFE0
FFF001FFE0
FFF001FFE0
FFF001FFE0
FFF001FFE0
FFF801FFE0
7FF803FFE0
7FFC03FFE0
7FFE0FFFC0
7FFFFFFFC0
3FFFFFFFC0
3FFFFFFF80
1FFFFFFF80
1FFFFFFF00
0FFFFFFE00
07FFFFFC00
03FFFFF800
01FFFFF000
007FFFE000
001FFF8000
0001F00000
ENDCHAR
STARTCHAR 00FC
ENCODING 252
SWIDTH 527 0
DWIDTH 41 0
BBX 35 56 3 -1
BITMAP
003000C000
00FC07F000
01FE0FF800
01FF0FF800
03FF0FF800
03FF0FF800
03FF0FF800
01FF0FF800
01FE07F000
007C03E000
0000000000
0000000000
0000000000
0000000000
0000000000
0000000000
FFF001FFE0
FFF001FFE0
FFF001FFE0
FFF001FFE0
FFF001FFE0
FFF001FFE0
FFF001FFE0
FFF001FFE0
FFF001FFE0
FFF001FFE0
FFF001FFE0
FFF001FFE0
FFF001FFE0
FFF001FFE0
FFF001FFE0
FFF001FFE0
FFF001FFE0
FFF001FFE0
FFF001FFE0
FFF001FFE0
FFF001FFE0
FFF001FFE0
FFF001FFE0
FFF001FFE0
FFF801FFE0
7FF803FFE0
7FFC03FFE0
7FFE0FFFC0
7FFFFFFFC0
3FFFFFFFC0
3FFFFFFF80
1FFFFFFF80
1FFFFFFF00
0FFFFFFE00
07FFFFFC00
03FFFFF800
01FFFFF000
007FFFE000
001FFF8000
0001F00000
ENDCHAR
STARTCHAR 00FD
ENCODING 253
SWIDTH 527 0
DWIDTH 41 0
BBX 35 74 3 -17
BITMAP
00001FF800
00003FF000
00003FE000
00007FC000
00007F8000
0000FF0000
0000FF0000
0001FE0000
0001FC0000
0003F80000
0003F00000
0007E00000
0007E00000
000FC00000
0000000000
0000000000
0000000000
0000000000
FFF001FFE0
FFF001FFE0
FFF001FFE0
FFF001FFE0
FFF001FFE0
FFF001FFE0
FFF001FFE0
FFF001FFE0
FFF001FFE0
FFF001FFE0
FFF001FFE0
FFF001FFE0
FFF001FFE0
FFF001FFE0
FFF001FFE0
FFF001FFE0
FFF001FFE0
FFF001FFE0
FFF001FFE0
FFF001FFE0
FFF001FFE0
FFF001FFE0
FFF001FFE0
FFF001FFE0
FFF001FFE0
FFF801FFE0
7FFC03FFE0
7FFE07FFE0
7FFFFFFFC0
3FFFFFFFC0
3FFFFFFF80
1FFFFFFF80
1FFFFFFF00
0FFFFFFE00
07FFFFFE00
03FFFFFC00
01FFFFF000
007FFFE000
003FFF8000
000FFF0000
000FFF0000
000FFF0000
000FFF0000
000FFF0000
000FFF0000
000FFF0000
000FFF0000
000FFF0000
000FFF0000
000FFF0000
000FFF0000
000FFF0000
000FFF0000
000FFF0000
000FFF0000
000FFF0000
ENDCHAR
STARTCHAR 00FE
ENCODING 254
SWIDTH 552 0
DWIDTH 43 0
BBX 39 71 3 -17
BITMAP
FFF0000000
FFF0000000
FFF0000000
FFF0000000
FFF0000000
FFF0000000
FFF0000000
FFF0000000
FFF0000000
FFF0000000
FFF0000000
FFF0000000
FFF0000000
FFF0000000
FFF0000000
FFF3FF8000
FFFFFFF000
FFFFFFFC00
FFFFFFFE00
FFFFFFFF00
FFFFFFFF80
FFFFFFFFC0
FFFFFFFFE0
FFFFFFFFF0
FFFFFFFFF0
FFFFFFFFF8
FFFFFFFFF8
FFFF83FFFC
FFFE00FFFC
FFFC007FFC
FFF8007FFC
FFF8003FFE
FFF8003FFE
FFF0003FFE
FFF0003FFE
FFF0003FFE
FFF0003FFE
FFF0003FFE
FFF0003FFC
FFF0007FFC
FFF000FFFC
FFF201FFFC
FFF3FFFFF8
FFF3FFFFF8
FFF3FFFFF8
FFF3FFFFF0
FFF3FFFFE0
FFF3FFFFE0
FFF3FFFFC0
FFF3FFFF80
FFF3FFFF00
FFF3FFFC00
FFF3FFF000
FFF3FFC000
FFF0100000
FFF0000000
FFF0000000
FFF0000000
FFF0000000
FFF0000000
FFF0000000
FFF0000000
FFF0000000
FFF0000000
FFF0000000
FFF0000000
FFF0000000
FFF0000000
FFF0000000
FFF0000000
FFF0000000
ENDCHAR
STARTCHAR 00FF
ENCODING 255
SWIDTH 527 0
DWIDTH 41 0
BBX 35 72 3 -17
BITMAP
003000C000
00FC07F000
01FE0FF800
01FF0FF800
03FF0FF800
03FF0FF800
03FF0FF800
01FF0FF800
01FE07F000
007C03E000
0000000000
0000000000
0000000000
0000000000
0000000000
0000000000
FFF001FFE0
FFF001FFE0
FFF001FFE0
FFF001FFE0
FFF001FFE0
FFF001FFE0
FFF001FFE0
FFF001FFE0
FFF001FFE0
FFF001FFE0
FFF001FFE0
FFF001FFE0
FFF001FFE0
FFF001FFE0
FFF001FFE0
FFF001FFE0
FFF001FFE0
FFF001FFE0
FFF001FFE0
FFF001FFE0
FFF001FFE0
FFF001FFE0
FFF001FFE0
FFF001FFE0
FFF001FFE0
FFF801FFE0
7FFC03FFE0
7FFE07FFE0
7FFFFFFFC0
3FFFFFFFC0
3FFFFFFF80
1FFFFFFF80
1FFFFFFF00
0FFFFFFE00
07FFFFFE00
03FFFFFC00
01FFFFF000
007FFFE000
003FFF8000
000FFF0000
000FFF0000
000FFF0000
000FFF0000
000FFF0000
000FFF0000
000FFF0000
000FFF0000
000FFF0000
000FFF0000
000FFF0000
000FFF0000
000FFF0000
000FFF0000
000FFF0000
000FFF0000
000FFF0000
ENDCHAR
STARTCHAR 0102
ENCODING 258
SWIDTH 617 0
DWIDTH 48 0
BBX 41 70 4 0
BITMAP
0078001F0000
007C001F0000
007C001F0000
007E003E0000
003F007E0000
003FFFFE0000
003FFFFC0000
001FFFFC0000
000FFFF80000
0007FFE00000
0001FFC00000
000000000000
000000000000
000000000000
000000000000
0003FFE00000
001FFFF80000
007FFFFE0000
00FFFFFF8000
01FFFFFFC000
03FFFFFFE000
07FFFFFFF000
0FFFFFFFF800
1FFFFFFFF800
1FFFFFFFFC00
3FFFFFFFFC00
3FFFFFFFFE00
7FFFFFFFFE00
7FFF81FFFF00
7FFF007FFF00
FFFE003FFF00
FFFC003FFF00
FFFC001FFF80
FFF8001FFF80
FFF8001FFF80
FFF8000FFF80
FFF8000FFF80
FFF9FFFFFF80
FFF9FFFFFF80
FFF9FFFFFF80
FFF9FFFFFF80
FFF9FFFFFF80
FFF9FFFFFF80
FFF9FFFFFF80
FFF9FFFFFF80
FFF9FFFFFF80
FFF9FFFFFF80
FFF9FFFFFF80
FFF9FFFFFF80
FFF9FFFFFF80
FFF8000FFF80
FFF8000FFF80
FFF8000FFF80
FFF8000FFF80
FFF8000FFF80
FFF8000FFF80
FFF8000FFF80
FFF8000FFF80
FFF8000FFF80
FFF8000FFF80
FFF8000FFF80
FFF8000FFF80
FFF8000FFF80
FFF8000FFF80
FFF8000FFF80
FFF8000FFF80
FFF8000FFF80
FFF8000FFF80
FFF8000FFF80
FFF8000FFF80
ENDCHAR
STARTCHAR 0103
ENCODING 259
SWIDTH 552 0
DWIDTH 43 0
BBX 39 57 2 -1
BITMAP
00F8001F00
00F8001E00
00F8003E00
007C003E00
007E007E00
007F01FE00
003FFFFC00
003FFFFC00
001FFFF800
000FFFF000
0007FFC000
0000FF0000
0000000000
0000000000
0000000000
0000000000
0000000000
0007FF8000
001FFFF000
007FFFF800
01FFFFFE00
03FFFFFF00
07FFFFFF80
0FFFFFFFC0
1FFFFFFFE0
1FFFFFFFF0
3FFFFFFFF0
3FFFFFFFF8
7FFFFFFFF8
7FFF03FFF8
7FFE00FFFC
FFFC007FFC
FFF8007FFC
FFF8003FFC
FFF0003FFC
FFF0003FFC
FFF0003FFC
FFF0003FFE
FFF0003FFE
FFF8003FFE
FFF8003FFE
FFFC003FFE
7FFC003FFE
7FFF00BFFE
7FFFFFBFFE
3FFFFFBFFE
3FFFFFBFFE
1FFFFFBFFE
1FFFFFBFFE
0FFFFFBFFE
07FFFFBFFE
03FFFFBFFE
01FFFFBFFE
00FFFFBFFE
003FFFBFFE
000FFFBFFE
0000500000
ENDCHAR
STARTCHAR 0106
ENCODING 262
SWIDTH 501 0
DWIDTH 39 0
BBX 35 74 2 0
BITMAP
0000007FE0
000000FFC0
000000FF80
000001FF00
000001FE00
000003FE00
000003FC00
000007F800
000007F000
00000FE000
00000FC000
00001FC000
00001F8000
00003F0000
00003E0000
0000000000
0000000000
0000000000
0000000000
0000000000
000001FFE0
00001FFFE0
0000FFFFE0
0003FFFFE0
000FFFFFE0
001FFFFFE0
007FFFFFE0
00FFFFFFE0
01FFFFFFE0
03FFFFFFE0
07FFFFFFE0
07FFFFFFE0
0FFFFFF800
1FFFFF0000
1FFFF80000
3FFFE00000
3FFFC00000
3FFF800000
7FFF000000
7FFF000000
7FFE000000
7FFE000000
FFFE000000
FFFC000000
FFFC000000
FFFC000000
FFFC000000
FFFC000000
FFFC000000
FFFC000000
FFFC000000
FFFE000000
7FFE000000
7FFE000000
7FFF000000
7FFF800000
3FFFC00000
3FFFE00000
1FFFF00000
1FFFFC0000
0FFFFF8000
0FFFFFFFE0
07FFFFFFE0
03FFFFFFE0
01FFFFFFE0
00FFFFFFE0
007FFFFFE0
003FFFFFE0
001FFFFFE0
0007FFFFE0
0001FFFFE0
00007FFFE0
00000FFFE0
0000007FE0
ENDCHAR
STARTCHAR 0107
ENCODING 263
SWIDTH 385 0
DWIDTH 30 0
BBX 28 57 2 0
BITMAP
00001FF0
00003FF0
00003FE0
00007FC0
00007F80
0000FF00
0001FE00
0001FC00
0003FC00
0003F800
0007F000
0007E000
000FC000
000F8000
00000000
00000000
00000000
00000000
000003E0
0003FFE0
001FFFE0
007FFFE0
00FFFFE0
03FFFFE0
07FFFFE0
0FFFFFE0
1FFFFFE0
1FFFFFE0
3FFFFFE0
3FFFFFE0
7FFFE000
7FFF0000
7FFE0000
FFFC0000
FFF80000
FFF80000
FFF00000
FFF00000
FFF00000
FFF00000
FFF80000
FFF80000
FFFC0000
7FFE0000
7FFF8000
7FFFFFE0
3FFFFFE0
3FFFFFE0
1FFFFFE0
0FFFFFE0
07FFFFE0
03FFFFE0
01FFFFE0
007FFFE0
003FFFE0
0007FFE0
00007FE0
ENDCHAR
STARTCHAR 010C
ENCODING 268
SWIDTH 501 0
DWIDTH 39 0
BBX 36 74 2 0
BITMAP
000F8003F0
000FC007E0
0007E007E0
0007E00FC0
0003F01FC0
0003F83F80
0001FC7F00
0001FE7F00
0000FFFE00
0000FFFE00
00007FFC00
00003FFC00
00003FF800
00001FF800
00001FF000
0000000000
0000000000
0000000000
0000000000
0000000000
000001FFE0
00001FFFE0
0000FFFFE0
0003FFFFE0
000FFFFFE0
001FFFFFE0
007FFFFFE0
00FFFFFFE0
01FFFFFFE0
03FFFFFFE0
07FFFFFFE0
07FFFFFFE0
0FFFFFF800
1FFFFF0000
1FFFF80000
3FFFE00000
3FFFC00000
3FFF800000
7FFF000000
7FFF000000
7FFE000000
7FFE000000
FFFE000000
FFFC000000
FFFC000000
FFFC000000
FFFC000000
FFFC000000
FFFC000000
FFFC000000
FFFC000000
FFFE000000
7FFE000000
7FFE000000
7FFF000000
7FFF800000
3FFFC00000
3FFFE00000
1FFFF00000
1FFFFC0000
0FFFFF8000
0FFFFFFFE0
07FFFFFFE0
03FFFFFFE0
01FFFFFFE0
00FFFFFFE0
007FFFFFE0
003FFFFFE0
001FFFFFE0
0007FFFFE0
0001FFFFE0
00007FFFE0
00000FFFE0
0000007FE0
ENDCHAR
STARTCHAR 010D
ENCODING 269
SWIDTH 385 0
DWIDTH 30 0
BBX 29 57 2 0
BITMAP
03E000F8
03F001F8
01F803F0
01FC07F0
00FC07E0
00FE0FE0
007F1FC0
007FBFC0
003FFF80
003FFF80
001FFF00
000FFF00
000FFE00
0007FC00
00000000
00000000
00000000
00000000
000003E0
0003FFE0
001FFFE0
007FFFE0
00FFFFE0
03FFFFE0
07FFFFE0
0FFFFFE0
1FFFFFE0
1FFFFFE0
3FFFFFE0
3FFFFFE0
7FFFE000
7FFF0000
7FFE0000
FFFC0000
FFF80000
FFF80000
FFF00000
FFF00000
FFF00000
FFF00000
FFF80000
FFF80000
FFFC0000
7FFE0000
7FFF8000
7FFFFFE0
3FFFFFE0
3FFFFFE0
1FFFFFE0
0FFFFFE0
07FFFFE0
03FFFFE0
01FFFFE0
007FFFE0
003FFFE0
0007FFE0
00007FE0
ENDCHAR
STARTCHAR 0110
ENCODING 272
SWIDTH 642 0
DWIDTH 50 0
BBX 48 54 0 0
BITMAP
0FFFFFE00000
0FFFFFFC0000
0FFFFFFF8000
0FFFFFFFE000
0FFFFFFFF000
0FFFFFFFFC00
0FFFFFFFFE00
0FFFFFFFFF00
0FFFFFFFFF80
0FFFFFFFFFC0
0FFFFFFFFFE0
0FFFFFFFFFE0
0FFFEFFFFFF0
0FFFC07FFFF8
0FFFC01FFFF8
0FFFC007FFFC
0FFFC003FFFC
0FFFC001FFFE
0FFFC000FFFE
0FFFC000FFFE
0FFFC0007FFE
0FFFC0007FFF
FFFFFF003FFF
FFFFFF003FFF
FFFFFF003FFF
FFFFFF003FFF
FFFFFF003FFF
FFFFFF003FFF
FFFFFF003FFF
FFFFFF003FFF
0FFFC0003FFF
0FFFC0003FFF
0FFFC0007FFF
0FFFC0007FFE
0FFFC000FFFE
0FFFC001FFFE
0FFFC001FFFC
0FFFC003FFFC
0FFFC00FFFFC
0FFFC03FFFF8
0FFFC1FFFFF0
0FFFCFFFFFF0
0FFFCFFFFFE0
0FFFCFFFFFC0
0FFFCFFFFFC0
0FFFCFFFFF80
0FFFCFFFFF00
0FFFCFFFFE00
0FFFCFFFF800
0FFFCFFFF000
0FFFCFFFC000
0FFFCFFF0000
0FFFCFF80000
0FFFCF800000
ENDCHAR
STARTCHAR 0111
ENCODING 273
SWIDTH 565 0
DWIDTH 44 0
BBX 42 55 2 -1
BITMAP
0000003FFE00
0000003FFE00
0000003FFE00
0000003FFE00
00007FFFFFC0
00007FFFFFC0
00007FFFFFC0
00007FFFFFC0
00007FFFFFC0
00007FFFFFC0
00007FFFFFC0
0000003FFE00
0000003FFE00
0000003FFE00
0000003FFE00
0003FFBFFE00
001FFFBFFE00
007FFFBFFE00
00FFFFBFFE00
03FFFFBFFE00
07FFFFBFFE00
0FFFFFBFFE00
0FFFFFBFFE00
1FFFFFBFFE00
3FFFFFBFFE00
3FFFFFBFFE00
7FFFFFBFFE00
7FFF83BFFE00
7FFE003FFE00
FFFC003FFE00
FFF8003FFE00
FFF8003FFE00
FFF0003FFE00
FFF0003FFE00
FFF0003FFE00
FFF0003FFC00
FFF0003FFC00
FFF8003FFC00
FFF8003FFC00
FFF8007FFC00
7FFC00FFFC00
7FFF01FFF800
7FFFFFFFF800
3FFFFFFFF800
3FFFFFFFF000
1FFFFFFFF000
1FFFFFFFE000
0FFFFFFFC000
07FFFFFFC000
03FFFFFF8000
01FFFFFF0000
00FFFFFC0000
003FFFF80000
000FFFC00000
000078000000
ENDCHAR
STARTCHAR 011E
ENCODING 286
SWIDTH 771 0
DWIDTH 60 0
BBX 56 73 2 -1
BITMAP
0000F8001F0000
000078001F0000
00007C003E0000
00007C003E0000
00007F00FE0000
00003FFFFC0000
00003FFFFC0000
00001FFFF80000
00000FFFF00000
000007FFE00000
000001FF800000
00000000000000
00000000000000
00000000000000
00000000000000
00000000000000
00000000000000
000003FFF00000
00003FFFFE0000
0000FFFFFFC000
0003FFFFFFF000
0007FFFFFFF800
001FFFFFFFFE00
003FFFFFFFFF00
007FFFFFFFFF80
00FFFFFFFFFF80
01FFFFFFFFFF00
03FFFFFFFFFF00
07FFFFFFFFFE00
07FFFFFFFFFC00
0FFFFF003FF800
1FFFF8000FF000
1FFFF00003E000
3FFFE00001C000
3FFFC000008000
3FFF8000000000
7FFF0000000000
7FFF0000000000
7FFE001FFFFFFF
7FFE001FFFFFFF
FFFE001FFFFFFF
FFFC001FFFFFFF
FFFC001FFFFFFF
FFFC001FFFFFFF
FFFC001FFFFFFF
FFFC001FFFFFFF
FFFC001FFFFFFF
FFFC001FFFFFFE
FFFE001FFFFFFE
7FFE001FFFFFFE
7FFE0000007FFE
7FFF000000FFFE
7FFF000000FFFC
7FFF800001FFFC
3FFFC00001FFFC
3FFFE00003FFF8
1FFFF00007FFF8
1FFFF8001FFFF8
0FFFFE003FFFF0
0FFFFFFFFFFFF0
07FFFFFFFFFFE0
03FFFFFFFFFFC0
03FFFFFFFFFFC0
01FFFFFFFFFF80
00FFFFFFFFFF00
007FFFFFFFFE00
003FFFFFFFFC00
000FFFFFFFF800
0007FFFFFFE000
0001FFFFFFC000
00007FFFFF0000
00001FFFF80000
000001FFC00000
ENDCHAR
STARTCHAR 011F
ENCODING 287
SWIDTH 552 0
DWIDTH 43 0
BBX 39 73 2 -17
BITMAP
00F8001F00
00F8001E00
00F8003E00
007C003E00
007E007E00
007F01FC00
003FFFFC00
003FFFF800
001FFFF800
000FFFF000
0007FFC000
0000FF0000
0000000000
0000000000
0000000000
0000000000
0000000000
0007FF8000
001FFFF000
007FFFF800
01FFFFFE00
03FFFFFF00
07FFFFFF80
0FFFFFFFC0
0FFFFFFFE0
1FFFFFFFF0
3FFFFFFFF0
3FFFFFFFF8
7FFFFFFFF8
7FFF03FFF8
7FFE00FFFC
FFFC007FFC
FFF8007FFC
FFF8003FFC
FFF8003FFC
FFF0003FFC
FFF0003FFC
FFF0003FFE
FFF0003FFE
FFF8003FFE
FFF8003FFE
FFFC003FFE
7FFE003FFE
7FFF00BFFE
7FFFFFBFFE
3FFFFFBFFE
3FFFFFBFFE
1FFFFFBFFE
0FFFFFBFFE
0FFFFFBFFE
07FFFFBFFE
03FFFFBFFE
01FFFFBFFE
007FFFBFFE
001FFFBFFE
0003FFBFFC
0000003FFC
0000003FFC
0000007FFC
0000007FFC
060000FFFC
07F007FFF8
07FFFFFFF8
07FFFFFFF8
07FFFFFFF0
07FFFFFFF0
07FFFFFFE0
07FFFFFFC0
07FFFFFF80
07FFFFFF00
07FFFFFC00
07FFFFF000
007FFFC000
ENDCHAR
STARTCHAR 0128
ENCODING 296
SWIDTH 270 0
DWIDTH 21 0
BBX 24 72 -1 0
BITMAP
00000F
00000F
07F01F
1FFF7E
1FFFFE
3FFFFC
7FFFFC
7FFFF8
7C1FF0
F80080
F00000
000000
000000
000000
000000
000000
000000
000000
07FFE0
07FFE0
07FFE0
07FFE0
07FFE0
07FFE0
07FFE0
07FFE0
07FFE0
07FFE0
07FFE0
07FFE0
07FFE0
07FFE0
07FFE0
07FFE0
07FFE0
07FFE0
07FFE0
07FFE0
07FFE0
07FFE0
07FFE0
07FFE0
07FFE0
07FFE0
07FFE0
07FFE0
07FFE0
07FFE0
07FFE0
07FFE0
07FFE0
07FFE0
07FFE0
07FFE0
07FFE0
07FFE0
07FFE0
07FFE0
07FFE0
07FFE0
07FFE0
07FFE0
07FFE0
07FFE0
07FFE0
07FFE0
07FFE0
07FFE0
07FFE0
07FFE0
07FFE0
07FFE0
ENDCHAR
STARTCHAR 0129
ENCODING 297
SWIDTH 244 0
DWIDTH 19 0
BBX 24 55 -2 0
BITMAP
00000F
01801F
0FF81E
1FFFFE
3FFFFE
3FFFFC
7FFFF8
7EFFF8
F80FE0
F80000
000000
000000
000000
000000
000000
000000
03FFC0
03FFC0
03FFC0
03FFC0
03FFC0
03FFC0
03FFC0
03FFC0
03FFC0
03FFC0
03FFC0
03FFC0
03FFC0
03FFC0
03FFC0
03FFC0
03FFC0
03FFC0
03FFC0
03FFC0
03FFC0
03FFC0
03FFC0
03FFC0
03FFC0
03FFC0
03FFC0
03FFC0
03FFC0
03FFC0
03FFC0
03FFC0
03FFC0
03FFC0
03FFC0
03FFC0
03FFC0
03FFC0
03FFC0
ENDCHAR
STARTCHAR 0130
ENCODING 304
SWIDTH 270 0
DWIDTH 21 0
BBX 14 72 4 0
BITMAP
0780
1FE0
1FE0
3FF0
3FF0
3FF0
3FF0
1FE0
1FE0
0780
0000
0000
0000
0000
0000
0000
0000
0000
FFFC
FFFC
FFFC
FFFC
FFFC
FFFC
FFFC
FFFC
FFFC
FFFC
FFFC
FFFC
FFFC
FFFC
FFFC
FFFC
FFFC
FFFC
FFFC
FFFC
FFFC
FFFC
FFFC
FFFC
FFFC
FFFC
FFFC
FFFC
FFFC
FFFC
FFFC
FFFC
FFFC
FFFC
FFFC
FFFC
FFFC
FFFC
FFFC
FFFC
FFFC
FFFC
FFFC
FFFC
FFFC
FFFC
FFFC
FFFC
FFFC
FFFC
FFFC
FFFC
FFFC
FFFC
ENDCHAR
STARTCHAR 0131
ENCODING 305
SWIDTH 244 0
DWIDTH 19 0
BBX 12 39 4 0
BITMAP
FFF0
FFF0
FFF0
FFF0
FFF0
FFF0
FFF0
FFF0
FFF0
FFF0
FFF0
FFF0
FFF0
FFF0
FFF0
FFF0
FFF0
FFF0
FFF0
FFF0
FFF0
FFF0
FFF0
FFF0
FFF0
FFF0
FFF0
FFF0
FFF0
FFF0
FFF0
FFF0
FFF0
FFF0
FFF0
FFF0
FFF0
FFF0
FFF0
ENDCHAR
STARTCHAR 0141
ENCODING 321
SWIDTH 437 0
DWIDTH 34 0
BBX 34 54 0 0
BITMAP
0FFFC00000
0FFFC00000
0FFFC00000
0FFFC00000
0FFFC00000
0FFFC00000
0FFFC00000
0FFFC00000
0FFFC00000
0FFFC00000
0FFFC00000
0FFFC00000
0FFFC04000
0FFFC1C000
0FFFC3C000
0FFFCFC000
0FFFDFC000
0FFFFFC000
0FFFFFC000
0FFFFFC000
0FFFFFC000
0FFFFFC000
0FFFFF0000
0FFFFE0000
0FFFFC0000
1FFFF00000
3FFFE00000
FFFFC00000
FFFFC00000
FFFFC00000
FFFFC00000
FFFFC00000
FFFFC00000
FFFFC00000
FFFFC00000
EFFFC00000
8FFFC00000
0FFFC00000
0FFFC00000
0FFFE00000
07FFF00000
07FFFFFFC0
07FFFFFFC0
07FFFFFFC0
03FFFFFFC0
03FFFFFFC0
01FFFFFFC0
01FFFFFFC0
00FFFFFFC0
007FFFFFC0
003FFFFFC0
000FFFFFC0
0003FFFFC0
00007FFFC0
ENDCHAR
STARTCHAR 0142
ENCODING 322
SWIDTH 270 0
DWIDTH 21 0
BBX 21 54 0 0
BITMAP
07FF80
07FF80
07FF80
07FF80
07FF80
07FF80
07FF80
07FF80
07FF80
07FF80
07FF80
07FF80
07FF80
07FF80
07FF80
07FF80
07FF98
07FFB8
07FFF8
07FFF8
07FFF8
07FFF8
07FFF8
07FFF8
07FFF0
0FFFC0
3FFF80
7FFF80
FFFF80
FFFF80
FFFF80
FFFF80
FFFF80
F7FF80
E7FF80
87FF80
07FF80
07FF80
07FF80
07FF80
07FF80
07FF80
07FF80
07FF80
07FF80
07FF80
07FF80
07FF80
07FF80
07FF80
07FF80
07FF80
07FF80
07FF80
ENDCHAR
STARTCHAR 0152
ENCODING 338
SWIDTH 1041 0
DWIDTH 81 0
BBX 75 56 2 -1
BITMAP
000007FFC00000000000
00003FFFF8000000FFE0
0000FFFFFF00001FFFE0
0003FFFFFF80007FFFE0
000FFFFFFFE001FFFFE0
001FFFFFFFF007FFFFE0
003FFFFFFFF81FFFFFE0
007FFFFFFFFE3FFFFFE0
00FFFFFFFFFF7FFFFFE0
01FFFFFFFFFFFFFFFFE0
03FFFFFFFFFFFFFFFFE0
07FFFFFFFFFFFFFFFFE0
07FFFFFFFFFFFFFFFFE0
0FFFFF80FFFFFFFFC000
1FFFFC003FFFFFFC0000
1FFFF0000FFFFFF00000
3FFFE00007FFFFE00000
3FFFC00003FFFFC00000
3FFF800001FFFF800000
7FFF000000FFFF000000
7FFF000000FFFF000000
7FFE0000007FFFFFFFE0
7FFE0000007FFFFFFFE0
FFFE0000003FFFFFFFE0
FFFC0000003FFFFFFFE0
FFFC0000003FFFFFFFE0
FFFC0000003FFFFFFFE0
FFFC0000003FFFFFFFE0
FFFC0000003FFFFFFFE0
FFFC0000003FFFFFFFE0
FFFC0000003FFFFFFFE0
FFFC0000003FFFFFFFE0
7FFE0000007FFFFFFFE0
7FFE0000007FFFFFFFE0
7FFF0000007FFE000000
7FFF000000FFFF000000
7FFF800001FFFF000000
3FFFC00001FFFF800000
3FFFE00003FFFFC00000
1FFFF00007FFFFE00000
1FFFF8001FFFFFF80000
0FFFFE007FFFFFFF0000
0FFFFFFFFFFFFFFFFF80
07FFFFFFFFFFFFFFFFE0
03FFFFFFFFFFFFFFFFE0
03FFFFFFFFFFFFFFFFE0
01FFFFFFFFFFFFFFFFE0
00FFFFFFFFFE7FFFFFE0
007FFFFFFFFC1FFFFFE0
003FFFFFFFF80FFFFFE0
000FFFFFFFF003FFFFE0
0007FFFFFFE001FFFFE0
0003FFFFFF80003FFFE0
0000FFFFFE000007FFE0
00001FFFF80000003FE0
000001FF800000000000
ENDCHAR
STARTCHAR 0153
ENCODING 339
SWIDTH 887 0
DWIDTH 69 0
BBX 66 40 2 -1
BITMAP
0003FF80007FE00000
001FFFE003FFFC0000
007FFFF80FFFFF0000
00FFFFFC1FFFFF8000
01FFFFFF3FFFFFE000
03FFFFFFFFFFFFF000
07FFFFFFFFFFFFF800
0FFFFFFFFFFFFFF800
1FFFFFFFFFFFFFFC00
1FFFFFFFFFF0FFFE00
3FFFFFFFFFC01FFE00
3FFFFFFFFF807FFF00
7FFF03FFFF00FFFE00
7FFE00FFFE01FFFC00
7FFC007FFE07FFF000
FFF8007FFC0FFFE000
FFF8003FFC3FFF8000
FFF8003FFC7FFF0000
FFF0003FFC7FFC0000
FFF0003FFC3FF80000
FFF0003FFC1FF04000
FFF8003FFC1FC07000
FFF8003FFE0F80FC00
FFF8003FFE0601FF00
FFFC007FFF0401FFC0
7FFE00FFFF8003FFC0
7FFF01FFFFC00FFFC0
7FFFFFFFFFE03FFF80
3FFFFFFFFFFFFFFF80
3FFFFFFFFFFFFFFF00
1FFFFFFFFFFFFFFE00
0FFFFFFFFFFFFFFE00
0FFFFFFFFFFFFFFC00
07FFFFFFFFFFFFF800
03FFFFFF7FFFFFF000
01FFFFFE3FFFFFE000
007FFFFC0FFFFF8000
003FFFF007FFFE0000
000FFFC000FFF80000
00007800000F800000
ENDCHAR
STARTCHAR 015E
ENCODING 350
SWIDTH 527 0
DWIDTH 41 0
BBX 37 72 2 -18
BITMAP
001FFFFFC0
00FFFFFFC0
03FFFFFFC0
07FFFFFFC0
0FFFFFFFC0
1FFFFFFFC0
1FFFFFFFC0
3FFFFFFFC0
3FFFFFFFC0
7FFFFFFFC0
7FFFFFFFC0
7FFFFFFFC0
7FFF000000
7FFE000000
7FFE000000
7FFE000000
7FFF000000
7FFF800000
7FFFC00000
3FFFF00000
3FFFF80000
1FFFFE0000
1FFFFF8000
0FFFFFE000
07FFFFF000
03FFFFFC00
01FFFFFE00
00FFFFFF00
003FFFFF80
000FFFFFC0
0007FFFFE0
0001FFFFE0
00007FFFF0
00003FFFF0
00000FFFF8
000007FFF8
000003FFF8
000001FFF8
000001FFF8
000003FFF8
000003FFF8
FFFFFFFFF8
FFFFFFFFF8
FFFFFFFFF8
FFFFFFFFF0
FFFFFFFFF0
FFFFFFFFE0
FFFFFFFFE0
FFFFFFFFC0
FFFFFFFF80
FFFFFFFF00
FFFFFFFC00
FFFFFFF000
FFFFFF8000
00003C0000
00003C0000
0000380000
00007C0000
00007FE000
00007FF000
00007FF800
00007FFC00
000003FC00
000000FC00
000000FC00
000000FC00
003801FC00
003FFFFC00
003FFFF800
003FFFF800
003FFFF000
0003FFC000
ENDCHAR
STARTCHAR 015F
ENCODING 351
SWIDTH 424 0
DWIDTH 33 0
BBX 30 57 2 -18
BITMAP
0003FFF0
00FFFFF0
03FFFFF0
0FFFFFF0
1FFFFFF0
1FFFFFF0
3FFFFFF0
3FFFFFF0
7FFFFFF0
7FFFFFF0
7FFFFFF0
7FF80000
7FF80000
7FF80000
3FFF0000
3FFFC000
3FFFF000
1FFFFC00
0FFFFF00
07FFFF80
03FFFFE0
00FFFFE0
003FFFF0
000FFFF8
0001FFF8
00007FFC
00007FFC
00007FFC
FFFFFFFC
FFFFFFFC
FFFFFFFC
FFFFFFF8
FFFFFFF8
FFFFFFF0
FFFFFFF0
FFFFFFE0
FFFFFFC0
FFFFFF00
FFFFF800
0003C000
0003C000
0003C000
0007C000
0007FE00
0007FF00
0007FF80
0007FFC0
00001FC0
00000FC0
00000FC0
00000FC0
03801FC0
03FFFFC0
03FFFFC0
03FFFF80
03FFFF00
003FFC00
ENDCHAR
STARTCHAR 0160
ENCODING 352
SWIDTH 527 0
DWIDTH 41 0
BBX 37 74 2 0
BITMAP
01F0003E00
01F8007C00
00FC00FC00
007E01F800
007F03F800
003F03F000
003F87F000
001FCFE000
001FFFE000
000FFFC000
000FFFC000
0007FF8000
0007FF8000
0003FF0000
0003FF0000
0000000000
0000000000
0000000000
0000000000
0000000000
001FFFFFC0
00FFFFFFC0
03FFFFFFC0
07FFFFFFC0
0FFFFFFFC0
1FFFFFFFC0
1FFFFFFFC0
3FFFFFFFC0
3FFFFFFFC0
7FFFFFFFC0
7FFFFFFFC0
7FFFFFFFC0
7FFF000000
7FFE000000
7FFE000000
7FFE000000
7FFF000000
7FFF800000
7FFFC00000
3FFFF00000
3FFFF80000
1FFFFE0000
1FFFFF8000
0FFFFFE000
07FFFFF000
03FFFFFC00
01FFFFFE00
00FFFFFF00
003FFFFF80
000FFFFFC0
0007FFFFE0
0001FFFFE0
00007FFFF0
00003FFFF0
00000FFFF8
000007FFF8
000003FFF8
000001FFF8
000001FFF8
000003FFF8
000003FFF8
FFFFFFFFF8
FFFFFFFFF8
FFFFFFFFF8
FFFFFFFFF0
FFFFFFFFF0
FFFFFFFFE0
FFFFFFFFE0
FFFFFFFFC0
FFFFFFFF80
FFFFFFFF00
FFFFFFFC00
FFFFFFF000
FFFFFF8000
ENDCHAR
STARTCHAR 0161
ENCODING 353
SWIDTH 424 0
DWIDTH 33 0
BBX 30 57 2 0
BITMAP
1F8007E0
0F8007C0
0FC00FC0
07E01F80
07F03F80
03F87F00
03FC7F00
01FCFE00
01FFFE00
00FFFC00
007FFC00
007FF800
003FF800
003FF000
00000000
00000000
00000000
00000000
0003FFF0
00FFFFF0
03FFFFF0
0FFFFFF0
1FFFFFF0
1FFFFFF0
3FFFFFF0
3FFFFFF0
7FFFFFF0
7FFFFFF0
7FFFFFF0
7FF80000
7FF80000
7FF80000
3FFF0000
3FFFC000
3FFFF000
1FFFFC00
0FFFFF00
07FFFF80
03FFFFE0
00FFFFE0
003FFFF0
000FFFF8
0001FFF8
00007FFC
00007FFC
00007FFC
FFFFFFFC
FFFFFFFC
FFFFFFFC
FFFFFFF8
FFFFFFF8
FFFFFFF0
FFFFFFF0
FFFFFFE0
FFFFFFC0
FFFFFF00
FFFFF800
ENDCHAR
STARTCHAR 0168
ENCODING 360
SWIDTH 617 0
DWIDTH 48 0
BBX 41 73 4 -1
BITMAP
0000000F0000
0000001F0000
0007F01F0000
001FFF7E0000
003FFFFE0000
003FFFFC0000
007FFFFC0000
007FFFF80000
00781FF00000
00F800800000
00F000000000
000000000000
000000000000
000000000000
000000000000
000000000000
000000000000
000000000000
FFF8000FFF80
FFF8000FFF80
FFF8000FFF80
FFF8000FFF80
FFF8000FFF80
FFF8000FFF80
FFF8000FFF80
FFF8000FFF80
FFF8000FFF80
FFF8000FFF80
FFF8000FFF80
FFF8000FFF80
FFF8000FFF80
FFF8000FFF80
FFF8000FFF80
FFF8000FFF80
FFF8000FFF80
FFF8000FFF80
FFF8000FFF80
FFF8000FFF80
FFF8000FFF80
FFF8000FFF80
FFF8000FFF80
FFF8000FFF80
FFF8000FFF80
FFF8000FFF80
FFF8000FFF80
FFF8000FFF80
FFF8000FFF80
FFF8000FFF80
FFF8000FFF80
FFF8000FFF80
FFF8000FFF80
FFF8000FFF80
FFF8001FFF80
FFF8001FFF80
FFF8001FFF80
FFFC001FFF00
FFFC003FFF00
FFFE003FFF00
7FFF00FFFF00
7FFFE3FFFE00
7FFFFFFFFE00
3FFFFFFFFE00
3FFFFFFFFC00
1FFFFFFFFC00
0FFFFFFFF800
0FFFFFFFF000
07FFFFFFE000
03FFFFFFE000
01FFFFFF8000
00FFFFFF0000
003FFFFE0000
000FFFF00000
0001FF800000
ENDCHAR
STARTCHAR 0169
ENCODING 361
SWIDTH 527 0
DWIDTH 41 0
BBX 35 56 3 -1
BITMAP
0000003C00
0006007C00
003FE07800
007FFFF800
00FFFFF800
00FFFFF000
01FFFFE000
01FBFFE000
03E03F8000
03E0000000
0000000000
0000000000
0000000000
0000000000
0000000000
0000000000
FFF001FFE0
FFF001FFE0
FFF001FFE0
FFF001FFE0
FFF001FFE0
FFF001FFE0
FFF001FFE0
FFF001FFE0
FFF001FFE0
FFF001FFE0
FFF001FFE0
FFF001FFE0
FFF001FFE0
FFF001FFE0
FFF001FFE0
FFF001FFE0
FFF001FFE0
FFF001FFE0
FFF001FFE0
FFF001FFE0
FFF001FFE0
FFF001FFE0
FFF001FFE0
FFF001FFE0
FFF801FFE0
7FF803FFE0
7FFC03FFE0
7FFE0FFFC0
7FFFFFFFC0
3FFFFFFFC0
3FFFFFFF80
1FFFFFFF80
1FFFFFFF00
0FFFFFFE00
07FFFFFC00
03FFFFF800
01FFFFF000
007FFFE000
001FFF8000
0001F00000
ENDCHAR
STARTCHAR 0178
ENCODING 376
SWIDTH 565 0
DWIDTH 44 0
BBX 38 71 3 0
BITMAP
003E01F800
007F03FC00
00FF87FC00
00FF87FE00
00FF87FE00
00FF87FE00
00FF87FC00
00FF83FC00
007F01F800
0008000000
0000000000
0000000000
0000000000
0000000000
0000000000
0000000000
0000000000
FFFC007FFC
FFFC007FFC
FFFC007FFC
FFFC007FFC
FFFC007FFC
FFFC007FFC
FFFC007FFC
FFFC007FFC
FFFC007FFC
FFFC007FFC
FFFC007FFC
FFFC007FFC
FFFC007FFC
FFFC007FFC
FFFC007FFC
FFFC007FFC
FFFC007FFC
FFFC007FFC
FFFC00FFFC
7FFC00FFFC
7FFC00FFFC
7FFE01FFF8
7FFF01FFF8
7FFFEFFFF8
3FFFFFFFF8
3FFFFFFFF0
1FFFFFFFF0
1FFFFFFFE0
0FFFFFFFE0
07FFFFFFC0
07FFFFFF80
03FFFFFF00
00FFFFFE00
007FFFF800
001FFFE000
000FFFC000
000FFFC000
000FFFC000
000FFFC000
000FFFC000
000FFFC000
000FFFC000
000FFFC000
000FFFC000
000FFFC000
000FFFC000
000FFFC000
000FFFC000
000FFFC000
000FFFC000
000FFFC000
000FFFC000
000FFFC000
000FFFC000
ENDCHAR
STARTCHAR 017D
ENCODING 381
SWIDTH 527 0
DWIDTH 41 0
BBX 39 74 1 0
BITMAP
00F8003F00
00FC007E00
007E007E00
007E00FC00
003F01FC00
003F83F800
001FC7F800
001FE7F000
000FFFE000
000FFFE000
0007FFC000
0003FFC000
0003FF8000
0001FF8000
0001FF0000
0000000000
0000000000
0000000000
0000000000
0000000000
1FFFFFFFE0
1FFFFFFFF8
1FFFFFFFFC
1FFFFFFFFC
1FFFFFFFFE
1FFFFFFFFE
1FFFFFFFFE
1FFFFFFFFE
1FFFFFFFFE
1FFFFFFFFE
1FFFFFFFFE
1FFFFFFFFE
000003FFFC
000007FFFC
000007FFF8
00000FFFF0
00001FFFE0
00003FFFE0
00003FFFC0
00007FFF80
0000FFFF00
0001FFFF00
0001FFFE00
0003FFFC00
0007FFFC00
0007FFF800
000FFFF000
001FFFE000
003FFFE000
003FFFC000
007FFF8000
00FFFF0000
01FFFF0000
01FFFE0000
03FFFC0000
07FFF80000
0FFFF80000
0FFFF00000
1FFFE00000
3FFFE00000
3FFFC00000
7FFFFFFFFE
7FFFFFFFFE
FFFFFFFFFE
FFFFFFFFFE
FFFFFFFFFE
FFFFFFFFFE
FFFFFFFFFE
FFFFFFFFFE
7FFFFFFFFE
7FFFFFFFFE
3FFFFFFFFE
1FFFFFFFFE
07FFFFFFFE
ENDCHAR
STARTCHAR 017E
ENCODING 382
SWIDTH 450 0
DWIDTH 35 0
BBX 33 57 1 0
BITMAP
07C001F000
07E003F000
03F007E000
03F80FE000
01F80FC000
01FC1FC000
00FE3F8000
00FF7F8000
007FFF0000
003FFF0000
003FFE0000
001FFE0000
001FFC0000
000FFC0000
0000000000
0000000000
0000000000
0000000000
3FFFFF0000
3FFFFFF800
3FFFFFFE00
3FFFFFFF00
3FFFFFFF00
3FFFFFFF00
3FFFFFFF80
3FFFFFFF80
3FFFFFFF80
3FFFFFFF00
3FFFFFFF00
3FFFFFFF00
0001FFFE00
0001FFFC00
0003FFF800
0007FFF000
000FFFE000
001FFFC000
003FFFC000
007FFF8000
00FFFF0000
01FFFE0000
01FFFC0000
03FFF80000
07FFF00000
0FFFE00000
1FFFC00000
3FFF800000
7FFFFFFF80
7FFFFFFF80
7FFFFFFF80
FFFFFFFF80
FFFFFFFF80
FFFFFFFF80
FFFFFFFF80
7FFFFFFF80
7FFFFFFF80
3FFFFFFF80
0FFFFFFF80
ENDCHAR
STARTCHAR 0192
ENCODING 402
SWIDTH 552 0
DWIDTH 43 0
BBX 40 70 1 -16
BITMAP
0000007FFF
000001FFFF
000007FFFF
00000FFFFF
00000FFFFF
00001FFFFF
00003FFFFF
00003FFFFF
00003FFFFF
00003FFFFF
00007FFF00
00007FFC00
00007FFC00
00007FF800
0000FFF800
0000FFF800
0000FFF800
0000FFF800
0000FFF800
0000FFF000
0FFFFFFFFC
0FFFFFFFFC
0FFFFFFFFC
0FFFFFFFFC
0FFFFFFFFC
0FFFFFFFFC
0FFFFFFFFC
0FFFFFFFFC
0FFFFFFFFC
0FFFFFFFFC
0FFFFFFFFC
0003FFE000
0003FFE000
0003FFE000
0003FFE000
0003FFC000
0007FFC000
0007FFC000
0007FFC000
0007FFC000
0007FFC000
0007FFC000
0007FF8000
000FFF8000
000FFF8000
000FFF8000
000FFF8000
000FFF8000
000FFF8000
000FFF8000
000FFF0000
001FFF0000
001FFF0000
001FFF0000
001FFF0000
001FFF0000
001FFF0000
001FFE0000
003FFE0000
007FFE0000
FFFFFE0000
FFFFFE0000
FFFFFC0000
FFFFFC0000
FFFFF80000
FFFFF80000
FFFFF00000
FFFFE00000
FFFF800000
FFFF000000
ENDCHAR
STARTCHAR 01A0
ENCODING 416
SWIDTH 771 0
DWIDTH 60 0
BBX 57 60 2 -1
BITMAP
000000000001FF80
000000000001FF80
000000000003FF00
000000000003FF00
000007FFE003FE00
00003FFFFC07FE00
0000FFFFFF87FC00
0003FFFFFFCFFC00
000FFFFFFFFFF800
001FFFFFFFFFF800
003FFFFFFFFFF000
007FFFFFFFFFF000
00FFFFFFFFFFF000
01FFFFFFFFFFE000
03FFFFFFFFFFE000
07FFFFFFFFFFE000
07FFFFFFFFFFF000
0FFFFF80FFFFF000
1FFFFC003FFFF800
1FFFF0000FFFF800
3FFFE00007FFFC00
3FFFC00003FFFC00
3FFF800001FFFC00
7FFF000000FFFE00
7FFF000000FFFE00
7FFE0000007FFE00
7FFE0000007FFE00
FFFE0000003FFF00
FFFC0000003FFF00
FFFC0000003FFF00
FFFC0000003FFF00
FFFC0000003FFF00
FFFC0000003FFF00
FFFC0000003FFF00
FFFC0000003FFF00
FFFC0000003FFF00
7FFE0000007FFF00
7FFE0000007FFE00
7FFF0000007FFE00
7FFF000000FFFE00
7FFF800001FFFE00
3FFFC00001FFFC00
3FFFE00003FFFC00
1FFFF00007FFFC00
1FFFF8001FFFF800
0FFFFE007FFFF800
0FFFFFFFFFFFF000
07FFFFFFFFFFE000
03FFFFFFFFFFE000
03FFFFFFFFFFC000
01FFFFFFFFFF8000
00FFFFFFFFFF0000
007FFFFFFFFE0000
003FFFFFFFFC0000
000FFFFFFFF80000
0007FFFFFFE00000
0001FFFFFFC00000
0000FFFFFF000000
00001FFFF8000000
000001FF80000000
ENDCHAR
STARTCHAR 01A1
ENCODING 417
SWIDTH 540 0
DWIDTH 42 0
BBX 43 46 2 -1
BITMAP
000000007FE0
00000000FFE0
00000000FFC0
00000000FFC0
00000001FF80
00000001FF80
0003FF81FF00
001FFFF3FF00
007FFFFBFE00
00FFFFFFFE00
01FFFFFFFC00
03FFFFFFFC00
07FFFFFFF800
0FFFFFFFF800
1FFFFFFFF000
1FFFFFFFF000
3FFFFFFFF800
3FFFFFFFF800
7FFF03FFFC00
7FFE00FFFC00
7FFC007FFC00
FFF8007FFC00
FFF8003FFE00
FFF8003FFE00
FFF0003FFE00
FFF0003FFE00
FFF0003FFE00
FFF8003FFE00
FFF8003FFE00
FFF8003FFE00
FFFC007FFC00
7FFE00FFFC00
7FFF01FFFC00
7FFFFFFFF800
3FFFFFFFF800
3FFFFFFFF000
1FFFFFFFF000
0FFFFFFFE000
0FFFFFFFC000
07FFFFFFC000
03FFFFFF8000
01FFFFFE0000
007FFFFC0000
003FFFF00000
0007FFC00000
000078000000
ENDCHAR
STARTCHAR 01AF
ENCODING 431
SWIDTH 668 0
DWIDTH 52 0
BBX 52 60 4 -1
BITMAP
00000000007FF0
00000000007FE0
0000000000FFE0
0000000000FFC0
0000000000FFC0
FFF8000FFFFF80
FFF8000FFFFF80
FFF8000FFFFF00
FFF8000FFFFF00
FFF8000FFFFE00
FFF8000FFFFE00
FFF8000FFFFC00
FFF8000FFFFC00
FFF8000FFFF800
FFF8000FFFF800
FFF8000FFFF000
FFF8000FFFF000
FFF8000FFF8000
FFF8000FFF8000
FFF8000FFF8000
FFF8000FFF8000
FFF8000FFF8000
FFF8000FFF8000
FFF8000FFF8000
FFF8000FFF8000
FFF8000FFF8000
FFF8000FFF8000
FFF8000FFF8000
FFF8000FFF8000
FFF8000FFF8000
FFF8000FFF8000
FFF8000FFF8000
FFF8000FFF8000
FFF8000FFF8000
FFF8000FFF8000
FFF8000FFF8000
FFF8000FFF8000
FFF8000FFF8000
FFF8000FFF8000
FFF8001FFF8000
FFF8001FFF8000
FFF8001FFF8000
FFFC001FFF0000
FFFC003FFF0000
FFFE003FFF0000
7FFF00FFFF0000
7FFFE3FFFE0000
7FFFFFFFFE0000
3FFFFFFFFE0000
3FFFFFFFFC0000
1FFFFFFFFC0000
0FFFFFFFF80000
0FFFFFFFF00000
07FFFFFFE00000
03FFFFFFE00000
01FFFFFF800000
00FFFFFF000000
003FFFFE000000
000FFFF0000000
0001FF80000000
ENDCHAR
STARTCHAR 01B0
ENCODING 432
SWIDTH 565 0
DWIDTH 44 0
BBX 45 46 3 -1
BITMAP
000000001FF8
000000003FF8
000000003FF0
000000003FF0
000000007FE0
000000007FE0
FFF001FFFFC0
FFF001FFFFC0
FFF001FFFF80
FFF001FFFF80
FFF001FFFF00
FFF001FFFF00
FFF001FFFE00
FFF001FFFE00
FFF001FFFC00
FFF001FFFC00
FFF001FFF800
FFF001FFE000
FFF001FFE000
FFF001FFE000
FFF001FFE000
FFF001FFE000
FFF001FFE000
FFF001FFE000
FFF001FFE000
FFF001FFE000
FFF001FFE000
FFF001FFE000
FFF001FFE000
FFF001FFE000
FFF801FFE000
7FF803FFE000
7FFC03FFE000
7FFE0FFFC000
7FFFFFFFC000
3FFFFFFFC000
3FFFFFFF8000
1FFFFFFF8000
1FFFFFFF0000
0FFFFFFE0000
07FFFFFC0000
03FFFFF80000
01FFFFF00000
007FFFE00000
001FFF800000
0001F0000000
ENDCHAR
STARTCHAR 02C6
ENCODING 710
SWIDTH 488 0
DWIDTH 38 0
BBX 23 14 8 43
BITMAP
01FF00
03FF80
03FF80
07FFC0
07FFC0
0FFFE0
0FEFE0
1FC7F0
3F83F0
3F83F8
7F01F8
7E00FC
FC007E
F8007E
ENDCHAR
STARTCHAR 02C7
ENCODING 711
SWIDTH 488 0
DWIDTH 38 0
BBX 23 14 8 43
BITMAP
F8003E
FC007E
7E00FC
7F01FC
3F01F8
3F83F8
1FC7F0
1FEFF0
0FFFE0
0FFFC0
07FFC0
07FF80
03FF80
01FF00
ENDCHAR
STARTCHAR 02C9
ENCODING 713
SWIDTH 488 0
DWIDTH 38 0
BBX 21 6 9 47
BITMAP
FFFFF8
FFFFF8
FFFFF8
FFFFF8
FFFFF8
FFFFF8
ENDCHAR
STARTCHAR 02D8
ENCODING 728
SWIDTH 488 0
DWIDTH 38 0
BBX 23 12 8 44
BITMAP
F0003E
F8003E
F8003E
F8007E
FC007C
7F01FC
7FFFFC
3FFFF8
3FFFF0
1FFFE0
07FFC0
01FE00
ENDCHAR
STARTCHAR 02D9
ENCODING 729
SWIDTH 488 0
DWIDTH 38 0
BBX 10 10 14 45
BITMAP
1F00
3F80
7FC0
7FC0
FFC0
7FC0
7FC0
7FC0
3F80
0600
ENDCHAR
STARTCHAR 02DA
ENCODING 730
SWIDTH 488 0
DWIDTH 38 0
BBX 21 20 9 43
BITMAP
01FC00
07FF00
0FFF80
1FFFC0
3FFFE0
7FFFE0
7F07F0
7E03F0
FC01F0
FC01F8
FC01F8
FC01F0
7C03F0
7E03F0
7F8FF0
3FFFE0
1FFFC0
1FFF80
07FF00
03FC00
ENDCHAR
STARTCHAR 02DB
ENCODING 731
SWIDTH 488 0
DWIDTH 38 0
BBX 13 17 13 -17
BITMAP
03C0
0780
0F00
1E00
3E00
3C00
7C00
FC00
FC00
FC00
FE00
FFF8
FFF8
FFF8
7FF8
3FF8
0FF8
ENDCHAR
STARTCHAR 02DC
ENCODING 732
SWIDTH 488 0
DWIDTH 38 0
BBX 23 10 8 45
BITMAP
00001E
03001E
0FF03E
3FFFFC
3FFFFC
7FFFFC
7FFFF8
FCFFF0
F00FE0
F00000
ENDCHAR
STARTCHAR 02DD
ENCODING 733
SWIDTH 488 0
DWIDTH 38 0
BBX 25 15 11 43
BITMAP
07F8FF80
0FF0FF00
0FF1FE00
0FE1FE00
1FC1FC00
1FC3F800
1F83F800
3F87F000
3F07E000
3E0FC000
7E0FC000
7C0F8000
781F0000
F81E0000
F03E0000
ENDCHAR
STARTCHAR 0394
ENCODING 916
SWIDTH 707 0
DWIDTH 55 0
BBX 56 56 0 0
BITMAP
00000FFFF00000
00000FFFF00000
00001FFFF00000
00001FFFF80000
00001FFFF80000
00003FFFF80000
00003FFFFC0000
00003FFFFC0000
00007FFFFC0000
00007FFFFE0000
00007FFFFE0000
0000FFFFFF0000
0000FFFFFF0000
0001FFFFFF0000
0001FFFFFF8000
0001FFFFFF8000
0003FFFFFF8000
0003FFEFFFC000
0003FFE7FFC000
0007FFE7FFE000
0007FFC7FFE000
0007FFC3FFE000
000FFFC3FFF000
000FFF83FFF000
001FFF81FFF000
001FFF81FFF800
001FFF01FFF800
003FFF00FFF800
003FFF00FFFC00
003FFE007FFC00
007FFE007FFE00
007FFE007FFE00
007FFC003FFE00
00FFFC003FFF00
00FFFC003FFF00
01FFF8001FFF00
01FFF8001FFF80
01FFF0001FFF80
03FFF0000FFFC0
03FFF0000FFFC0
03FFE0000FFFC0
07FFE00007FFE0
07FFE00007FFE0
0FFFC00007FFE0
0FFFC00003FFF0
0FFFFFFFFFFFF0
1FFFFFFFFFFFF0
1FFFFFFFFFFFF8
1FFFFFFFFFFFF8
3FFFFFFFFFFFFC
3FFFFFFFFFFFFC
3FFFFFFFFFFFFC
7FFFFFFFFFFFFE
7FFFFFFFFFFFFE
FFFFFFFFFFFFFE
FFFFFFFFFFFFFF
ENDCHAR
STARTCHAR 03A9
ENCODING 937
SWIDTH 797 0
DWIDTH 62 0
BBX 59 57 2 0
BITMAP
000007FFF8000000
00003FFFFF800000
0000FFFFFFE00000
0003FFFFFFF80000
000FFFFFFFFC0000
001FFFFFFFFF0000
003FFFFFFFFF8000
007FFFFFFFFFC000
00FFFFFFFFFFE000
01FFFFFFFFFFE000
03FFFFFFFFFFF000
03FFFFFFFFFFF800
07FFFF803FFFF800
07FFFE000FFFFC00
0FFFF80007FFFC00
0FFFF00003FFFE00
1FFFE00001FFFE00
1FFFE00000FFFE00
1FFFC00000FFFF00
1FFFC000007FFF00
3FFF8000007FFF00
3FFF8000007FFF00
3FFF8000007FFF00
3FFF8000003FFF00
3FFF8000003FFF00
3FFF8000003FFF00
3FFF8000003FFF00
3FFF8000003FFF00
3FFF8000003FFF00
3FFF8000003FFF00
1FFF8000003FFF00
1FFF8000007FFF00
1FFF8000007FFE00
1FFF8000007FFE00
0FFFC000007FFE00
0FFFC00000FFFC00
07FFC00000FFFC00
07FFE00001FFF800
03FFE00001FFF800
03FFF00003FFF000
01FFF80007FFE000
00FFFC0007FFC000
007FFE000FFF8000
003FFF001FFF0000
001FFF001FFE0000
FFFFFF001FFFFFE0
FFFFFF001FFFFFE0
FFFFFF001FFFFFE0
FFFFFF001FFFFFE0
FFFFFF001FFFFFE0
FFFFFF001FFFFFE0
FFFFFF001FFFFFE0
FFFFFF001FFFFFE0
FFFFFF001FFFFFE0
FFFFFF001FFFFFE0
FFFFFF001FFFFFE0
FFFFFF001FFFFFE0
ENDCHAR
STARTCHAR 03BC
ENCODING 956
SWIDTH 630 0
DWIDTH 49 0
BBX 50 57 -2 -16
BITMAP
007FFE000FFFC0
007FFE000FFFC0
007FFC000FFF80
007FFC000FFF80
007FFC000FFF80
00FFFC001FFF80
00FFFC001FFF80
00FFFC001FFF80
00FFFC001FFF00
00FFF8001FFF00
00FFF8001FFF00
01FFF8003FFF00
01FFF8003FFF00
01FFF8003FFF00
01FFF8003FFE00
01FFF8003FFE00
01FFF0003FFE00
01FFF0007FFE00
03FFF0007FFE00
03FFF0007FFE00
03FFF0007FFE00
03FFF0007FFC00
03FFF0007FFC00
03FFE000FFFC00
07FFE000FFFC00
07FFE000FFFC00
07FFF001FFFC00
07FFF001FFF800
07FFF003FFF800
07FFF003FFF800
0FFFF80FFFF800
0FFFFF3FFFF800
0FFFFFFFFFF800
0FFFFFFFFFF000
0FFFFFFFFFF000
0FFFFFFFFFF000
0FFFFFFFFFF000
1FFFFFFEFFF000
1FFFBFFDFFF000
1FFF3FF9FFE000
1FFF0FF1FFE000
1FFF0180000000
1FFF0000000000
3FFF0000000000
3FFF0000000000
3FFE0000000000
3FFE0000000000
3FFE0000000000
3FFE0000000000
3FFE0000000000
7FFE0000000000
7FFE0000000000
7FFC0000000000
7FFC0000000000
7FFC0000000000
7FFC0000000000
FFFC0000000000
ENDCHAR
STARTCHAR 03C0
ENCODING 960
SWIDTH 745 0
DWIDTH 58 0
BBX 58 41 0 0
BITMAP
007FFFFFFFFFFFC0
01FFFFFFFFFFFFC0
07FFFFFFFFFFFFC0
0FFFFFFFFFFFFFC0
1FFFFFFFFFFFFFC0
1FFFFFFFFFFFFF80
3FFFFFFFFFFFFF80
3FFFFFFFFFFFFF80
7FFBFFF007FFC000
7FE3FFF00FFFC000
7FC3FFE00FFFC000
7FC3FFE00FFFC000
FF83FFE00FFFC000
0007FFE00FFF8000
0007FFE00FFF8000
0007FFE01FFF8000
0007FFE01FFF8000
0007FFC01FFF8000
0007FFC01FFF8000
0007FFC01FFF0000
000FFFC01FFF0000
000FFFC01FFF0000
000FFFC03FFF0000
000FFF803FFF0000
000FFF803FFF0000
000FFF803FFE0000
001FFF803FFE0000
001FFF803FFE0000
001FFF807FFE0000
001FFF007FFE0000
001FFF007FFE0000
001FFF007FFE0000
003FFF007FFC0000
003FFF007FFC0000
003FFF00FFFC0000
003FFF00FFFC0000
003FFE00FFFC0000
003FFE00FFFC0000
003FFE00FFF80000
007FFE00FFF80000
007FFE00FFF80000
ENDCHAR
STARTCHAR 1EA0
ENCODING 7840
SWIDTH 617 0
DWIDTH 48 0
BBX 41 75 4 -21
BITMAP
0003FFE00000
001FFFF80000
007FFFFE0000
00FFFFFF8000
01FFFFFFC000
03FFFFFFE000
07FFFFFFF000
0FFFFFFFF800
1FFFFFFFF800
1FFFFFFFFC00
3FFFFFFFFC00
3FFFFFFFFE00
7FFFFFFFFE00
7FFF81FFFF00
7FFF007FFF00
FFFE003FFF00
FFFC003FFF00
FFFC001FFF80
FFF8001FFF80
FFF8001FFF80
FFF8000FFF80
FFF8000FFF80
FFF9FFFFFF80
FFF9FFFFFF80
FFF9FFFFFF80
FFF9FFFFFF80
FFF9FFFFFF80
FFF9FFFFFF80
FFF9FFFFFF80
FFF9FFFFFF80
FFF9FFFFFF80
FFF9FFFFFF80
FFF9FFFFFF80
FFF9FFFFFF80
FFF9FFFFFF80
FFF8000FFF80
FFF8000FFF80
FFF8000FFF80
FFF8000FFF80
FFF8000FFF80
FFF8000FFF80
FFF8000FFF80
FFF8000FFF80
FFF8000FFF80
FFF8000FFF80
FFF8000FFF80
FFF8000FFF80
FFF8000FFF80
FFF8000FFF80
FFF8000FFF80
FFF8000FFF80
FFF8000FFF80
FFF8000FFF80
FFF8000FFF80
FFF8000FFF80
000000000000
000000000000
000000000000
000000000000
000000000000
00007E000000
0000FF800000
0003FFC00000
0003FFE00000
0007FFE00000
0007FFF00000
0007FFF00000
0007FFF00000
0007FFF00000
0007FFF00000
0007FFF00000
0007FFE00000
0003FFC00000
0001FFC00000
0000FF000000
ENDCHAR
STARTCHAR 1EA1
ENCODING 7841
SWIDTH 552 0
DWIDTH 43 0
BBX 39 59 2 -21
BITMAP
0007FF8000
001FFFF000
007FFFF800
01FFFFFE00
03FFFFFF00
07FFFFFF80
0FFFFFFFC0
1FFFFFFFE0
1FFFFFFFF0
3FFFFFFFF0
3FFFFFFFF8
7FFFFFFFF8
7FFF03FFF8
7FFE00FFFC
FFFC007FFC
FFF8007FFC
FFF8003FFC
FFF0003FFC
FFF0003FFC
FFF0003FFC
FFF0003FFE
FFF0003FFE
FFF8003FFE
FFF8003FFE
FFFC003FFE
7FFC003FFE
7FFF00BFFE
7FFFFFBFFE
3FFFFFBFFE
3FFFFFBFFE
1FFFFFBFFE
1FFFFFBFFE
0FFFFFBFFE
07FFFFBFFE
03FFFFBFFE
01FFFFBFFE
00FFFFBFFE
003FFFBFFE
000FFFBFFE
0000500000
0000000000
0000000000
0000000000
0000000000
00007E0000
0001FF8000
0003FFC000
0007FFC000
0007FFE000
000FFFE000
000FFFE000
000FFFF000
000FFFF000
000FFFE000
000FFFE000
0007FFE000
0003FFC000
0001FF8000
0000FF0000
ENDCHAR
STARTCHAR 1EA2
ENCODING 7842
SWIDTH 617 0
DWIDTH 48 0
BBX 41 75 4 0
BITMAP
00001E000000
00007F800000
0001FFC00000
0001FFE00000
0003FFF00000
0003E1F00000
0007C1F80000
0007C0F80000
000000F80000
000001F00000
000007F00000
00001FF00000
00001FE00000
00001FC00000
00001F000000
00001C000000
00001C000000
00001C000000
000000000000
000000000000
0003FFE00000
001FFFF80000
007FFFFE0000
00FFFFFF8000
01FFFFFFC000
03FFFFFFE000
07FFFFFFF000
0FFFFFFFF800
1FFFFFFFF800
1FFFFFFFFC00
3FFFFFFFFC00
3FFFFFFFFE00
7FFFFFFFFE00
7FFF81FFFF00
7FFF007FFF00
FFFE003FFF00
FFFC003FFF00
FFFC001FFF80
FFF8001FFF80
FFF8001FFF80
FFF8000FFF80
FFF8000FFF80
FFF9FFFFFF80
FFF9FFFFFF80
FFF9FFFFFF80
FFF9FFFFFF80
FFF9FFFFFF80
FFF9FFFFFF80
FFF9FFFFFF80
FFF9FFFFFF80
FFF9FFFFFF80
FFF9FFFFFF80
FFF9FFFFFF80
FFF9FFFFFF80
FFF9FFFFFF80
FFF8000FFF80
FFF8000FFF80
FFF8000FFF80
FFF8000FFF80
FFF8000FFF80
FFF8000FFF80
FFF8000FFF80
FFF8000FFF80
FFF8000FFF80
FFF8000FFF80
FFF8000FFF80
FFF8000FFF80
FFF8000FFF80
FFF8000FFF80
FFF8000FFF80
FFF8000FFF80
FFF8000FFF80
FFF8000FFF80
FFF8000FFF80
FFF8000FFF80
ENDCHAR
STARTCHAR 1EA3
ENCODING 7843
SWIDTH 552 0
DWIDTH 43 0
BBX 39 61 2 -1
BITMAP
00003C0000
0000FF0000
0001FF8000
0003FFC000
0007FFE000
0007C3E000
000F81F000
000F81F000
000001F000
000003F000
000007E000
00003FE000
00003FC000
00003F8000
00003E0000
0000380000
0000380000
0000380000
0000000000
0000000000
0000000000
0007FF8000
001FFFF000
007FFFF800
01FFFFFE00
03FFFFFF00
07FFFFFF80
0FFFFFFFC0
1FFFFFFFE0
1FFFFFFFF0
3FFFFFFFF0
3FFFFFFFF8
7FFFFFFFF8
7FFF03FFF8
7FFE00FFFC
FFFC007FFC
FFF8007FFC
FFF8003FFC
FFF0003FFC
FFF0003FFC
FFF0003FFC
FFF0003FFE
FFF0003FFE
FFF8003FFE
FFF8003FFE
FFFC003FFE
7FFC003FFE
7FFF00BFFE
7FFFFFBFFE
3FFFFFBFFE
3FFFFFBFFE
1FFFFFBFFE
1FFFFFBFFE
0FFFFFBFFE
07FFFFBFFE
03FFFFBFFE
01FFFFBFFE
00FFFFBFFE
003FFFBFFE
000FFFBFFE
0000500000
ENDCHAR
STARTCHAR 1EA4
ENCODING 7844
SWIDTH 617 0
DWIDTH 48 0
BBX 41 87 4 0
BITMAP
00003FE00000
00007FC00000
00007FC00000
0000FF800000
0001FF000000
0001FE000000
0003FC000000
0003F8000000
0007F8000000
0007F0000000
000FE0000000
000FC0000000
001F80000000
001F00000000
000000000000
0000FF800000
0001FF800000
0001FFC00000
0003FFE00000
0003FFE00000
0007FFF00000
0007F7F00000
000FE7F80000
000FC3F80000
001FC1FC0000
003F80FC0000
003F007E0000
007E007E0000
007C003F0000
00FC001F0000
000000000000
000000000000
0003FFE00000
001FFFF80000
007FFFFE0000
00FFFFFF8000
01FFFFFFC000
03FFFFFFE000
07FFFFFFF000
0FFFFFFFF800
1FFFFFFFF800
1FFFFFFFFC00
3FFFFFFFFC00
3FFFFFFFFE00
7FFFFFFFFE00
7FFF81FFFF00
7FFF007FFF00
FFFE003FFF00
FFFC003FFF00
FFFC001FFF80
FFF8001FFF80
FFF8001FFF80
FFF8000FFF80
FFF8000FFF80
FFF9FFFFFF80
FFF9FFFFFF80
FFF9FFFFFF80
FFF9FFFFFF80
FFF9FFFFFF80
FFF9FFFFFF80
FFF9FFFFFF80
FFF9FFFFFF80
FFF9FFFFFF80
FFF9FFFFFF80
FFF9FFFFFF80
FFF9FFFFFF80
FFF9FFFFFF80
FFF8000FFF80
FFF8000FFF80
FFF8000FFF80
FFF8000FFF80
FFF8000FFF80
FFF8000FFF80
FFF8000FFF80
FFF8000FFF80
FFF8000FFF80
FFF8000FFF80
FFF8000FFF80
FFF8000FFF80
FFF8000FFF80
FFF8000FFF80
FFF8000FFF80
FFF8000FFF80
FFF8000FFF80
FFF8000FFF80
FFF8000FFF80
FFF8000FFF80
ENDCHAR
STARTCHAR 1EA5
ENCODING 7845
SWIDTH 552 0
DWIDTH 43 0
BBX 39 73 2 -1
BITMAP
00007FE000
0000FFC000
0000FF8000
0001FF0000
0001FE0000
0003FC0000
0003F80000
0007F80000
0007F00000
000FE00000
000FC00000
001F800000
001F000000
003F000000
0000000000
0001FF8000
0001FF8000
0003FFC000
0003FFC000
0007FFE000
000FFFE000
000FEFF000
001FE7F000
001FC3F800
003F81F800
003F01FC00
007E00FC00
007E007E00
00FC003E00
0000000000
0000000000
0000000000
0000000000
0007FF8000
001FFFF000
007FFFF800
01FFFFFE00
03FFFFFF00
07FFFFFF80
0FFFFFFFC0
1FFFFFFFE0
1FFFFFFFF0
3FFFFFFFF0
3FFFFFFFF8
7FFFFFFFF8
7FFF03FFF8
7FFE00FFFC
FFFC007FFC
FFF8007FFC
FFF8003FFC
FFF0003FFC
FFF0003FFC
FFF0003FFC
FFF0003FFE
FFF0003FFE
FFF8003FFE
FFF8003FFE
FFFC003FFE
7FFC003FFE
7FFF00BFFE
7FFFFFBFFE
3FFFFFBFFE
3FFFFFBFFE
1FFFFFBFFE
1FFFFFBFFE
0FFFFFBFFE
07FFFFBFFE
03FFFFBFFE
01FFFFBFFE
00FFFFBFFE
003FFFBFFE
000FFFBFFE
0000500000
ENDCHAR
STARTCHAR 1EA6
ENCODING 7846
SWIDTH 617 0
DWIDTH 48 0
BBX 41 87 4 0
BITMAP
0003FE000000
0003FF000000
0001FF000000
0000FF800000
00007F800000
00003FC00000
00001FC00000
00001FE00000
00000FE00000
000007F00000
000003F00000
000001F80000
000000F80000
000000FC0000
000000000000
0000FF800000
0001FF800000
0001FFC00000
0003FFE00000
0003FFE00000
0007FFF00000
0007F7F00000
000FE7F80000
000FC3F80000
001FC1FC0000
003F80FC0000
003F007E0000
007E007E0000
007C003F0000
00FC001F0000
000000000000
000000000000
0003FFE00000
001FFFF80000
007FFFFE0000
00FFFFFF8000
01FFFFFFC000
03FFFFFFE000
07FFFFFFF000
0FFFFFFFF800
1FFFFFFFF800
1FFFFFFFFC00
3FFFFFFFFC00
3FFFFFFFFE00
7FFFFFFFFE00
7FFF81FFFF00
7FFF007FFF00
FFFE003FFF00
FFFC003FFF00
FFFC001FFF80
FFF8001FFF80
FFF8001FFF80
FFF8000FFF80
FFF8000FFF80
FFF9FFFFFF80
FFF9FFFFFF80
FFF9FFFFFF80
FFF9FFFFFF80
FFF9FFFFFF80
FFF9FFFFFF80
FFF9FFFFFF80
FFF9FFFFFF80
FFF9FFFFFF80
FFF9FFFFFF80
FFF9FFFFFF80
FFF9FFFFFF80
FFF9FFFFFF80
FFF8000FFF80
FFF8000FFF80
FFF8000FFF80
FFF8000FFF80
FFF8000FFF80
FFF8000FFF80
FFF8000FFF80
FFF8000FFF80
FFF8000FFF80
FFF8000FFF80
FFF8000FFF80
FFF8000FFF80
FFF8000FFF80
FFF8000FFF80
FFF8000FFF80
FFF8000FFF80
FFF8000FFF80
FFF8000FFF80
FFF8000FFF80
FFF8000FFF80
ENDCHAR
STARTCHAR 1EA7
ENCODING 7847
SWIDTH 552 0
DWIDTH 43 0
BBX 39 73 2 -1
BITMAP
0007FE0000
0003FE0000
0001FF0000
0000FF0000
00007F8000
00007F8000
00003FC000
00001FC000
00000FE000
000007F000
000003F000
000001F800
000001F800
000000FC00
0000000000
0001FF8000
0001FF8000
0003FFC000
0003FFC000
0007FFE000
000FFFE000
000FEFF000
001FE7F000
001FC3F800
003F81F800
003F01FC00
007E00FC00
007E007E00
00FC003E00
0000000000
0000000000
0000000000
0000000000
0007FF8000
001FFFF000
007FFFF800
01FFFFFE00
03FFFFFF00
07FFFFFF80
0FFFFFFFC0
1FFFFFFFE0
1FFFFFFFF0
3FFFFFFFF0
3FFFFFFFF8
7FFFFFFFF8
7FFF03FFF8
7FFE00FFFC
FFFC007FFC
FFF8007FFC
FFF8003FFC
FFF0003FFC
FFF0003FFC
FFF0003FFC
FFF0003FFE
FFF0003FFE
FFF8003FFE
FFF8003FFE
FFFC003FFE
7FFC003FFE
7FFF00BFFE
7FFFFFBFFE
3FFFFFBFFE
3FFFFFBFFE
1FFFFFBFFE
1FFFFFBFFE
0FFFFFBFFE
07FFFFBFFE
03FFFFBFFE
01FFFFBFFE
00FFFFBFFE
003FFFBFFE
000FFFBFFE
0000500000
ENDCHAR
STARTCHAR 1EA8
ENCODING 7848
SWIDTH 617 0
DWIDTH 48 0
BBX 41 87 4 1
BITMAP
0000001FC000
0000003FF000
0000007FF800
000000FFFC00
000001FCFC00
000001F07C00
000001F03E00
000000303E00
000000007C00
00000000FC00
0000000FFC00
0000000FF800
0000000FF000
0000000FC000
0000000F0000
0000FF8F0000
0001FF8F0000
0001FFC00000
0003FFE00000
0003FFE00000
0007FFF00000
0007F7F00000
000FE7F80000
000FC3F80000
001FC1FC0000
003F80FC0000
003F007E0000
007E007E0000
007C003F0000
00FC001F0000
000000000000
000000000000
0003FFE00000
001FFFF80000
007FFFFE0000
00FFFFFF8000
01FFFFFFC000
03FFFFFFE000
07FFFFFFF000
0FFFFFFFF800
1FFFFFFFF800
1FFFFFFFFC00
3FFFFFFFFC00
3FFFFFFFFE00
7FFFFFFFFE00
7FFF81FFFF00
7FFF007FFF00
FFFE003FFF00
FFFC003FFF00
FFFC001FFF80
FFF8001FFF80
FFF8001FFF80
FFF8000FFF80
FFF8000FFF80
FFF9FFFFFF80
FFF9FFFFFF80
FFF9FFFFFF80
FFF9FFFFFF80
FFF9FFFFFF80
FFF9FFFFFF80
FFF9FFFFFF80
FFF9FFFFFF80
FFF9FFFFFF80
FFF9FFFFFF80
FFF9FFFFFF80
FFF9FFFFFF80
FFF9FFFFFF80
FFF8000FFF80
FFF8000FFF80
FFF8000FFF80
FFF8000FFF80
FFF8000FFF80
FFF8000FFF80
FFF8000FFF80
FFF8000FFF80
FFF8000FFF80
FFF8000FFF80
FFF8000FFF80
FFF8000FFF80
FFF8000FFF80
FFF8000FFF80
FFF8000FFF80
FFF8000FFF80
FFF8000FFF80
FFF8000FFF80
FFF8000FFF80
FFF8000FFF80
ENDCHAR
STARTCHAR 1EA9
ENCODING 7849
SWIDTH 552 0
DWIDTH 43 0
BBX 39 74 2 -1
BITMAP
0000000F00
0000003FC0
0000007FF0
000000FFF8
000001FFF8
000001F0FC
000001F07C
000001E07C
000000007C
00000000FC
00000001FC
0000000FF8
0000000FF0
0000000FE0
0000000F80
0000000F00
0001FF8F00
0001FF8F00
0003FFC000
0003FFC000
0007FFE000
000FFFE000
000FEFF000
001FE7F000
001FC3F800
003F81F800
003F01FC00
007E00FC00
007E007E00
00FC003E00
0000000000
0000000000
0000000000
0000000000
0007FF8000
001FFFF000
007FFFF800
01FFFFFE00
03FFFFFF00
07FFFFFF80
0FFFFFFFC0
1FFFFFFFE0
1FFFFFFFF0
3FFFFFFFF0
3FFFFFFFF8
7FFFFFFFF8
7FFF03FFF8
7FFE00FFFC
FFFC007FFC
FFF8007FFC
FFF8003FFC
FFF0003FFC
FFF0003FFC
FFF0003FFC
FFF0003FFE
FFF0003FFE
FFF8003FFE
FFF8003FFE
FFFC003FFE
7FFC003FFE
7FFF00BFFE
7FFFFFBFFE
3FFFFFBFFE
3FFFFFBFFE
1FFFFFBFFE
1FFFFFBFFE
0FFFFFBFFE
07FFFFBFFE
03FFFFBFFE
01FFFFBFFE
00FFFFBFFE
003FFFBFFE
000FFFBFFE
0000500000
ENDCHAR
STARTCHAR 1EAA
ENCODING 7850
SWIDTH 617 0
DWIDTH 48 0
BBX 41 84 4 0
BITMAP
00000003C000
0000F803C000
0003FF87C000
0007FFFF8000
0007FFFF8000
000FFFFF0000
000FFFFF0000
001F07FE0000
001E00F80000
001E00000000
000000000000
000000000000
0000FF800000
0001FF800000
0001FFC00000
0003FFE00000
0003FFE00000
0007FFF00000
0007F7F00000
000FE7F80000
000FC3F80000
001FC1FC0000
003F80FC0000
003F007E0000
007E007E0000
007C003F0000
00FC001F0000
000000000000
000000000000
0003FFE00000
001FFFF80000
007FFFFE0000
00FFFFFF8000
01FFFFFFC000
03FFFFFFE000
07FFFFFFF000
0FFFFFFFF800
1FFFFFFFF800
1FFFFFFFFC00
3FFFFFFFFC00
3FFFFFFFFE00
7FFFFFFFFE00
7FFF81FFFF00
7FFF007FFF00
FFFE003FFF00
FFFC003FFF00
FFFC001FFF80
FFF8001FFF80
FFF8001FFF80
FFF8000FFF80
FFF8000FFF80
FFF9FFFFFF80
FFF9FFFFFF80
FFF9FFFFFF80
FFF9FFFFFF80
FFF9FFFFFF80
FFF9FFFFFF80
FFF9FFFFFF80
FFF9FFFFFF80
FFF9FFFFFF80
FFF9FFFFFF80
FFF9FFFFFF80
FFF9FFFFFF80
FFF9FFFFFF80
FFF8000FFF80
FFF8000FFF80
FFF8000FFF80
FFF8000FFF80
FFF8000FFF80
FFF8000FFF80
FFF8000FFF80
FFF8000FFF80
FFF8000FFF80
FFF8000FFF80
FFF8000FFF80
FFF8000FFF80
FFF8000FFF80
FFF8000FFF80
FFF8000FFF80
FFF8000FFF80
FFF8000FFF80
FFF8000FFF80
FFF8000FFF80
FFF8000FFF80
ENDCHAR
STARTCHAR 1EAB
ENCODING 7851
SWIDTH 552 0
DWIDTH 43 0
BBX 39 71 2 -1
BITMAP
00000003C0
00000003C0
0001FC07C0
0007FFDF80
000FFFFF80
000FFFFF00
001FFFFF00
001FFFFE00
001F07FC00
003E002000
003C000000
0000000000
0000000000
0001FF8000
0001FF8000
0003FFC000
0003FFC000
0007FFE000
000FFFE000
000FEFF000
001FE7F000
001FC3F800
003F81F800
003F01FC00
007E00FC00
007E007E00
00FC003E00
0000000000
0000000000
0000000000
0000000000
0007FF8000
001FFFF000
007FFFF800
01FFFFFE00
03FFFFFF00
07FFFFFF80
0FFFFFFFC0
1FFFFFFFE0
1FFFFFFFF0
3FFFFFFFF0
3FFFFFFFF8
7FFFFFFFF8
7FFF03FFF8
7FFE00FFFC
FFFC007FFC
FFF8007FFC
FFF8003FFC
FFF0003FFC
FFF0003FFC
FFF0003FFC
FFF0003FFE
FFF0003FFE
FFF8003FFE
FFF8003FFE
FFFC003FFE
7FFC003FFE
7FFF00BFFE
7FFFFFBFFE
3FFFFFBFFE
3FFFFFBFFE
1FFFFFBFFE
1FFFFFBFFE
0FFFFFBFFE
07FFFFBFFE
03FFFFBFFE
01FFFFBFFE
00FFFFBFFE
003FFFBFFE
000FFFBFFE
0000500000
ENDCHAR
STARTCHAR 1EAC
ENCODING 7852
SWIDTH 617 0
DWIDTH 48 0
BBX 41 92 4 -21
BITMAP
0000FF800000
0001FF800000
0001FFC00000
0003FFE00000
0003FFE00000
0007FFF00000
0007F7F00000
000FE7F80000
000FC3F80000
001FC1FC0000
003F80FC0000
003F007E0000
007E007E0000
007C003F0000
00FC001F0000
000000000000
000000000000
0003FFE00000
001FFFF80000
007FFFFE0000
00FFFFFF8000
01FFFFFFC000
03FFFFFFE000
07FFFFFFF000
0FFFFFFFF800
1FFFFFFFF800
1FFFFFFFFC00
3FFFFFFFFC00
3FFFFFFFFE00
7FFFFFFFFE00
7FFF81FFFF00
7FFF007FFF00
FFFE003FFF00
FFFC003FFF00
FFFC001FFF80
FFF8001FFF80
FFF8001FFF80
FFF8000FFF80
FFF8000FFF80
FFF9FFFFFF80
FFF9FFFFFF80
FFF9FFFFFF80
FFF9FFFFFF80
FFF9FFFFFF80
FFF9FFFFFF80
FFF9FFFFFF80
FFF9FFFFFF80
FFF9FFFFFF80
FFF9FFFFFF80
FFF9FFFFFF80
FFF9FFFFFF80
FFF9FFFFFF80
FFF8000FFF80
FFF8000FFF80
FFF8000FFF80
FFF8000FFF80
FFF8000FFF80
FFF8000FFF80
FFF8000FFF80
FFF8000FFF80
FFF8000FFF80
FFF8000FFF80
FFF8000FFF80
FFF8000FFF80
FFF8000FFF80
FFF8000FFF80
FFF8000FFF80
FFF8000FFF80
FFF8000FFF80
FFF8000FFF80
FFF8000FFF80
FFF8000FFF80
000000000000
000000000000
000000000000
000000000000
000000000000
00007E000000
0000FF800000
0003FFC00000
0003FFE00000
0007FFE00000
0007FFF00000
0007FFF00000
0007FFF00000
0007FFF00000
0007FFF00000
0007FFF00000
0007FFE00000
0003FFC00000
0001FFC00000
0000FF000000
ENDCHAR
STARTCHAR 1EAD
ENCODING 7853
SWIDTH 552 0
DWIDTH 43 0
BBX 39 77 2 -21
BITMAP
0001FF8000
0001FF8000
0003FFC000
0003FFC000
0007FFE000
000FFFE000
000FEFF000
001FE7F000
001FC3F800
003F81F800
003F01FC00
007E00FC00
007E007E00
00FC003E00
0000000000
0000000000
0000000000
0000000000
0007FF8000
001FFFF000
007FFFF800
01FFFFFE00
03FFFFFF00
07FFFFFF80
0FFFFFFFC0
1FFFFFFFE0
1FFFFFFFF0
3FFFFFFFF0
3FFFFFFFF8
7FFFFFFFF8
7FFF03FFF8
7FFE00FFFC
FFFC007FFC
FFF8007FFC
FFF8003FFC
FFF0003FFC
FFF0003FFC
FFF0003FFC
FFF0003FFE
FFF0003FFE
FFF8003FFE
FFF8003FFE
FFFC003FFE
7FFC003FFE
7FFF00BFFE
7FFFFFBFFE
3FFFFFBFFE
3FFFFFBFFE
1FFFFFBFFE
1FFFFFBFFE
0FFFFFBFFE
07FFFFBFFE
03FFFFBFFE
01FFFFBFFE
00FFFFBFFE
003FFFBFFE
000FFFBFFE
0000500000
0000000000
0000000000
0000000000
0000000000
00007E0000
0001FF8000
0003FFC000
0007FFC000
0007FFE000
000FFFE000
000FFFE000
000FFFF000
000FFFF000
000FFFE000
000FFFE000
0007FFE000
0003FFC000
0001FF8000
0000FF0000
ENDCHAR
STARTCHAR 1EAE
ENCODING 7854
SWIDTH 617 0
DWIDTH 48 0
BBX 41 87 4 0
BITMAP
000007FE0000
000007FC0000
00000FF80000
00000FF80000
00001FF00000
00001FE00000
00003FC00000
00003F800000
00007F000000
00007E000000
0000FE000000
0000FC000000
0001F8000000
0001F0000000
000000000000
000000000000
000000000000
0078001F0000
007C001F0000
007C001F0000
007E003E0000
003F007E0000
003FFFFE0000
003FFFFC0000
001FFFFC0000
000FFFF80000
0007FFE00000
0001FFC00000
000000000000
000000000000
000000000000
000000000000
0003FFE00000
001FFFF80000
007FFFFE0000
00FFFFFF8000
01FFFFFFC000
03FFFFFFE000
07FFFFFFF000
0FFFFFFFF800
1FFFFFFFF800
1FFFFFFFFC00
3FFFFFFFFC00
3FFFFFFFFE00
7FFFFFFFFE00
7FFF81FFFF00
7FFF007FFF00
FFFE003FFF00
FFFC003FFF00
FFFC001FFF80
FFF8001FFF80
FFF8001FFF80
FFF8000FFF80
FFF8000FFF80
FFF9FFFFFF80
FFF9FFFFFF80
FFF9FFFFFF80
FFF9FFFFFF80
FFF9FFFFFF80
FFF9FFFFFF80
FFF9FFFFFF80
FFF9FFFFFF80
FFF9FFFFFF80
FFF9FFFFFF80
FFF9FFFFFF80
FFF9FFFFFF80
FFF9FFFFFF80
FFF8000FFF80
FFF8000FFF80
FFF8000FFF80
FFF8000FFF80
FFF8000FFF80
FFF8000FFF80
FFF8000FFF80
FFF8000FFF80
FFF8000FFF80
FFF8000FFF80
FFF8000FFF80
FFF8000FFF80
FFF8000FFF80
FFF8000FFF80
FFF8000FFF80
FFF8000FFF80
FFF8000FFF80
FFF8000FFF80
FFF8000FFF80
FFF8000FFF80
ENDCHAR
STARTCHAR 1EAF
ENCODING 7855
SWIDTH 552 0
DWIDTH 43 0
BBX 39 73 2 -1
BITMAP
000007FE00
00000FF800
00000FF800
00001FF000
00001FE000
00003FC000
00003F8000
00007F0000
0000FF0000
0000FE0000
0001FC0000
0001F80000
0003F00000
0003E00000
0000000000
0000000000
00F8001F00
00F8001E00
00F8003E00
007C003E00
007E007E00
007F01FE00
003FFFFC00
003FFFFC00
001FFFF800
000FFFF000
0007FFC000
0000FF0000
0000000000
0000000000
0000000000
0000000000
0000000000
0007FF8000
001FFFF000
007FFFF800
01FFFFFE00
03FFFFFF00
07FFFFFF80
0FFFFFFFC0
1FFFFFFFE0
1FFFFFFFF0
3FFFFFFFF0
3FFFFFFFF8
7FFFFFFFF8
7FFF03FFF8
7FFE00FFFC
FFFC007FFC
FFF8007FFC
FFF8003FFC
FFF0003FFC
FFF0003FFC
FFF0003FFC
FFF0003FFE
FFF0003FFE
FFF8003FFE
FFF8003FFE
FFFC003FFE
7FFC003FFE
7FFF00BFFE
7FFFFFBFFE
3FFFFFBFFE
3FFFFFBFFE
1FFFFFBFFE
1FFFFFBFFE
0FFFFFBFFE
07FFFFBFFE
03FFFFBFFE
01FFFFBFFE
00FFFFBFFE
003FFFBFFE
000FFFBFFE
0000500000
ENDCHAR
STARTCHAR 1EB0
ENCODING 7856
SWIDTH 617 0
DWIDTH 48 0
BBX 41 87 4 0
BITMAP
003FE0000000
003FF0000000
001FF0000000
000FF8000000
0007F8000000
0003FC000000
0001FC000000
0001FE000000
0000FE000000
00007F000000
00003F800000
00001F800000
00000FC00000
000007C00000
000000000000
000000000000
000000000000
0078001F0000
007C001F0000
007C001F0000
007E003E0000
003F007E0000
003FFFFE0000
003FFFFC0000
001FFFFC0000
000FFFF80000
0007FFE00000
0001FFC00000
000000000000
000000000000
000000000000
000000000000
0003FFE00000
001FFFF80000
007FFFFE0000
00FFFFFF8000
01FFFFFFC000
03FFFFFFE000
07FFFFFFF000
0FFFFFFFF800
1FFFFFFFF800
1FFFFFFFFC00
3FFFFFFFFC00
3FFFFFFFFE00
7FFFFFFFFE00
7FFF81FFFF00
7FFF007FFF00
FFFE003FFF00
FFFC003FFF00
FFFC001FFF80
FFF8001FFF80
FFF8001FFF80
FFF8000FFF80
FFF8000FFF80
FFF9FFFFFF80
FFF9FFFFFF80
FFF9FFFFFF80
FFF9FFFFFF80
FFF9FFFFFF80
FFF9FFFFFF80
FFF9FFFFFF80
FFF9FFFFFF80
FFF9FFFFFF80
FFF9FFFFFF80
FFF9FFFFFF80
FFF9FFFFFF80
FFF9FFFFFF80
FFF8000FFF80
FFF8000FFF80
FFF8000FFF80
FFF8000FFF80
FFF8000FFF80
FFF8000FFF80
FFF8000FFF80
FFF8000FFF80
FFF8000FFF80
FFF8000FFF80
FFF8000FFF80
FFF8000FFF80
FFF8000FFF80
FFF8000FFF80
FFF8000FFF80
FFF8000FFF80
FFF8000FFF80
FFF8000FFF80
FFF8000FFF80
FFF8000FFF80
ENDCHAR
STARTCHAR 1EB1
ENCODING 7857
SWIDTH 552 0
DWIDTH 43 0
BBX 39 73 2 -1
BITMAP
007FE00000
003FF00000
001FF00000
000FF80000
0007F80000
0003FC0000
0001FC0000
0001FE0000
0000FE0000
00007F0000
00003F0000
00001F8000
00000F8000
00000FC000
0000000000
0000000000
00F8001F00
00F8001E00
00F8003E00
007C003E00
007E007E00
007F01FE00
003FFFFC00
003FFFFC00
001FFFF800
000FFFF000
0007FFC000
0000FF0000
0000000000
0000000000
0000000000
0000000000
0000000000
0007FF8000
001FFFF000
007FFFF800
01FFFFFE00
03FFFFFF00
07FFFFFF80
0FFFFFFFC0
1FFFFFFFE0
1FFFFFFFF0
3FFFFFFFF0
3FFFFFFFF8
7FFFFFFFF8
7FFF03FFF8
7FFE00FFFC
FFFC007FFC
FFF8007FFC
FFF8003FFC
FFF0003FFC
FFF0003FFC
FFF0003FFC
FFF0003FFE
FFF0003FFE
FFF8003FFE
FFF8003FFE
FFFC003FFE
7FFC003FFE
7FFF00BFFE
7FFFFFBFFE
3FFFFFBFFE
3FFFFFBFFE
1FFFFFBFFE
1FFFFFBFFE
0FFFFFBFFE
07FFFFBFFE
03FFFFBFFE
01FFFFBFFE
00FFFFBFFE
003FFFBFFE
000FFFBFFE
0000500000
ENDCHAR
STARTCHAR 1EB2
ENCODING 7858
SWIDTH 617 0
DWIDTH 48 0
BBX 41 87 4 0
BITMAP
00007F000000
0000FF800000
0001FFC00000
0003FFE00000
0007F7F00000
0007C1F00000
0007C1F00000
000081F00000
000001F00000
000003F00000
00003FE00000
00003FE00000
00003FC00000
00003F000000
00003C000000
00003C000000
00003C000000
0078001F0000
007C001F0000
007C001F0000
007E003E0000
003F007E0000
003FFFFE0000
003FFFFC0000
001FFFFC0000
000FFFF80000
0007FFE00000
0001FFC00000
000000000000
000000000000
000000000000
000000000000
0003FFE00000
001FFFF80000
007FFFFE0000
00FFFFFF8000
01FFFFFFC000
03FFFFFFE000
07FFFFFFF000
0FFFFFFFF800
1FFFFFFFF800
1FFFFFFFFC00
3FFFFFFFFC00
3FFFFFFFFE00
7FFFFFFFFE00
7FFF81FFFF00
7FFF007FFF00
FFFE003FFF00
FFFC003FFF00
FFFC001FFF80
FFF8001FFF80
FFF8001FFF80
FFF8000FFF80
FFF8000FFF80
FFF9FFFFFF80
FFF9FFFFFF80
FFF9FFFFFF80
FFF9FFFFFF80
FFF9FFFFFF80
FFF9FFFFFF80
FFF9FFFFFF80
FFF9FFFFFF80
FFF9FFFFFF80
FFF9FFFFFF80
FFF9FFFFFF80
FFF9FFFFFF80
FFF9FFFFFF80
FFF8000FFF80
FFF8000FFF80
FFF8000FFF80
FFF8000FFF80
FFF8000FFF80
FFF8000FFF80
FFF8000FFF80
FFF8000FFF80
FFF8000FFF80
FFF8000FFF80
FFF8000FFF80
FFF8000FFF80
FFF8000FFF80
FFF8000FFF80
FFF8000FFF80
FFF8000FFF80
FFF8000FFF80
FFF8000FFF80
FFF8000FFF80
FFF8000FFF80
ENDCHAR
STARTCHAR 1EB3
ENCODING 7859
SWIDTH 552 0
DWIDTH 43 0
BBX 39 74 2 -1
BITMAP
00003C0000
0000FF0000
0001FF8000
0003FFC000
0007FFE000
0007C3E000
000F81F000
000F81F000
000001F000
000003F000
000007E000
00003FE000
00003FC000
00003F8000
00003E0000
0000380000
0000380000
00F8381F00
00F8001E00
00F8003E00
007C003E00
007E007E00
007F01FE00
003FFFFC00
003FFFFC00
001FFFF800
000FFFF000
0007FFC000
0000FF0000
0000000000
0000000000
0000000000
0000000000
0000000000
0007FF8000
001FFFF000
007FFFF800
01FFFFFE00
03FFFFFF00
07FFFFFF80
0FFFFFFFC0
1FFFFFFFE0
1FFFFFFFF0
3FFFFFFFF0
3FFFFFFFF8
7FFFFFFFF8
7FFF03FFF8
7FFE00FFFC
FFFC007FFC
FFF8007FFC
FFF8003FFC
FFF0003FFC
FFF0003FFC
FFF0003FFC
FFF0003FFE
FFF0003FFE
FFF8003FFE
FFF8003FFE
FFFC003FFE
7FFC003FFE
7FFF00BFFE
7FFFFFBFFE
3FFFFFBFFE
3FFFFFBFFE
1FFFFFBFFE
1FFFFFBFFE
0FFFFFBFFE
07FFFFBFFE
03FFFFBFFE
01FFFFBFFE
00FFFFBFFE
003FFFBFFE
000FFFBFFE
0000500000
ENDCHAR
STARTCHAR 1EB4
ENCODING 7860
SWIDTH 617 0
DWIDTH 48 0
BBX 41 84 4 0
BITMAP
0000000F8000
0001E00F0000
0007FE1F0000
000FFFFF0000
001FFFFE0000
003FFFFE0000
003FFFFC0000
007E1FF80000
007C03F00000
007800000000
000000000000
000000000000
000000000000
000000000000
0078001F0000
007C001F0000
007C001F0000
007E003E0000
003F007E0000
003FFFFE0000
003FFFFC0000
001FFFFC0000
000FFFF80000
0007FFE00000
0001FFC00000
000000000000
000000000000
000000000000
000000000000
0003FFE00000
001FFFF80000
007FFFFE0000
00FFFFFF8000
01FFFFFFC000
03FFFFFFE000
07FFFFFFF000
0FFFFFFFF800
1FFFFFFFF800
1FFFFFFFFC00
3FFFFFFFFC00
3FFFFFFFFE00
7FFFFFFFFE00
7FFF81FFFF00
7FFF007FFF00
FFFE003FFF00
FFFC003FFF00
FFFC001FFF80
FFF8001FFF80
FFF8001FFF80
FFF8000FFF80
FFF8000FFF80
FFF9FFFFFF80
FFF9FFFFFF80
FFF9FFFFFF80
FFF9FFFFFF80
FFF9FFFFFF80
FFF9FFFFFF80
FFF9FFFFFF80
FFF9FFFFFF80
FFF9FFFFFF80
FFF9FFFFFF80
FFF9FFFFFF80
FFF9FFFFFF80
FFF9FFFFFF80
FFF8000FFF80
FFF8000FFF80
FFF8000FFF80
FFF8000FFF80
FFF8000FFF80
FFF8000FFF80
FFF8000FFF80
FFF8000FFF80
FFF8000FFF80
FFF8000FFF80
FFF8000FFF80
FFF8000FFF80
FFF8000FFF80
FFF8000FFF80
FFF8000FFF80
FFF8000FFF80
FFF8000FFF80
FFF8000FFF80
FFF8000FFF80
FFF8000FFF80
ENDCHAR
STARTCHAR 1EB5
ENCODING 7861
SWIDTH 552 0
DWIDTH 43 0
BBX 39 71 2 -1
BITMAP
0000000F00
0000000F00
0007F01F00
000FFF7F00
001FFFFE00
003FFFFE00
003FFFFC00
007FFFF800
007C1FF000
0078008000
00F8000000
0000000000
0000000000
0000000000
00F8001F00
00F8001E00
00F8003E00
007C003E00
007E007E00
007F01FE00
003FFFFC00
003FFFFC00
001FFFF800
000FFFF000
0007FFC000
0000FF0000
0000000000
0000000000
0000000000
0000000000
0000000000
0007FF8000
001FFFF000
007FFFF800
01FFFFFE00
03FFFFFF00
07FFFFFF80
0FFFFFFFC0
1FFFFFFFE0
1FFFFFFFF0
3FFFFFFFF0
3FFFFFFFF8
7FFFFFFFF8
7FFF03FFF8
7FFE00FFFC
FFFC007FFC
FFF8007FFC
FFF8003FFC
FFF0003FFC
FFF0003FFC
FFF0003FFC
FFF0003FFE
FFF0003FFE
FFF8003FFE
FFF8003FFE
FFFC003FFE
7FFC003FFE
7FFF00BFFE
7FFFFFBFFE
3FFFFFBFFE
3FFFFFBFFE
1FFFFFBFFE
1FFFFFBFFE
0FFFFFBFFE
07FFFFBFFE
03FFFFBFFE
01FFFFBFFE
00FFFFBFFE
003FFFBFFE
000FFFBFFE
0000500000
ENDCHAR
STARTCHAR 1EB6
ENCODING 7862
SWIDTH 617 0
DWIDTH 48 0
BBX 41 90 4 -21
BITMAP
0078001F0000
007C001F0000
007C001F0000
007E003E0000
003F007E0000
003FFFFE0000
003FFFFC0000
001FFFFC0000
000FFFF80000
0007FFE00000
0001FFC00000
000000000000
000000000000
000000000000
000000000000
0003FFE00000
001FFFF80000
007FFFFE0000
00FFFFFF8000
01FFFFFFC000
03FFFFFFE000
07FFFFFFF000
0FFFFFFFF800
1FFFFFFFF800
1FFFFFFFFC00
3FFFFFFFFC00
3FFFFFFFFE00
7FFFFFFFFE00
7FFF81FFFF00
7FFF007FFF00
FFFE003FFF00
FFFC003FFF00
FFFC001FFF80
FFF8001FFF80
FFF8001FFF80
FFF8000FFF80
FFF8000FFF80
FFF9FFFFFF80
FFF9FFFFFF80
FFF9FFFFFF80
FFF9FFFFFF80
FFF9FFFFFF80
FFF9FFFFFF80
FFF9FFFFFF80
FFF9FFFFFF80
FFF9FFFFFF80
FFF9FFFFFF80
FFF9FFFFFF80
FFF9FFFFFF80
FFF9FFFFFF80
FFF8000FFF80
FFF8000FFF80
FFF8000FFF80
FFF8000FFF80
FFF8000FFF80
FFF8000FFF80
FFF8000FFF80
FFF8000FFF80
FFF8000FFF80
FFF8000FFF80
FFF8000FFF80
FFF8000FFF80
FFF8000FFF80
FFF8000FFF80
FFF8000FFF80
FFF8000FFF80
FFF8000FFF80
FFF8000FFF80
FFF8000FFF80
FFF8000FFF80
000000000000
000000000000
000000000000
000000000000
000000000000
00007E000000
0000FF800000
0003FFC00000
0003FFE00000
0007FFE00000
0007FFF00000
0007FFF00000
0007FFF00000
0007FFF00000
0007FFF00000
0007FFF00000
0007FFE00000
0003FFC00000
0001FFC00000
0000FF000000
ENDCHAR
STARTCHAR 1EB7
ENCODING 7863
SWIDTH 552 0
DWIDTH 43 0
BBX 39 76 2 -21
BITMAP
00F8001F00
00F8001E00
00F8003E00
007C003E00
007E007E00
007F01FE00
003FFFFC00
003FFFFC00
001FFFF800
000FFFF000
0007FFC000
0000FF0000
0000000000
0000000000
0000000000
0000000000
0000000000
0007FF8000
001FFFF000
007FFFF800
01FFFFFE00
03FFFFFF00
07FFFFFF80
0FFFFFFFC0
1FFFFFFFE0
1FFFFFFFF0
3FFFFFFFF0
3FFFFFFFF8
7FFFFFFFF8
7FFF03FFF8
7FFE00FFFC
FFFC007FFC
FFF8007FFC
FFF8003FFC
FFF0003FFC
FFF0003FFC
FFF0003FFC
FFF0003FFE
FFF0003FFE
FFF8003FFE
FFF8003FFE
FFFC003FFE
7FFC003FFE
7FFF00BFFE
7FFFFFBFFE
3FFFFFBFFE
3FFFFFBFFE
1FFFFFBFFE
1FFFFFBFFE
0FFFFFBFFE
07FFFFBFFE
03FFFFBFFE
01FFFFBFFE
00FFFFBFFE
003FFFBFFE
000FFFBFFE
0000500000
0000000000
0000000000
0000000000
0000000000
00007E0000
0001FF8000
0003FFC000
0007FFC000
0007FFE000
000FFFE000
000FFFE000
000FFFF000
000FFFF000
000FFFE000
000FFFE000
0007FFE000
0003FFC000
0001FF8000
0000FF0000
ENDCHAR
STARTCHAR 1EB8
ENCODING 7864
SWIDTH 514 0
DWIDTH 40 0
BBX 35 75 2 -21
BITMAP
000001FFE0
00001FFFE0
0000FFFFE0
0003FFFFE0
000FFFFFE0
001FFFFFE0
007FFFFFE0
00FFFFFFE0
01FFFFFFE0
03FFFFFFE0
07FFFFFFE0
07FFFFFFE0
0FFFFFC000
1FFFFE0000
1FFFF00000
3FFFE00000
3FFFC00000
3FFF800000
7FFF000000
7FFF000000
7FFFFFFFE0
7FFFFFFFE0
FFFFFFFFE0
FFFFFFFFE0
FFFFFFFFE0
FFFFFFFFE0
FFFFFFFFE0
FFFFFFFFE0
FFFFFFFFE0
FFFFFFFFE0
FFFFFFFFE0
FFFFFFFFE0
7FFFFFFFE0
7FFE000000
7FFF000000
7FFF000000
3FFF800000
3FFFC00000
1FFFE00000
1FFFF80000
0FFFFF0000
0FFFFFFFC0
07FFFFFFE0
03FFFFFFE0
01FFFFFFE0
00FFFFFFE0
007FFFFFE0
003FFFFFE0
001FFFFFE0
0007FFFFE0
0001FFFFE0
00007FFFE0
00000FFFE0
0000007FE0
0000000000
0000000000
0000000000
0000000000
0000000000
000007E000
00001FF000
00003FF800
00007FFC00
0000FFFE00
0000FFFE00
0000FFFE00
0000FFFE00
0000FFFE00
0000FFFE00
0000FFFE00
00007FFE00
00007FFC00
00003FF800
00000FF000
0000010000
ENDCHAR
STARTCHAR 1EB9
ENCODING 7865
SWIDTH 552 0
DWIDTH 43 0
BBX 40 60 2 -21
BITMAP
0003FF8000
001FFFF000
007FFFF800
00FFFFFE00
01FFFFFF00
03FFFFFF80
07FFFFFFC0
0FFFFFFFE0
1FFFFFFFF0
1FFFC3FFF0
3FFF00FFF8
3FFC01FFF8
7FFC07FFF8
7FF80FFFE0
7FF01FFFC0
FFF07FFF00
FFF0FFFE00
FFF3FFF800
FFF1FFF000
FFF0FFC000
FFF0FF8100
FFF07F03C0
FFF03C03F0
FFF83807FC
FFF8000FFF
7FFC001FFF
7FFE003FFF
7FFF80FFFE
3FFFFFFFFC
3FFFFFFFFC
1FFFFFFFF8
0FFFFFFFF0
0FFFFFFFE0
07FFFFFFE0
03FFFFFF80
01FFFFFF00
007FFFFE00
003FFFF800
0007FFE000
00007C0000
0000000000
0000000000
0000000000
0000000000
00007C0000
0001FF0000
0003FF8000
0007FFC000
000FFFE000
000FFFE000
000FFFE000
000FFFE000
000FFFE000
000FFFE000
000FFFE000
0007FFC000
0007FFC000
0003FF8000
0001FE0000
0000100000
ENDCHAR
STARTCHAR 1EBA
ENCODING 7866
SWIDTH 514 0
DWIDTH 40 0
BBX 35 75 2 0
BITMAP
0000003C00
000000FF00
000003FF80
000007FFC0
000007FFE0
00000FC7E0
00000F83E0
00000F83E0
00000003E0
00000003E0
0000000FE0
0000007FC0
0000007FC0
0000007F00
0000007C00
0000007800
0000007800
0000007800
0000000000
0000000000
0000000000
000001FFE0
00001FFFE0
0000FFFFE0
0003FFFFE0
000FFFFFE0
001FFFFFE0
007FFFFFE0
00FFFFFFE0
01FFFFFFE0
03FFFFFFE0
07FFFFFFE0
07FFFFFFE0
0FFFFFC000
1FFFFE0000
1FFFF00000
3FFFE00000
3FFFC00000
3FFF800000
7FFF000000
7FFF000000
7FFFFFFFE0
7FFFFFFFE0
FFFFFFFFE0
FFFFFFFFE0
FFFFFFFFE0
FFFFFFFFE0
FFFFFFFFE0
FFFFFFFFE0
FFFFFFFFE0
FFFFFFFFE0
FFFFFFFFE0
FFFFFFFFE0
7FFFFFFFE0
7FFE000000
7FFF000000
7FFF000000
3FFF800000
3FFFC00000
1FFFE00000
1FFFF80000
0FFFFF0000
0FFFFFFFC0
07FFFFFFE0
03FFFFFFE0
01FFFFFFE0
00FFFFFFE0
007FFFFFE0
003FFFFFE0
001FFFFFE0
0007FFFFE0
0001FFFFE0
00007FFFE0
00000FFFE0
0000007FE0
ENDCHAR
STARTCHAR 1EBB
ENCODING 7867
SWIDTH 552 0
DWIDTH 43 0
BBX 40 61 2 -1
BITMAP
00003C0000
0000FF0000
0001FF8000
0003FFC000
0007FFE000
0007C3E000
000F81F000
000F81F000
000001F000
000003F000
000007E000
00003FE000
00003FC000
00003F8000
00003E0000
0000380000
0000380000
0000380000
0000000000
0000000000
0000000000
0003FF8000
001FFFF000
007FFFF800
00FFFFFE00
01FFFFFF00
03FFFFFF80
07FFFFFFC0
0FFFFFFFE0
1FFFFFFFF0
1FFFC3FFF0
3FFF00FFF8
3FFC01FFF8
7FFC07FFF8
7FF80FFFE0
7FF01FFFC0
FFF07FFF00
FFF0FFFE00
FFF3FFF800
FFF1FFF000
FFF0FFC000
FFF0FF8100
FFF07F03C0
FFF03C03F0
FFF83807FC
FFF8000FFF
7FFC001FFF
7FFE003FFF
7FFF80FFFE
3FFFFFFFFC
3FFFFFFFFC
1FFFFFFFF8
0FFFFFFFF0
0FFFFFFFE0
07FFFFFFE0
03FFFFFF80
01FFFFFF00
007FFFFE00
003FFFF800
0007FFE000
00007C0000
ENDCHAR
STARTCHAR 1EBC
ENCODING 7868
SWIDTH 514 0
DWIDTH 40 0
BBX 36 72 2 0
BITMAP
00000000F0
00000001F0
00007F01E0
0001FFF7E0
0003FFFFE0
0003FFFFC0
0007FFFFC0
0007FFFF80
000F81FF00
000F800800
000F000000
0000000000
0000000000
0000000000
0000000000
0000000000
0000000000
0000000000
000001FFE0
00001FFFE0
0000FFFFE0
0003FFFFE0
000FFFFFE0
001FFFFFE0
007FFFFFE0
00FFFFFFE0
01FFFFFFE0
03FFFFFFE0
07FFFFFFE0
07FFFFFFE0
0FFFFFC000
1FFFFE0000
1FFFF00000
3FFFE00000
3FFFC00000
3FFF800000
7FFF000000
7FFF000000
7FFFFFFFE0
7FFFFFFFE0
FFFFFFFFE0
FFFFFFFFE0
FFFFFFFFE0
FFFFFFFFE0
FFFFFFFFE0
FFFFFFFFE0
FFFFFFFFE0
FFFFFFFFE0
FFFFFFFFE0
FFFFFFFFE0
7FFFFFFFE0
7FFE000000
7FFF000000
7FFF000000
3FFF800000
3FFFC00000
1FFFE00000
1FFFF80000
0FFFFF0000
0FFFFFFFC0
07FFFFFFE0
03FFFFFFE0
01FFFFFFE0
00FFFFFFE0
007FFFFFE0
003FFFFFE0
001FFFFFE0
0007FFFFE0
0001FFFFE0
00007FFFE0
00000FFFE0
0000007FE0
ENDCHAR
STARTCHAR 1EBD
ENCODING 7869
SWIDTH 552 0
DWIDTH 43 0
BBX 40 56 2 -1
BITMAP
0000001E00
0003003E00
001FF03C00
003FFFFC00
007FFFFC00
007FFFF800
00FFFFF000
00FDFFF000
01F01FC000
01F0000000
0000000000
0000000000
0000000000
0000000000
0000000000
0000000000
0003FF8000
001FFFF000
007FFFF800
00FFFFFE00
01FFFFFF00
03FFFFFF80
07FFFFFFC0
0FFFFFFFE0
1FFFFFFFF0
1FFFC3FFF0
3FFF00FFF8
3FFC01FFF8
7FFC07FFF8
7FF80FFFE0
7FF01FFFC0
FFF07FFF00
FFF0FFFE00
FFF3FFF800
FFF1FFF000
FFF0FFC000
FFF0FF8100
FFF07F03C0
FFF03C03F0
FFF83807FC
FFF8000FFF
7FFC001FFF
7FFE003FFF
7FFF80FFFE
3FFFFFFFFC
3FFFFFFFFC
1FFFFFFFF8
0FFFFFFFF0
0FFFFFFFE0
07FFFFFFE0
03FFFFFF80
01FFFFFF00
007FFFFE00
003FFFF800
0007FFE000
00007C0000
ENDCHAR
STARTCHAR 1EBE
ENCODING 7870
SWIDTH 514 0
DWIDTH 40 0
BBX 35 87 2 0
BITMAP
000007FC00
00000FFC00
00000FF800
00001FF000
00001FE000
00003FC000
00003F8000
00007F0000
00007F0000
0000FE0000
0001FC0000
0001F80000
0003F00000
0003E00000
0000000000
00001FF000
00003FF800
00003FF800
00007FFC00
00007FFC00
0000FFFE00
0000FEFE00
0001FC7F00
0001FC7F00
0003F83F80
0003F01F80
0007E00FC0
0007C00FC0
000FC007E0
000F8003E0
0000000000
0000000000
0000000000
000001FFE0
00001FFFE0
0000FFFFE0
0003FFFFE0
000FFFFFE0
001FFFFFE0
007FFFFFE0
00FFFFFFE0
01FFFFFFE0
03FFFFFFE0
07FFFFFFE0
07FFFFFFE0
0FFFFFC000
1FFFFE0000
1FFFF00000
3FFFE00000
3FFFC00000
3FFF800000
7FFF000000
7FFF000000
7FFFFFFFE0
7FFFFFFFE0
FFFFFFFFE0
FFFFFFFFE0
FFFFFFFFE0
FFFFFFFFE0
FFFFFFFFE0
FFFFFFFFE0
FFFFFFFFE0
FFFFFFFFE0
FFFFFFFFE0
FFFFFFFFE0
7FFFFFFFE0
7FFE000000
7FFF000000
7FFF000000
3FFF800000
3FFFC00000
1FFFE00000
1FFFF80000
0FFFFF0000
0FFFFFFFC0
07FFFFFFE0
03FFFFFFE0
01FFFFFFE0
00FFFFFFE0
007FFFFFE0
003FFFFFE0
001FFFFFE0
0007FFFFE0
0001FFFFE0
00007FFFE0
00000FFFE0
0000007FE0
ENDCHAR
STARTCHAR 1EBF
ENCODING 7871
SWIDTH 552 0
DWIDTH 43 0
BBX 40 73 2 -1
BITMAP
00007FC000
0000FF8000
0000FF0000
0001FF0000
0003FE0000
0003FC0000
0007F80000
0007F00000
000FE00000
000FE00000
001FC00000
001F800000
003F000000
003E000000
0000000000
0001FF0000
0003FF8000
0003FF8000
0007FFC000
0007FFC000
000FFFE000
000FEFE000
001FC7F000
001F83F000
003F83F800
003F01FC00
007E00FC00
00FC007E00
00F8003E00
0000000000
0000000000
0000000000
0000000000
0003FF8000
001FFFF000
007FFFF800
00FFFFFE00
01FFFFFF00
03FFFFFF80
07FFFFFFC0
0FFFFFFFE0
1FFFFFFFF0
1FFFC3FFF0
3FFF00FFF8
3FFC01FFF8
7FFC07FFF8
7FF80FFFE0
7FF01FFFC0
FFF07FFF00
FFF0FFFE00
FFF3FFF800
FFF1FFF000
FFF0FFC000
FFF0FF8100
FFF07F03C0
FFF03C03F0
FFF83807FC
FFF8000FFF
7FFC001FFF
7FFE003FFF
7FFF80FFFE
3FFFFFFFFC
3FFFFFFFFC
1FFFFFFFF8
0FFFFFFFF0
0FFFFFFFE0
07FFFFFFE0
03FFFFFF80
01FFFFFF00
007FFFFE00
003FFFF800
0007FFE000
00007C0000
ENDCHAR
STARTCHAR 1EC0
ENCODING 7872
SWIDTH 514 0
DWIDTH 40 0
BBX 35 87 2 0
BITMAP
00007FC000
00007FE000
00003FE000
00001FF000
00000FF000
000007F800
000003F800
000001FC00
000001FC00
000000FE00
0000007F00
0000003F00
0000001F80
0000000F80
0000000000
00001FF000
00003FF800
00003FF800
00007FFC00
00007FFC00
0000FFFE00
0000FEFE00
0001FC7F00
0001FC7F00
0003F83F80
0003F01F80
0007E00FC0
0007C00FC0
000FC007E0
000F8003E0
0000000000
0000000000
0000000000
000001FFE0
00001FFFE0
0000FFFFE0
0003FFFFE0
000FFFFFE0
001FFFFFE0
007FFFFFE0
00FFFFFFE0
01FFFFFFE0
03FFFFFFE0
07FFFFFFE0
07FFFFFFE0
0FFFFFC000
1FFFFE0000
1FFFF00000
3FFFE00000
3FFFC00000
3FFF800000
7FFF000000
7FFF000000
7FFFFFFFE0
7FFFFFFFE0
FFFFFFFFE0
FFFFFFFFE0
FFFFFFFFE0
FFFFFFFFE0
FFFFFFFFE0
FFFFFFFFE0
FFFFFFFFE0
FFFFFFFFE0
FFFFFFFFE0
FFFFFFFFE0
7FFFFFFFE0
7FFE000000
7FFF000000
7FFF000000
3FFF800000
3FFFC00000
1FFFE00000
1FFFF80000
0FFFFF0000
0FFFFFFFC0
07FFFFFFE0
03FFFFFFE0
01FFFFFFE0
00FFFFFFE0
007FFFFFE0
003FFFFFE0
001FFFFFE0
0007FFFFE0
0001FFFFE0
00007FFFE0
00000FFFE0
0000007FE0
ENDCHAR
STARTCHAR 1EC1
ENCODING 7873
SWIDTH 552 0
DWIDTH 43 0
BBX 40 73 2 -1
BITMAP
0007FC0000
0003FE0000
0001FF0000
0001FF0000
0000FF8000
00007F8000
00003FC000
00001FC000
00000FE000
000007E000
000007F000
000003F000
000001F800
000000F800
0000000000
0001FF0000
0003FF8000
0003FF8000
0007FFC000
0007FFC000
000FFFE000
000FEFE000
001FC7F000
001F83F000
003F83F800
003F01FC00
007E00FC00
00FC007E00
00F8003E00
0000000000
0000000000
0000000000
0000000000
0003FF8000
001FFFF000
007FFFF800
00FFFFFE00
01FFFFFF00
03FFFFFF80
07FFFFFFC0
0FFFFFFFE0
1FFFFFFFF0
1FFFC3FFF0
3FFF00FFF8
3FFC01FFF8
7FFC07FFF8
7FF80FFFE0
7FF01FFFC0
FFF07FFF00
FFF0FFFE00
FFF3FFF800
FFF1FFF000
FFF0FFC000
FFF0FF8100
FFF07F03C0
FFF03C03F0
FFF83807FC
FFF8000FFF
7FFC001FFF
7FFE003FFF
7FFF80FFFE
3FFFFFFFFC
3FFFFFFFFC
1FFFFFFFF8
0FFFFFFFF0
0FFFFFFFE0
07FFFFFFE0
03FFFFFF80
01FFFFFF00
007FFFFE00
003FFFF800
0007FFE000
00007C0000
ENDCHAR
STARTCHAR 1EC2
ENCODING 7874
SWIDTH 514 0
DWIDTH 40 0
BBX 42 87 2 1
BITMAP
00000003FC00
00000007FE00
0000000FFF00
0000001FFF80
0000001F9F80
0000003E0FC0
0000003E07C0
0000000607C0
000000000FC0
000000001F80
00000000FF80
00000000FF00
00000000FE00
00000000F800
00000000E000
00001FF0E000
00003FF8E000
00003FF80000
00007FFC0000
00007FFC0000
0000FFFE0000
0000FEFE0000
0001FC7F0000
0001FC7F0000
0003F83F8000
0003F01F8000
0007E00FC000
0007C00FC000
000FC007E000
000F8003E000
000000000000
000000000000
000000000000
000001FFE000
00001FFFE000
0000FFFFE000
0003FFFFE000
000FFFFFE000
001FFFFFE000
007FFFFFE000
00FFFFFFE000
01FFFFFFE000
03FFFFFFE000
07FFFFFFE000
07FFFFFFE000
0FFFFFC00000
1FFFFE000000
1FFFF0000000
3FFFE0000000
3FFFC0000000
3FFF80000000
7FFF00000000
7FFF00000000
7FFFFFFFE000
7FFFFFFFE000
FFFFFFFFE000
FFFFFFFFE000
FFFFFFFFE000
FFFFFFFFE000
FFFFFFFFE000
FFFFFFFFE000
FFFFFFFFE000
FFFFFFFFE000
FFFFFFFFE000
FFFFFFFFE000
7FFFFFFFE000
7FFE00000000
7FFF00000000
7FFF00000000
3FFF80000000
3FFFC0000000
1FFFE0000000
1FFFF8000000
0FFFFF000000
0FFFFFFFC000
07FFFFFFE000
03FFFFFFE000
01FFFFFFE000
00FFFFFFE000
007FFFFFE000
003FFFFFE000
001FFFFFE000
0007FFFFE000
0001FFFFE000
00007FFFE000
00000FFFE000
0000007FE000
ENDCHAR
STARTCHAR 1EC3
ENCODING 7875
SWIDTH 552 0
DWIDTH 43 0
BBX 40 74 2 -1
BITMAP
0000000F00
0000003FC0
0000007FE0
000000FFF0
000001FFF8
000001F0F8
000003E07C
000003E07C
000000007C
00000000FC
00000001F8
0000000FF8
0000000FF0
0000000FE0
0000000F80
0000000E00
0001FF0E00
0003FF8E00
0003FF8000
0007FFC000
0007FFC000
000FFFE000
000FEFE000
001FC7F000
001F83F000
003F83F800
003F01FC00
007E00FC00
00FC007E00
00F8003E00
0000000000
0000000000
0000000000
0000000000
0003FF8000
001FFFF000
007FFFF800
00FFFFFE00
01FFFFFF00
03FFFFFF80
07FFFFFFC0
0FFFFFFFE0
1FFFFFFFF0
1FFFC3FFF0
3FFF00FFF8
3FFC01FFF8
7FFC07FFF8
7FF80FFFE0
7FF01FFFC0
FFF07FFF00
FFF0FFFE00
FFF3FFF800
FFF1FFF000
FFF0FFC000
FFF0FF8100
FFF07F03C0
FFF03C03F0
FFF83807FC
FFF8000FFF
7FFC001FFF
7FFE003FFF
7FFF80FFFE
3FFFFFFFFC
3FFFFFFFFC
1FFFFFFFF8
0FFFFFFFF0
0FFFFFFFE0
07FFFFFFE0
03FFFFFF80
01FFFFFF00
007FFFFE00
003FFFF800
0007FFE000
00007C0000
ENDCHAR
STARTCHAR 1EC4
ENCODING 7876
SWIDTH 514 0
DWIDTH 40 0
BBX 38 84 2 0
BITMAP
000000007C
00001F0078
00007FF0F8
0000FFFFF8
0000FFFFF0
0001FFFFF0
0001FFFFE0
0003F0FFC0
0003E01F00
0003C00000
0000000000
0000000000
00001FF000
00003FF800
00003FF800
00007FFC00
00007FFC00
0000FFFE00
0000FEFE00
0001FC7F00
0001FC7F00
0003F83F80
0003F01F80
0007E00FC0
0007C00FC0
000FC007E0
000F8003E0
0000000000
0000000000
0000000000
000001FFE0
00001FFFE0
0000FFFFE0
0003FFFFE0
000FFFFFE0
001FFFFFE0
007FFFFFE0
00FFFFFFE0
01FFFFFFE0
03FFFFFFE0
07FFFFFFE0
07FFFFFFE0
0FFFFFC000
1FFFFE0000
1FFFF00000
3FFFE00000
3FFFC00000
3FFF800000
7FFF000000
7FFF000000
7FFFFFFFE0
7FFFFFFFE0
FFFFFFFFE0
FFFFFFFFE0
FFFFFFFFE0
FFFFFFFFE0
FFFFFFFFE0
FFFFFFFFE0
FFFFFFFFE0
FFFFFFFFE0
FFFFFFFFE0
FFFFFFFFE0
7FFFFFFFE0
7FFE000000
7FFF000000
7FFF000000
3FFF800000
3FFFC00000
1FFFE00000
1FFFF80000
0FFFFF0000
0FFFFFFFC0
07FFFFFFE0
03FFFFFFE0
01FFFFFFE0
00FFFFFFE0
007FFFFFE0
003FFFFFE0
001FFFFFE0
0007FFFFE0
0001FFFFE0
00007FFFE0
00000FFFE0
0000007FE0
ENDCHAR
STARTCHAR 1EC5
ENCODING 7877
SWIDTH 552 0
DWIDTH 43 0
BBX 40 71 2 -1
BITMAP
00000003C0
00000007C0
0003F80780
0007FFDF80
000FFFFF80
000FFFFF00
001FFFFE00
001FFFFE00
003E07F800
003C006000
003C000000
0000000000
0000000000
0001FF0000
0003FF8000
0003FF8000
0007FFC000
0007FFC000
000FFFE000
000FEFE000
001FC7F000
001F83F000
003F83F800
003F01FC00
007E00FC00
00FC007E00
00F8003E00
0000000000
0000000000
0000000000
0000000000
0003FF8000
001FFFF000
007FFFF800
00FFFFFE00
01FFFFFF00
03FFFFFF80
07FFFFFFC0
0FFFFFFFE0
1FFFFFFFF0
1FFFC3FFF0
3FFF00FFF8
3FFC01FFF8
7FFC07FFF8
7FF80FFFE0
7FF01FFFC0
FFF07FFF00
FFF0FFFE00
FFF3FFF800
FFF1FFF000
FFF0FFC000
FFF0FF8100
FFF07F03C0
FFF03C03F0
FFF83807FC
FFF8000FFF
7FFC001FFF
7FFE003FFF
7FFF80FFFE
3FFFFFFFFC
3FFFFFFFFC
1FFFFFFFF8
0FFFFFFFF0
0FFFFFFFE0
07FFFFFFE0
03FFFFFF80
01FFFFFF00
007FFFFE00
003FFFF800
0007FFE000
00007C0000
ENDCHAR
STARTCHAR 1EC6
ENCODING 7878
SWIDTH 514 0
DWIDTH 40 0
BBX 35 93 2 -21
BITMAP
00001FF000
00003FF800
00003FF800
00007FFC00
00007FFC00
0000FFFE00
0000FEFE00
0001FC7F00
0001FC7F00
0003F83F80
0003F01F80
0007E00FC0
0007C00FC0
000FC007E0
000F8003E0
0000000000
0000000000
0000000000
000001FFE0
00001FFFE0
0000FFFFE0
0003FFFFE0
000FFFFFE0
001FFFFFE0
007FFFFFE0
00FFFFFFE0
01FFFFFFE0
03FFFFFFE0
07FFFFFFE0
07FFFFFFE0
0FFFFFC000
1FFFFE0000
1FFFF00000
3FFFE00000
3FFFC00000
3FFF800000
7FFF000000
7FFF000000
7FFFFFFFE0
7FFFFFFFE0
FFFFFFFFE0
FFFFFFFFE0
FFFFFFFFE0
FFFFFFFFE0
FFFFFFFFE0
FFFFFFFFE0
FFFFFFFFE0
FFFFFFFFE0
FFFFFFFFE0
FFFFFFFFE0
7FFFFFFFE0
7FFE000000
7FFF000000
7FFF000000
3FFF800000
3FFFC00000
1FFFE00000
1FFFF80000
0FFFFF0000
0FFFFFFFC0
07FFFFFFE0
03FFFFFFE0
01FFFFFFE0
00FFFFFFE0
007FFFFFE0
003FFFFFE0
001FFFFFE0
0007FFFFE0
0001FFFFE0
00007FFFE0
00000FFFE0
0000007FE0
0000000000
0000000000
0000000000
0000000000
0000000000
000007E000
00001FF000
00003FF800
00007FFC00
0000FFFE00
0000FFFE00
0000FFFE00
0000FFFE00
0000FFFE00
0000FFFE00
0000FFFE00
00007FFE00
00007FFC00
00003FF800
00000FF000
0000010000
ENDCHAR
STARTCHAR 1EC7
ENCODING 7879
SWIDTH 552 0
DWIDTH 43 0
BBX 40 78 2 -21
BITMAP
0001FF0000
0003FF8000
0003FF8000
0007FFC000
0007FFC000
000FFFE000
000FEFE000
001FC7F000
001F83F000
003F83F800
003F01FC00
007E00FC00
00FC007E00
00F8003E00
0000000000
0000000000
0000000000
0000000000
0003FF8000
001FFFF000
007FFFF800
00FFFFFE00
01FFFFFF00
03FFFFFF80
07FFFFFFC0
0FFFFFFFE0
1FFFFFFFF0
1FFFC3FFF0
3FFF00FFF8
3FFC01FFF8
7FFC07FFF8
7FF80FFFE0
7FF01FFFC0
FFF07FFF00
FFF0FFFE00
FFF3FFF800
FFF1FFF000
FFF0FFC000
FFF0FF8100
FFF07F03C0
FFF03C03F0
FFF83807FC
FFF8000FFF
7FFC001FFF
7FFE003FFF
7FFF80FFFE
3FFFFFFFFC
3FFFFFFFFC
1FFFFFFFF8
0FFFFFFFF0
0FFFFFFFE0
07FFFFFFE0
03FFFFFF80
01FFFFFF00
007FFFFE00
003FFFF800
0007FFE000
00007C0000
0000000000
0000000000
0000000000
0000000000
00007C0000
0001FF0000
0003FF8000
0007FFC000
000FFFE000
000FFFE000
000FFFE000
000FFFE000
000FFFE000
000FFFE000
000FFFE000
0007FFC000
0007FFC000
0003FF8000
0001FE0000
0000100000
ENDCHAR
STARTCHAR 1EC8
ENCODING 7880
SWIDTH 270 0
DWIDTH 21 0
BBX 15 75 4 0
BITMAP
0780
1FE0
3FF8
7FFC
FFFC
F87E
F83E
F03E
003E
007E
00FC
07FC
07F8
07F0
07C0
0780
0780
0780
0000
0000
0000
FFFC
FFFC
FFFC
FFFC
FFFC
FFFC
FFFC
FFFC
FFFC
FFFC
FFFC
FFFC
FFFC
FFFC
FFFC
FFFC
FFFC
FFFC
FFFC
FFFC
FFFC
FFFC
FFFC
FFFC
FFFC
FFFC
FFFC
FFFC
FFFC
FFFC
FFFC
FFFC
FFFC
FFFC
FFFC
FFFC
FFFC
FFFC
FFFC
FFFC
FFFC
FFFC
FFFC
FFFC
FFFC
FFFC
FFFC
FFFC
FFFC
FFFC
FFFC
FFFC
FFFC
FFFC
ENDCHAR
STARTCHAR 1EC9
ENCODING 7881
SWIDTH 244 0
DWIDTH 19 0
BBX 15 60 3 0
BITMAP
0780
1FE0
3FF8
7FFC
FFFC
F87E
F83E
F03E
003E
003E
00FE
07FC
07F8
07F0
07C0
0780
0780
0780
0000
0000
0000
7FF8
7FF8
7FF8
7FF8
7FF8
7FF8
7FF8
7FF8
7FF8
7FF8
7FF8
7FF8
7FF8
7FF8
7FF8
7FF8
7FF8
7FF8
7FF8
7FF8
7FF8
7FF8
7FF8
7FF8
7FF8
7FF8
7FF8
7FF8
7FF8
7FF8
7FF8
7FF8
7FF8
7FF8
7FF8
7FF8
7FF8
7FF8
7FF8
ENDCHAR
STARTCHAR 1ECA
ENCODING 7882
SWIDTH 270 0
DWIDTH 21 0
BBX 16 75 3 -21
BITMAP
7FFE
7FFE
7FFE
7FFE
7FFE
7FFE
7FFE
7FFE
7FFE
7FFE
7FFE
7FFE
7FFE
7FFE
7FFE
7FFE
7FFE
7FFE
7FFE
7FFE
7FFE
7FFE
7FFE
7FFE
7FFE
7FFE
7FFE
7FFE
7FFE
7FFE
7FFE
7FFE
7FFE
7FFE
7FFE
7FFE
7FFE
7FFE
7FFE
7FFE
7FFE
7FFE
7FFE
7FFE
7FFE
7FFE
7FFE
7FFE
7FFE
7FFE
7FFE
7FFE
7FFE
7FFE
0000
0000
0000
0000
0000
07E0
1FF8
3FFC
7FFE
7FFE
7FFF
FFFF
FFFF
FFFF
FFFF
7FFE
7FFE
3FFC
1FF8
0FF0
0080
ENDCHAR
STARTCHAR 1ECB
ENCODING 7883
SWIDTH 244 0
DWIDTH 19 0
BBX 16 76 2 -21
BITMAP
07C0
1FF0
3FF8
3FFC
7FFC
7FFE
7FFE
7FFE
7FFE
7FFC
7FFC
3FF8
1FF0
07E0
0000
0000
0000
3FFC
3FFC
3FFC
3FFC
3FFC
3FFC
3FFC
3FFC
3FFC
3FFC
3FFC
3FFC
3FFC
3FFC
3FFC
3FFC
3FFC
3FFC
3FFC
3FFC
3FFC
3FFC
3FFC
3FFC
3FFC
3FFC
3FFC
3FFC
3FFC
3FFC
3FFC
3FFC
3FFC
3FFC
3FFC
3FFC
3FFC
3FFC
3FFC
0000
0000
0000
0000
0000
07E0
1FF0
3FFC
7FFC
7FFE
FFFE
FFFE
FFFF
FFFF
FFFE
FFFE
7FFE
3FFC
3FF8
0FF0
ENDCHAR
ENDFONT
